<?xml version="1.0" encoding="UTF-8"?>
<svg id="Layer_1" data-name="Layer 1" xmlns="http://www.w3.org/2000/svg" viewBox="0 0 72.94 72.94">
  <defs>
    <style>
      .cls-1 {
        fill: #000;
      }

      .cls-1, .cls-2 {
        stroke-width: 0px;
      }

      .cls-2 {
        fill: #fff;
      }
    </style>
  </defs>
  <rect class="cls-2" width="72.94" height="72.94"/>
  <path class="cls-1" d="M19.6,7.54v48.8h23.5v16.6H0V7.54h19.6Z"/>
  <path class="cls-1" d="M30.77,30.39h42.17v15.1H30.77v-15.1Z"/>
  <path class="cls-1" d="M50.99,12.42c0-1.29.24-2.51.74-3.64.49-1.14,1.17-2.14,2.03-3.01.86-.86,1.86-1.54,3-2.03,1.14-.49,2.35-.74,3.65-.74s2.51.24,3.65.74c1.14.49,2.14,1.17,3,2.03.86.86,1.54,1.86,2.03,3.01.49,1.13.74,2.35.74,3.64s-.25,2.51-.74,3.65-1.17,2.14-2.03,3c-.86.86-1.86,1.54-3,2.03-1.14.5-2.36.74-3.65.74s-2.51-.24-3.65-.74c-1.14-.49-2.14-1.17-3-2.03-.86-.86-1.54-1.86-2.03-3-.49-1.14-.74-2.36-.74-3.65Z"/>
</svg>