<?xml version="1.0" encoding="utf-8"?>
<!-- Generator: Adobe Illustrator 28.4.1, SVG Export Plug-In . SVG Version: 6.00 Build 0)  -->
<svg version="1.1" id="Layer_1" xmlns="http://www.w3.org/2000/svg" xmlns:xlink="http://www.w3.org/1999/xlink" x="0px" y="0px"
	 viewBox="0 0 110.7 94.3" style="enable-background:new 0 0 110.7 94.3;" xml:space="preserve">
<style type="text/css">
	.st0{fill:#FFFFFF;}
</style>
<path class="st0" d="M19.6,4.4v48.8h23.5v16.6H0V4.4H19.6z"/>
<path class="st0" d="M30.8,27.3h68.6v15.1H30.8C30.8,42.4,30.8,27.3,30.8,27.3z"/>
<g>
	<path class="st0" d="M53.7,51.7v14.1h5.6v4H49V51.7L53.7,51.7L53.7,51.7z"/>
	<path class="st0" d="M61,52.8c0-0.3,0.1-0.7,0.2-1c0.1-0.3,0.3-0.6,0.5-0.8c0.2-0.2,0.5-0.4,0.8-0.5c0.3-0.1,0.6-0.2,1-0.2
		s0.7,0.1,0.9,0.2c0.3,0.1,0.6,0.3,0.8,0.5c0.2,0.2,0.4,0.5,0.5,0.8c0.1,0.3,0.2,0.6,0.2,1s-0.1,0.7-0.2,1s-0.3,0.6-0.5,0.8
		c-0.2,0.2-0.5,0.4-0.8,0.5c-0.3,0.1-0.6,0.2-1,0.2s-0.7-0.1-1-0.2c-0.3-0.1-0.6-0.3-0.8-0.5c-0.2-0.2-0.4-0.5-0.5-0.8
		C61,53.4,61,53.1,61,52.8z M65.6,57.5v12.3h-4.3V57.5H65.6z"/>
	<path class="st0" d="M82.4,57.5V69c0,0.7,0,1.3-0.1,1.8c-0.1,0.5-0.2,1-0.3,1.4c-0.2,0.5-0.5,1-0.9,1.5c-0.4,0.5-0.9,0.8-1.5,1.2
		c-0.6,0.3-1.2,0.6-2,0.8c-0.7,0.2-1.5,0.3-2.4,0.3c-1,0-1.8-0.1-2.6-0.4s-1.5-0.6-2.1-1s-1.1-0.9-1.5-1.5c-0.4-0.6-0.6-1.2-0.8-1.9
		h4.9c0.3,0.8,1,1.2,2.1,1.2c0.9,0,1.6-0.3,2.1-0.8c0.5-0.5,0.7-1.2,0.7-2.1v-1.2c-0.3,0.3-0.6,0.6-0.9,0.8
		c-0.3,0.2-0.6,0.4-0.9,0.5s-0.6,0.2-1,0.3s-0.7,0.1-1.1,0.1c-0.9,0-1.7-0.2-2.4-0.5s-1.4-0.7-1.9-1.3c-0.5-0.5-0.9-1.2-1.2-2
		s-0.4-1.6-0.4-2.5s0.2-1.8,0.5-2.6s0.8-1.5,1.3-2.1c0.6-0.6,1.2-1.1,2-1.4c0.8-0.3,1.6-0.5,2.5-0.5c1.5,0,2.7,0.5,3.7,1.6v-1.3
		L82.4,57.5L82.4,57.5z M72.7,63.6c0,0.4,0.1,0.8,0.2,1.1c0.1,0.3,0.3,0.6,0.6,0.9s0.5,0.5,0.9,0.6c0.3,0.1,0.7,0.2,1.1,0.2
		s0.8-0.1,1.1-0.2c0.3-0.1,0.6-0.3,0.9-0.6s0.4-0.6,0.6-0.9c0.2-0.3,0.2-0.7,0.2-1.1s-0.1-0.8-0.2-1.1c-0.2-0.3-0.4-0.6-0.6-0.9
		c-0.3-0.3-0.6-0.5-0.9-0.6c-0.3-0.1-0.7-0.2-1.1-0.2s-0.7,0.1-1.1,0.2c-0.3,0.2-0.6,0.3-0.9,0.6s-0.5,0.5-0.6,0.9
		S72.7,63.2,72.7,63.6L72.7,63.6z"/>
	<path class="st0" d="M95,57.5h4.4v12.3H95v-1.4c-0.9,1.2-2.2,1.8-3.8,1.8c-0.9,0-1.7-0.2-2.5-0.5c-0.8-0.3-1.4-0.8-2-1.4
		s-1-1.3-1.3-2.1S85,64.6,85,63.6c0-0.9,0.2-1.7,0.5-2.5c0.3-0.8,0.7-1.5,1.3-2.1s1.2-1.1,1.9-1.4s1.6-0.5,2.5-0.5
		c1.5,0,2.8,0.5,3.8,1.6V57.5L95,57.5z M89.5,63.6c0,0.4,0.1,0.8,0.2,1.1c0.1,0.3,0.3,0.6,0.6,0.9s0.5,0.5,0.9,0.6
		c0.3,0.1,0.7,0.2,1.1,0.2s0.8-0.1,1.1-0.2c0.3-0.1,0.6-0.3,0.9-0.6s0.4-0.6,0.6-0.9s0.2-0.7,0.2-1.1s-0.1-0.8-0.2-1.1
		s-0.3-0.6-0.6-0.9c-0.2-0.3-0.5-0.5-0.9-0.6c-0.3-0.1-0.7-0.2-1.1-0.2s-0.8,0.1-1.1,0.2c-0.3,0.1-0.6,0.3-0.9,0.6s-0.4,0.5-0.6,0.9
		S89.5,63.3,89.5,63.6L89.5,63.6z"/>
	<path class="st0" d="M53.4,85.1v8.7H49v-8.7h-1.4v-3.6H49v-3.7h4.3v3.7h2.5v3.6H53.4z"/>
	<path class="st0" d="M62.1,81.5v6.9c0,1.5,0.7,2.3,2.2,2.3c1.5,0,2.2-0.8,2.2-2.3v-6.9h4.3v7.8c0,1.7-0.6,2.9-1.6,3.7
		c-1.1,0.8-2.7,1.2-4.9,1.2s-3.8-0.4-4.9-1.2s-1.6-2.1-1.6-3.7v-7.8H62.1z"/>
	<path class="st0" d="M74,81.5h4.3v2c0.5-0.7,1-1.3,1.7-1.7s1.5-0.6,2.3-0.6h0.4c0.1,0,0.3,0,0.5,0.1v4.2C82.6,85.2,82,85,81.3,85
		c-1,0-1.8,0.3-2.3,0.9c-0.5,0.6-0.8,1.5-0.8,2.6v5.3H74L74,81.5L74,81.5z"/>
	<path class="st0" d="M89.2,88.4c0,1.9,0.9,2.8,2.6,2.8c0.9,0,1.7-0.4,2.1-1.2h4.2c-0.8,2.8-3,4.2-6.4,4.2c-1,0-2-0.2-2.9-0.5
		c-0.9-0.3-1.6-0.8-2.2-1.3c-0.6-0.6-1.1-1.3-1.4-2.1c-0.3-0.8-0.5-1.7-0.5-2.7s0.2-1.9,0.5-2.8s0.8-1.5,1.4-2.1
		c0.6-0.6,1.3-1,2.2-1.3c0.8-0.3,1.8-0.5,2.8-0.5s2,0.2,2.8,0.5s1.5,0.8,2.1,1.4s1,1.3,1.3,2.2c0.3,0.9,0.5,1.8,0.5,2.9v0.5
		L89.2,88.4L89.2,88.4z M94.3,85.9c-0.1-0.6-0.4-1.1-0.9-1.5c-0.4-0.4-1-0.6-1.6-0.6c-0.7,0-1.2,0.2-1.6,0.5s-0.7,0.8-0.8,1.5
		L94.3,85.9L94.3,85.9z"/>
	<path class="st0" d="M108.8,84.7c-0.8-0.4-1.6-0.6-2.3-0.6c-0.4,0-0.7,0.1-1,0.2c-0.2,0.2-0.4,0.4-0.4,0.7c0,0.1,0,0.3,0.1,0.3
		s0.1,0.2,0.3,0.2c0.1,0.1,0.3,0.2,0.6,0.2c0.3,0.1,0.6,0.1,1,0.2c1.2,0.2,2.1,0.7,2.7,1.3c0.6,0.6,0.9,1.4,0.9,2.4
		c0,0.7-0.1,1.4-0.4,1.9s-0.7,1.1-1.2,1.4c-0.5,0.4-1.1,0.7-1.8,0.9c-0.7,0.2-1.5,0.3-2.4,0.3c-1.7,0-3.3-0.5-4.9-1.4l1.6-3.1
		c1.2,0.8,2.4,1.2,3.5,1.2c0.4,0,0.7-0.1,1-0.3c0.3-0.2,0.4-0.4,0.4-0.7c0-0.2,0-0.3-0.1-0.4c0-0.1-0.1-0.2-0.2-0.3
		s-0.3-0.2-0.6-0.2s-0.6-0.2-1-0.2c-1.3-0.3-2.3-0.7-2.8-1.2s-0.8-1.3-0.8-2.2c0-0.7,0.1-1.3,0.4-1.9c0.3-0.6,0.6-1,1.1-1.4
		c0.5-0.4,1.1-0.7,1.7-0.9s1.4-0.3,2.3-0.3c1.4,0,2.7,0.3,4,0.8L108.8,84.7L108.8,84.7z"/>
</g>
<path class="st0" d="M83.7,7.9c0-1.1,0.2-2.1,0.6-3c0.4-1,1-1.8,1.7-2.5c0.7-0.7,1.6-1.3,2.5-1.7s2-0.6,3-0.6s2.1,0.2,3,0.6
	c0.9,0.4,1.8,1,2.5,1.7c0.7,0.7,1.3,1.5,1.7,2.5c0.4,0.9,0.6,2,0.6,3s-0.2,2.1-0.6,3s-1,1.8-1.7,2.5s-1.6,1.3-2.5,1.7
	c-0.9,0.4-2,0.6-3,0.6s-2.1-0.2-3-0.6c-0.9-0.4-1.8-1-2.5-1.7c-0.7-0.7-1.3-1.6-1.7-2.5S83.7,8.9,83.7,7.9z"/>
</svg>
