<?xml version="1.0" encoding="UTF-8"?>
<svg id="Layer_1" data-name="Layer 1" xmlns="http://www.w3.org/2000/svg" viewBox="0 0 110.66 94.28">
  <defs>
    <style>
      .cls-1 {
        fill: #000;
        stroke-width: 0px;
      }
    </style>
  </defs>
  <path class="cls-1" d="M19.6,4.42v48.8h23.5v16.6H0V4.42h19.6Z"/>
  <path class="cls-1" d="M30.77,27.27h68.61v15.1H30.77v-15.1Z"/>
  <g>
    <path class="cls-1" d="M53.65,51.73v14.11h5.64v3.98h-10.34v-18.1h4.7Z"/>
    <path class="cls-1" d="M60.97,52.79c0-.34.06-.65.19-.95.13-.3.3-.56.53-.78.22-.22.48-.4.78-.53.3-.13.61-.19.95-.19s.65.06.95.19c.3.13.56.3.78.53.22.22.4.48.53.78.13.29.19.61.19.95s-.06.65-.19.95-.3.56-.53.78c-.22.22-.48.4-.78.53-.3.13-.61.19-.95.19s-.65-.06-.95-.19c-.3-.13-.56-.3-.78-.53-.22-.22-.4-.48-.53-.78-.13-.3-.19-.61-.19-.95ZM65.6,57.52v12.31h-4.34v-12.31h4.34Z"/>
    <path class="cls-1" d="M82.43,57.52v11.47c0,.69-.04,1.3-.12,1.85-.08.54-.19,1.02-.34,1.44-.19.53-.49,1.02-.9,1.48-.41.46-.9.85-1.48,1.19-.58.34-1.23.6-1.96.79-.73.19-1.52.29-2.36.29-.96,0-1.84-.12-2.64-.36-.8-.24-1.5-.57-2.1-1s-1.09-.92-1.48-1.49c-.38-.57-.64-1.19-.77-1.86h4.9c.3.82.99,1.22,2.06,1.22.91,0,1.61-.26,2.1-.77.49-.51.73-1.22.73-2.14v-1.18c-.32.3-.63.56-.92.76-.3.2-.6.36-.9.49-.3.13-.62.22-.96.28-.34.06-.7.08-1.1.08-.88,0-1.69-.15-2.42-.46s-1.37-.73-1.91-1.27c-.54-.54-.95-1.2-1.25-1.96-.3-.76-.44-1.6-.44-2.53s.16-1.82.48-2.63c.32-.81.76-1.51,1.31-2.11.55-.6,1.21-1.07,1.97-1.42.76-.34,1.59-.52,2.48-.52,1.46,0,2.68.54,3.67,1.63v-1.29h4.34ZM72.68,63.61c0,.4.07.77.22,1.12.14.34.34.64.59.9.25.26.54.46.89.6.34.14.72.22,1.12.22s.75-.07,1.09-.22c.34-.14.64-.34.89-.6.25-.26.45-.56.6-.9.15-.34.23-.71.23-1.09s-.08-.77-.23-1.1c-.15-.34-.36-.63-.61-.89-.26-.26-.56-.46-.9-.6-.34-.14-.7-.22-1.07-.22s-.74.08-1.08.23c-.34.15-.63.35-.89.6s-.46.54-.61.88c-.15.34-.23.7-.23,1.08Z"/>
    <path class="cls-1" d="M95.01,57.52h4.37v12.31h-4.37v-1.37c-.93,1.17-2.18,1.75-3.77,1.75-.9,0-1.72-.16-2.47-.49-.75-.33-1.41-.79-1.97-1.38-.56-.59-1-1.29-1.31-2.09s-.47-1.67-.47-2.62c0-.88.15-1.72.46-2.51.3-.79.73-1.48,1.27-2.08s1.19-1.06,1.94-1.4c.75-.34,1.58-.52,2.5-.52,1.54,0,2.81.54,3.82,1.61v-1.22ZM89.54,63.64c0,.4.07.77.22,1.12.14.34.34.64.59.9.25.26.54.46.89.6.34.14.72.22,1.12.22s.75-.07,1.09-.22c.34-.14.64-.34.89-.6.25-.26.45-.55.6-.89.15-.34.23-.7.23-1.08s-.08-.75-.23-1.09c-.15-.34-.35-.64-.6-.9-.25-.26-.54-.46-.89-.6-.34-.14-.71-.22-1.09-.22s-.77.07-1.12.22c-.34.14-.64.34-.89.6-.25.26-.44.55-.59.88s-.22.68-.22,1.07Z"/>
    <path class="cls-1" d="M53.39,85.14v8.69h-4.34v-8.69h-1.44v-3.62h1.44v-3.7h4.34v3.7h2.47v3.62h-2.47Z"/>
    <path class="cls-1" d="M62.1,81.52v6.94c0,1.52.74,2.28,2.21,2.28s2.21-.76,2.21-2.28v-6.94h4.34v7.78c0,1.66-.55,2.91-1.64,3.74-1.1.83-2.73,1.25-4.91,1.25s-3.81-.42-4.91-1.25c-1.1-.83-1.64-2.08-1.64-3.74v-7.78h4.34Z"/>
    <path class="cls-1" d="M73.98,81.52h4.34v2.02c.46-.74,1.03-1.3,1.7-1.69.67-.39,1.46-.59,2.35-.59h.37c.14,0,.29.02.47.05v4.15c-.58-.29-1.2-.43-1.87-.43-1.01,0-1.76.3-2.27.9-.5.6-.76,1.48-.76,2.63v5.28h-4.34v-12.31Z"/>
    <path class="cls-1" d="M89.17,88.4c0,1.87.88,2.81,2.64,2.81.94,0,1.66-.38,2.14-1.15h4.2c-.85,2.82-2.97,4.22-6.36,4.22-1.04,0-1.99-.16-2.86-.47-.86-.31-1.6-.76-2.22-1.33-.62-.58-1.09-1.26-1.43-2.06-.34-.8-.5-1.7-.5-2.69s.16-1.95.48-2.77c.32-.82.78-1.52,1.37-2.1.59-.58,1.31-1.02,2.15-1.33.84-.31,1.79-.47,2.84-.47s1.98.16,2.81.47,1.54.76,2.11,1.36,1.02,1.32,1.32,2.17c.3.86.46,1.82.46,2.89v.46h-9.14ZM94.26,85.88c-.14-.61-.44-1.1-.89-1.46-.45-.37-.99-.55-1.63-.55-.67,0-1.22.18-1.64.53-.42.35-.69.85-.8,1.49h4.97Z"/>
    <path class="cls-1" d="M108.81,84.68c-.8-.42-1.58-.62-2.35-.62-.4,0-.72.08-.97.24-.25.16-.37.38-.37.65,0,.14.02.26.06.35.04.09.13.17.26.25.14.08.34.15.6.22.26.06.61.14,1.04.24,1.2.24,2.1.67,2.69,1.28.59.62.89,1.4.89,2.36,0,.72-.14,1.37-.43,1.94s-.69,1.06-1.2,1.45c-.51.39-1.13.7-1.85.91-.72.22-1.51.32-2.38.32-1.66,0-3.3-.47-4.92-1.42l1.58-3.07c1.22.83,2.37,1.25,3.46,1.25.4,0,.73-.09.98-.26.26-.18.38-.4.38-.67,0-.16-.02-.29-.06-.4-.04-.1-.12-.2-.25-.29s-.32-.17-.56-.24-.57-.15-.97-.23c-1.34-.27-2.28-.68-2.82-1.21s-.8-1.28-.8-2.22c0-.69.13-1.31.38-1.86.26-.55.62-1.02,1.1-1.4.48-.38,1.06-.68,1.74-.89.68-.21,1.44-.31,2.27-.31,1.36,0,2.68.26,3.96.79l-1.46,2.83Z"/>
  </g>
  <path class="cls-1" d="M83.69,7.86c0-1.08.2-2.09.62-3.04.41-.95.97-1.79,1.69-2.51.72-.71,1.55-1.28,2.5-1.69.95-.41,1.96-.61,3.04-.61s2.09.2,3.04.61c.95.41,1.78.98,2.5,1.69.72.72,1.28,1.55,1.69,2.51.41.95.62,1.96.62,3.04s-.21,2.09-.62,3.04-.97,1.78-1.69,2.5c-.72.72-1.55,1.28-2.5,1.69-.95.41-1.97.62-3.04.62s-2.09-.2-3.04-.62c-.95-.41-1.79-.97-2.5-1.69-.72-.72-1.28-1.55-1.69-2.5-.41-.95-.62-1.97-.62-3.04Z"/>
</svg>