<?xml version="1.0" encoding="UTF-8" standalone="no"?>
<!DOCTYPE svg PUBLIC "-//W3C//DTD SVG 1.1//EN" "http://www.w3.org/Graphics/SVG/1.1/DTD/svg11.dtd">
<svg width="100%" height="100%" viewBox="0 0 473 158" version="1.1" xmlns="http://www.w3.org/2000/svg" xmlns:xlink="http://www.w3.org/1999/xlink" xml:space="preserve" xmlns:serif="http://www.serif.com/" style="fill-rule:evenodd;clip-rule:evenodd;stroke-linejoin:round;stroke-miterlimit:2;">
    <g transform="matrix(1,0,0,1,-27.4,-45.2)">
        <path d="M347.2,89.7L322.3,89.7C320.7,89.7 319.7,90.5 319.7,92.1L319.7,198C319.7,199.6 320.7,200.6 322.3,200.6L330.4,200.6C332,200.6 332.8,199.6 332.8,198L332.8,156.9C332.8,155.8 333.8,154.5 335.2,154.5L348.4,154.5C369.3,154.5 380.1,142.2 380.1,121.2C380.2,100.3 366.5,89.7 347.2,89.7M348.6,143L336.5,143C335.7,143 334.3,142.7 334.3,140.8L334.3,103.8C334.3,102.2 335.1,101.4 336.7,101.4L348.7,101.4C360.7,101.4 368.2,107 368.2,121.3C368,135.6 361.5,143 348.6,143M391,199.6C391,199.6 391,199.7 391,199.6C390.9,199.6 390.8,199.7 390.8,199.7C390.6,199.7 390.4,199.5 390.4,199.3C390.4,199.1 390.5,199 390.6,198.9L390.7,198.9M262.4,60.6C262.4,52.1 269.3,45.2 278.1,45.2C286.6,45.2 293.5,52.1 293.5,60.6C293.5,69.3 286.6,76.3 278.1,76.3C269.3,76.3 262.4,69.4 262.4,60.6M265.4,176L265.4,89.7L290.5,89.7L290.5,171.8C290.5,181.8 293.1,184.6 299.5,184.6C301.3,184.6 302.8,184.3 305.4,183.6L306.4,198.2C302.5,200.3 297.2,202.3 288.4,202.3C274.4,202.4 265.4,196.7 265.4,176M215.9,96.3L215.9,192.7L223.8,200.6L201.7,200.6L193.8,192.7L193.8,90L249.1,90L249.1,129.5L215.9,96.3ZM190.6,90L190.6,192.7L182.7,200.6L160.6,200.6L168.5,192.7L168.5,96.3L135.3,129.5L135.3,90L190.6,90ZM135.9,189.4C132,191.6 128.5,192.9 125.8,192.9C118.6,192.9 117.7,184.8 117.7,172.5C117.7,160.4 118.7,144.7 118.7,135.3C118.7,122.7 117,111.4 110.3,102.8C103.6,94.2 91.8,87.8 75.1,87.8C51.5,87.8 32.3,100.9 32.3,120.1C32.3,130.2 37.7,136.6 45.1,136.6C51.3,136.6 55.9,132.2 55.9,125.8C51.5,120.4 48.5,115.5 48.5,109.1C48.5,97.3 58.1,92.8 68,92.8C79.3,92.8 89.9,98.2 95.3,110.3C98.3,117 99.7,125.6 99.7,138.9C99.7,140.6 99.7,141.4 99.5,144.3C94.3,143.6 87.7,142.8 79.8,142.8C69.4,142.8 56.2,144 46.1,149C35,154.4 27.4,164.8 27.4,177.3C27.4,193.1 39.7,203.2 58.7,203.2C69.8,203.2 78.6,199.7 86.3,192.6C92,187.4 96.2,181 98.9,173.6L99.9,173.8C99.2,179.5 99.2,181.9 99.2,186.9C99.2,196.5 104.1,202.4 112.5,202.4C118.9,202.4 127.8,198.9 138.1,192.5L135.9,189.4ZM92.6,177.1C86.4,189.7 77.1,196.1 67,196.1C55.9,196.1 48.3,188.5 48.3,176.4C48.3,167.5 52.7,159.2 60.4,153.7C67,149 75.9,146.6 85.8,146.6C90,146.6 95.2,147.1 99.4,148.1C98.2,162.6 96,170 92.6,177.1" style="fill-rule:nonzero;"/>
        <path d="M492.8,94.9C489.4,91.6 470.3,87.2 446.2,87.2C420.6,87.2 403.5,91.9 400.5,94.8C397.2,97.7 392.3,115.8 392.3,145.4C392.3,176.7 397,192.9 400.1,195.7C403.5,198.8 420.4,202.4 446.2,202.4C472.1,202.4 489.4,198.8 492.3,195.8C495.4,192.7 500.1,171.7 500.1,145.4C500.1,118.4 495.8,97.7 492.8,94.9M468.8,173.5C467.6,174.8 460.2,177.2 446.2,177.2C432.5,177.2 425,174.8 423.7,173.5C422.5,172.3 420,161.3 420,145.3C420,129.5 422.6,117.8 424,116C425.5,114.3 434.1,112.4 446.2,112.4C459,112.4 467.2,114.3 469.1,116C470.7,117.7 472.6,129.3 472.6,145.3C472.5,161.3 470.5,171.8 468.8,173.5" style="fill-rule:nonzero;"/>
    </g>
</svg>
