<?xml version="1.0" encoding="utf-8"?>
<!-- Generator: Adobe Illustrator 28.4.1, SVG Export Plug-In . SVG Version: 6.00 Build 0)  -->
<svg version="1.1" id="Layer_2" xmlns="http://www.w3.org/2000/svg" xmlns:xlink="http://www.w3.org/1999/xlink" x="0px" y="0px"
	 viewBox="0 0 168.7 149.9" style="enable-background:new 0 0 168.7 149.9;" xml:space="preserve">
<style type="text/css">
	.st0{clip-path:url(#SVGID_00000052092310965284448740000017071129085854976955_);}
	.st1{clip-path:url(#SVGID_00000012441255350482207940000003924986169450703753_);}
</style>
<path d="M155.1,100.6l-14.6,25.3c-1.8,3.2-3.7,4.2-7.3,4.2h-26.2l6.5-11.3c1.8-3.2,3.6-4.2,7.3-4.2l4.5,0c2.3,0.1,4.4-1.1,5.5-3.1
	l6.9-11.9c1.2-1.9,1.2-4.4,0-6.3l-6.8-11.7c-1.1-2-3.2-3.3-5.5-3.2l-21.2,0c-3.8,0-5.5-1.1-7.5-4.5l-6.5-11.2h43
	c3.7,0,5.5,1.1,7.3,4.2L155,92.2C156.9,95.4,156.9,97.5,155.1,100.6 M76,31.2L61.4,56.5c-1.8,3.2-1.8,5.3,0,8.4l21.5,37.2L89.4,91
	c2-3.4,2-5.4,0.1-8.7L78.9,63.9c-1.2-1.9-1.2-4.4,0-6.3l6.8-11.7c1.1-2,3.2-3.3,5.5-3.2h13.7c2.3-0.1,4.4,1.1,5.5,3.2l2.3,3.9
	c1.8,3.2,3.6,4.2,7.3,4.2h13.1l-13.1-22.7c-1.8-3.2-3.7-4.2-7.3-4.2l-29.2,0C79.6,27,77.8,28,76,31.2 M62.7,130.1l29.2,0
	c3.7,0,5.5-1.1,7.3-4.2l21.5-37.2l-12.9,0c-3.9,0-5.7,1-7.6,4.2l-10.6,18.4c-1.1,2-3.2,3.3-5.5,3.2l-13.5,0
	c-2.3,0.1-4.4-1.1-5.5-3.2l-6.9-11.9c-1.2-1.9-1.2-4.4,0-6.3l2.2-3.9c1.8-3.2,1.8-5.3,0-8.4l-6.5-11.3L40.8,92.2
	c-1.8,3.2-1.8,5.3,0,8.4l14.6,25.3C57.2,129.1,59,130.1,62.7,130.1"/>
<g>
	<defs>
		<path id="SVGID_1_" d="M44,32.2l0.2,0c0.1,0,0.2,0,0.2,0.1c-0.1,0.2-0.2,0.4-0.4,0.5l-0.1,0.1C43.6,32.7,44.1,32.5,44,32.2
			 M44,32.2L44,32.2L44,32.2L44,32.2z M57.2,29.3L57.2,29.3l-0.1-0.1l0.1-0.1l0.1,0l0.1-0.1l0.1,0c-0.1,0.1-0.2,0.2-0.2,0.3
			c-0.1,0.1-0.1,0.2-0.3,0.3C56.9,29.5,56.9,29.5,57.2,29.3 M51.7,28.5c0.1-0.1,0.2-0.2,0.3-0.4l0.2,0c0,0.1-0.1,0.2-0.1,0.3
			C51.9,28.5,51.8,28.5,51.7,28.5C51.7,28.5,51.7,28.5,51.7,28.5 M47.9,28.1l-0.1,0.2C47.4,28.2,47.4,28.2,47.9,28.1 M58,28.2
			c-0.1-0.2,0.2-0.5,0.4-0.7l0.2,0c0,0.2-0.2,0.5-0.3,0.7L58,28.2z M62.7,27.2l0.2,0l0,0.1l-0.1,0.1l-0.1,0.2l-0.1,0.2l-0.1,0
			C62.5,27.6,62.5,27.4,62.7,27.2 M62.7,27.1c-0.2,0,0-0.1,0.1-0.2c0.1,0,0.2-0.1,0.3-0.1c0,0.1-0.2,0.3,0.1,0.2l-0.1,0.1
			c-0.1,0-0.1,0-0.2,0C62.9,27.1,62.8,27.1,62.7,27.1 M58.5,27.3l0.1-0.1l0-0.1l0.1-0.2c0.1-0.1,0-0.1,0.1-0.2l0.1,0
			c0.1,0.1,0.1,0.2,0.1,0.3c0,0.1,0,0.2-0.2,0.2c-0.2,0-0.2,0.1-0.1,0.1l-0.1,0.1L58.5,27.3z M63,26.6L63,26.6l0.2-0.1
			c0.1,0,0.1,0.1,0.2,0.1l0,0.1c-0.2,0-0.3,0-0.5,0.1C62.6,26.7,62.9,26.6,63,26.6 M51.7,26.2c0.1-0.1,0.2-0.1,0.3-0.1l-0.1,0.2
			c-0.1,0.1-0.2,0.2-0.2,0.3l-0.1,0C51.5,26.6,51.6,26.4,51.7,26.2 M62.3,24.6L62.3,24.6l0.2-0.2c0.1,0,0.2,0,0.2,0.1
			c0,0.2,0.3,0.2,0.1,0.5l-0.1,0c-0.2-0.1-0.2,0-0.3,0.1l0,0.1c0,0.1-0.1,0.3-0.2,0.4l-0.2,0l0-0.3c0.1-0.1,0.1-0.2,0-0.3L62,25h0v0
			l-0.1,0l-0.1,0.3l-0.5,0.9l-0.1,0.1c-0.2,0.1-0.1,0.2-0.1,0.3c-0.1,0.2-0.2,0.3-0.3,0.5l0,0.1c0,0.1-0.1,0.1-0.2,0.1
			c-0.1,0-0.1-0.1,0-0.1l0.1-0.1c-0.1-0.2,0.1-0.4,0.3-0.6l0.1-0.2c0.2-0.5,0.4-0.9,0.7-1.3l0.1-0.2l0.1-0.1c0,0,0.1,0,0.1,0
			C62.2,24.7,62.3,24.7,62.3,24.6 M51,22.2l0.2-0.1c-0.1,0.1,0,0.2-0.3,0.3L51,22.2z M61,22.2c0.1-0.2,0.2-0.4,0.4-0.6l0.2,0
			c0,0.1-0.1,0.2-0.1,0.3l0,0.1l-0.1,0.1C61.3,22.2,61.2,22.2,61,22.2L61,22.2z M55.9,21.5c0.2-0.2,0.3-0.5,0.4-0.8l0-0.1
			c0.1,0,0.1-0.1,0.2-0.1c0,0.1,0,0.1,0.3,0.2l-0.1,0.1c-0.2,0.1-0.1,0.2-0.1,0.3c0,0.1,0,0.3-0.4,0.4l-0.2,0.1L55.9,21.5z M57,20.9
			l0-0.1c0-0.1,0.2-0.2,0-0.2c-0.1-0.1-0.1-0.1,0.2-0.2c0.1,0,0.2-0.1,0.2-0.1l0.2,0c0,0.1,0,0.2,0,0.3c-0.1,0.2-0.3,0.3-0.5,0.4
			C57.2,20.9,57.1,20.9,57,20.9C57,20.9,57,20.9,57,20.9C57,20.9,57,20.9,57,20.9 M56,20.2l0-0.2l0.1-0.2l0-0.1l0.1-0.2l0-0.1
			c0-0.1,0.1-0.1,0.2-0.1l0.2,0l0.3,0.2l-0.1,0.1l-0.2,0.3l0.1,0c0.1,0,0.1,0,0.1,0.1l-0.1,0.1l0.1,0c0,0.1-0.1,0.3-0.2,0.5
			l-0.2,0.1l-0.1,0c-0.1,0.1-0.2,0.3-0.3,0.5c-0.2,0.2-0.3,0.4-0.4,0.6l0.1,0.1c-0.2,0.1-0.3,0.3-0.3,0.5c-0.1,0.2-0.2,0.3-0.3,0.5
			c-0.1,0.1-0.1,0.2-0.2,0.3c-0.1,0.3-0.3,0.7-0.5,0.9l0,0.2c-0.1,0.1-0.2,0.1-0.2,0.2l-0.2,0.2c0,0.1,0.1,0.1,0.3,0
			c0.1,0.1,0.1,0.1,0.2-0.1l0.1-0.1l0.1,0c0.1-0.1,0.2-0.1,0.3,0c0,0.2-0.1,0.4-0.2,0.5c-0.1,0.2-0.3,0.3-0.3,0.5
			c-0.1,0.3-0.3,0.5-0.5,0.8c-0.2,0.4-0.4,0.7-0.7,1.1l0,0.1c0.1,0.1,0,0.2-0.1,0.3c-0.3,0.5-0.6,1-0.9,1.5
			c-0.1,0.1-0.2,0.2-0.3,0.4l-0.2,0l0-0.2c0.2-0.4,0.4-0.8,0.5-1.2c0.2-0.4,0.3-0.7,0.5-1c0.1-0.1,0.1-0.2,0.1-0.3
			c0.2-0.3,0.4-0.6,0.5-0.9c0.1-0.1,0.1-0.1,0.1-0.2l0.2-0.3c0.1-0.1,0.2-0.2,0.1-0.4c-0.2,0.1-0.2,0.2-0.3,0.3l-0.1,0.2l0,0.1
			c-0.1,0.1-0.2,0.2-0.2,0.3c-0.1,0.1-0.2,0.3-0.3,0.4c0.1,0.1,0,0.2-0.1,0.3L53,26.8c-0.1,0.1-0.2,0.3-0.4,0.5l0,0.1
			c0,0.1-0.1,0.2-0.2,0.3l0,0.2l-0.2,0l0-0.1l0,0l0.1-0.2l0-0.1c-0.1-0.1,0-0.1,0.1-0.2l-0.1-0.1c0-0.1,0.2-0.2,0-0.2
			c-0.2,0-0.3-0.1-0.5-0.1l-0.1,0c0,0,0-0.1,0.1-0.1c0.2,0,0.3-0.1,0.4-0.3c0.1-0.2,0.2-0.4,0.4-0.6l0-0.1l0-0.1l0.1-0.1
			c0.1,0,0.2-0.1,0.1-0.1l0-0.1l0.1-0.2c0.2-0.2,0.4-0.5,0.4-0.8l-0.1,0c-0.1,0.1-0.2,0-0.3,0l-0.2,0.2l0,0.2
			c-0.1,0.1-0.2,0.1-0.1,0.2l0,0.1c-0.1,0.1-0.1,0.1-0.2,0.1c-0.1,0-0.2,0-0.3,0c0-0.2,0.2-0.4,0.3-0.6l0.1-0.2
			c-0.1-0.1,0-0.1,0.1-0.1c0.1-0.1,0.2-0.2,0.2-0.4l0.1-0.2l0.1-0.1l0.1,0c0,0.2,0,0.3-0.1,0.5c0,0.1,0,0.1,0.2,0
			c0.1-0.1,0.1-0.2,0.2-0.3c0.1-0.2,0.3-0.5,0.2-0.7l0.1-0.1c0.3-0.2,0.4-0.5,0.5-0.9c0.1-0.2,0.1-0.3,0.2-0.5
			c0.1-0.1,0.1-0.1,0.2-0.1c0,0.1,0,0.1,0.1,0.2l0-0.1c0.1-0.2,0.2-0.3,0.3-0.5c0.1-0.1,0.1-0.3,0.4-0.3l0.1-0.2l0,0l-0.3,0
			c0-0.1-0.1-0.2,0.1-0.3c0.1-0.1,0-0.1-0.2-0.1l-0.2,0l0-0.1l0.1-0.1l0.1,0l0.1,0.1l0.1,0l0-0.1c-0.1-0.1,0-0.2,0-0.3
			c0,0,0.1-0.1,0.2-0.1l0,0.2c-0.1,0.1-0.1,0.1,0,0.1C55.9,20.2,55.9,20.2,56,20.2 M55.8,19.4c0-0.2,0-0.2,0.4-0.4
			c0.1,0.1-0.1,0.2-0.1,0.3C55.9,19.3,55.8,19.3,55.8,19.4L55.8,19.4z M54.5,18l0.1-0.1l0.2-0.1c0.1-0.1,0.2-0.1,0.2,0
			c-0.1,0.1-0.3,0.2-0.4,0.3c-0.2,0.1-0.2,0.1,0.1,0.1c0.1,0,0.1,0.1,0.1,0.1l-0.2,0.2c0,0.1-0.2,0.3-0.1,0.4l0,0.2
			c-0.1,0.2-0.3,0.3-0.7,0.3l0-0.2l0,0l-0.1,0.1c-0.1,0.1-0.8,1.2-1,1.5l0,0.1l0,0c-0.4,0.6-0.9,1.2-1.4,1.8c-0.1,0.1-0.1,0.1-0.2,0
			l-0.1,0c0.1-0.2,0.1-0.4,0.3-0.6l0,0c0.4-0.8,0.8-1.5,1.3-2.2c0.2-0.2,0.3-0.3,0.3-0.5c-0.1-0.1-0.3-0.1-0.1-0.2
			c0,0.1,0.2,0.1,0.3,0.1l0-0.1l0.3-0.1c0.1,0,0.2-0.1,0.3-0.1L53.6,19c-0.1,0-0.2,0-0.2,0.1l-0.1,0.1c-0.2-0.1-0.1-0.2-0.1-0.2
			l0-0.2c-0.3,0.1-0.4,0.1-0.5,0.3c0,0.1-0.1,0.2-0.4,0.2l0-0.1l-0.2,0.1l-0.1,0c0.2-0.3,0.5-0.5,0.8-0.7l0.2-0.1l0.1,0l0.1-0.1
			l0.1,0c0.2-0.1,0.5-0.2,0.6-0.4l0.2,0l0,0l0,0.1l0.1,0c0,0,0.1,0,0.1,0C54.4,18.2,54.4,18.1,54.5,18 M53.5,17.8
			c0.1,0,0.1-0.1,0.3-0.2c-0.2,0.2,0,0.2,0.1,0.2c-0.1,0.1-0.3,0.2-0.4,0.2C53.3,18.1,53.5,17.9,53.5,17.8 M55.9,17.7l0.3-0.2
			c0.1,0,0.2,0,0.4,0c0.2,0.1,0,0.3-0.1,0.4c-0.1,0.1-0.1,0.1-0.2,0c-0.1,0-0.2,0-0.2,0.1c0,0,0.1,0.1,0,0.1c-0.1,0.1-0.3,0.1-0.3,0
			c0-0.1-0.1-0.1-0.2,0c-0.1,0-0.1,0-0.2,0l0-0.3l0-0.1l0.1,0c0.1,0.1,0.1,0.1,0.2,0.1C55.8,17.8,55.9,17.7,55.9,17.7 M58.2,14.9
			L58.1,15L58,15.1l-0.1-0.1l-0.1,0.1l-0.1,0.1c0,0.1-0.1,0.2-0.2,0.3l0,0.2c-0.1,0.2-0.2,0.4-0.3,0.5c-0.1,0.1,0,0.2-0.2,0.3
			c-0.2,0.1-0.2,0.1-0.3,0l-0.2-0.1c-0.1,0-0.2,0-0.2,0.1c-0.1,0.1-0.2,0.1-0.4,0.2c-0.2,0-0.4,0.1-0.5,0.3
			c-0.1,0.2-0.2,0.4-0.4,0.5c-0.1,0-0.2,0-0.2,0l0.1-0.2c0-0.1,0-0.2,0.1-0.3c0.2-0.1,0.2-0.2,0.1-0.3l0-0.1c0-0.1,0.2-0.1,0.3-0.2
			l-0.1-0.1c0.1-0.2-0.2-0.1-0.3-0.1L55,16.3l0.1,0.1l0.1,0.1c0,0.1,0,0.1-0.1,0.2c-0.1,0.1-0.2,0.1-0.3,0.1
			c-0.2,0.1-0.3,0.1-0.1,0.2l0.2,0.1c-0.1,0.1-0.2,0.3-0.4,0.4c-0.1,0.1-0.2,0.1-0.2,0.3h0.1L54.4,18l-0.1,0l-0.1-0.1l0.1-0.1
			l-0.1-0.1L54,17.7l-0.1,0.1l0-0.1l-0.1-0.1c0-0.1,0.2-0.1,0-0.2c-0.1,0-0.2,0.1-0.2,0.1l-0.1,0.1l-0.1-0.1l0-0.3
			c-0.1-0.2,0-0.2,0.3-0.4c0.1,0,0.1,0.1,0.3,0.1c0.1-0.1,0.2-0.2,0.3-0.3l0-0.1l-0.2,0c-0.3,0.1-0.5,0.1-0.8,0.3l-0.3,0
			c-0.1-0.2-0.3-0.1-0.5,0l-0.1-0.1c0,0,0.1-0.1,0-0.1l-0.1,0.1c-0.1,0.1,0,0.1,0,0.2c-0.1,0.2,0.1,0.2,0.2,0.3
			c-0.1,0.2-0.1,0.3-0.2,0.5c0.1,0.1,0.1,0.3,0,0.5c0,0,0,0-0.1,0c-0.1,0.1-0.1,0.1-0.1,0.2l-0.1,0.2L52,18.9l0,0.1
			c-0.2,0.2-0.4,0.4-0.7,0.5c-0.1,0-0.2,0.1-0.2,0.2l0.1,0l0,0.1c-0.2,0.4-0.3,0.7-0.5,1.1c-0.1,0.2-0.2,0.4-0.4,0.6
			c-0.1,0.1-0.3,0-0.3,0.1l0,0.1l0.1-0.1l0.1,0l-0.1,0.2c-0.2,0.5-0.4,1-0.6,1.5c-0.2,0.5-0.6,1-0.9,1.6c-0.1,0.2-0.2,0.4-0.4,0.6
			c-0.2,0.3-0.4,0.7-0.6,1.1l-0.2,0.1c0,0.1-0.2,0.3-0.2,0.5c0.1,0.2,0,0.4-0.2,0.5l-0.1,0.2c0,0.1-0.1,0.3-0.2,0.4
			c-0.1,0.1-0.3,0.2-0.3,0.3l-0.1,0.1c-0.1,0.1-0.1,0.1,0,0.2c-0.1,0.1-0.3,0.3-0.1,0.4l0,0.1l-0.1,0.2l-0.2,0.1
			c-0.4,0.2-0.8,0.6-1,1c0,0.1-0.1,0.2,0.2,0.2l0.2,0c0.2,0.1,0.1,0.1-0.1,0.2c-0.1,0-0.2,0.1-0.3,0.1c-0.6,0.1-0.7,0.4-0.7,0.5
			c0,0.2-0.1,0.4-0.3,0.6l0,0.2h0c-0.4,0.4-0.8,0.9-1,1.4c0.9,0.4-0.4,0.7-0.6,1c-0.4,0.5-0.7,1-1,1.5c-0.3,0.7-0.7,1.4-1.3,1.9
			l0,0.1c0.3,0.4-0.3,0.7-0.4,1.1c-0.2,0.6-0.5,1.2-0.9,1.7c-0.1,0.1-0.1,0.2-0.2,0.3c0,0.4-0.2,0.7-0.4,1c-0.9,1.3-1.7,2.8-2.4,4.3
			c0.2,0.8-0.2,1.7-1.1,2l-0.1,0.1c-0.1,0.7-0.5,1.2-1,1.5c-0.1,0.4-0.3,0.7-0.6,0.9c0,0.4-0.1,0.7-0.4,1c0,0.4-0.2,0.9-0.5,1.1
			c-0.1,0.2-0.2,0.3-0.3,0.4c-0.1,0.1-0.2,0.3-0.3,0.4c-0.1,0.3-0.2,0.5-0.4,0.7c-0.4,0.7-0.8,1.4-1.1,2.1c0,0.4-0.2,0.7-0.5,1
			c-0.1,0.2-0.3,0.4-0.4,0.6c0.3,0.1,0.5,0.2,0.7,0.3c1.3,0.4,2.7,0.7,4.1,0.7c0.7,0,1.4,0.1,2,0.1c1.2,0.1,2.3,0,3.5-0.1
			c1.5-0.2,3.1-0.5,4.5-1c0.4-0.1,0.7-0.3,1-0.5l0.1-0.2c0.6-1,1.3-2,2.2-2.8c1-1.2,1.8-2.4,2.7-3.6c0.6-0.8,1.1-1.6,1.6-2.5l0,0
			l0.1-0.1l0,0c0.3-0.6,0.7-1.1,1.1-1.7c1.4-1.9,2.5-3.8,3.8-5.8l0-0.1l0.1-0.2l0-0.1l0.1-0.2c-0.1,0-0.2,0.1-0.2,0.2l-0.1,0.1
			l0.1,0l-0.1,0.2l-0.1,0l0.1-0.2c0.2-0.4,0.5-0.9,0.7-1.3c0.1-0.2,0.2-0.3,0.3-0.5c0.1-0.3,0.3-0.7,0.4-1l0.2-0.3
			c0.3-0.3,0.5-0.7,0.7-1c0.2-0.4,0.5-0.8,0.7-1.2c0.2-0.3,0.3-0.5,0.4-0.8c0.1-0.3,0.3-0.7,0.4-1l0.1,0l0.1,0l0.1,0.1l0,0.3l0,0.1
			l0.1-0.1c0.1-0.1,0.2-0.2,0.1-0.3c0.1-0.3,0.2-0.5,0.3-0.8c0.1-0.3,0.3-0.6,0.4-0.9l0-0.1l0-0.1l0.1-0.1l0.1-0.1l0-0.1l-0.1,0.1
			l-0.1,0.1c-0.1,0-0.1,0.1-0.1,0.1l-0.1,0.2l0,0.1c-0.1,0.1-0.2,0.2-0.4,0.3l0-0.1c0.1-0.4,0.6-0.8,0.4-1.1c0.2-0.2,0-0.3,0.1-0.5
			l0.2-0.2c-0.1-0.1-0.1-0.1-0.3,0.1l0-0.1l0-0.1l0.1-0.1h0.1l0-0.1l-0.1,0c-0.1-0.2,0.2-0.3,0.3-0.5l0-0.1l0.1-0.1l0.1,0
			c0.1,0.1,0.2,0,0.3-0.1c0.2-0.1,0.4-0.1,0.4-0.2c0.1-0.1,0.2-0.3,0.3-0.5c0.1-0.1-0.1-0.1-0.2-0.1l0-0.1l-0.1,0.1l-0.1,0.2
			c0.1,0.1,0,0.2-0.1,0.3L62,29.9c-0.1,0-0.1-0.1-0.1-0.1l0-0.1l0,0c0.2-0.5,0.4-0.9,0.7-1.2l0.1,0l0,0.2l0.1,0l0.1-0.1
			c-0.1-0.1,0.1-0.2,0.2-0.4c0.1-0.1,0.2-0.3,0.3-0.5c0-0.1-0.1-0.1-0.1-0.1c0,0-0.1,0-0.1,0l-0.1-0.1l0-0.1l0.1-0.1l0-0.1l-0.1,0
			l0-0.1l0-0.1c0.2-0.2,0.4-0.5,0.3-0.7c0-0.1,0-0.1,0.1-0.2c0.1-0.1,0-0.1,0-0.2l0.1-0.2l0-0.1l-0.1,0.1l0,0.1L63.6,26l-0.1,0.1
			l-0.1,0.1l-0.1,0.2c0-0.1,0.1-0.2,0.1-0.3c0-0.1,0.1-0.3,0.2-0.4c0.1-0.2,0.2-0.3,0.2-0.5l-0.2,0.1c-0.1,0.1-0.1,0.1-0.2,0.1
			l0-0.1c0.1-0.3,0.5-0.7,0.3-0.9l0.1-0.1c0.4-0.1,0.3-0.1,0.1-0.2l0-0.1c-0.1-0.2,0.1-0.5,0.2-0.7l0.1-0.1l0,0l0-0.1l0.1-0.1
			C64.1,22.9,64,23,63.9,23l-0.1,0c-0.1,0-0.2,0-0.3,0c0,0.3-0.3,0.6-0.3,0.9l-0.1,0l-0.1,0L62.9,24l0.2,0.1l0,0.1
			c-0.2,0.1-0.3,0.2-0.5,0.2c-0.2,0-0.3,0-0.5,0.1l-0.1,0l0,0c0.1-0.1,0.2-0.3,0.1-0.5c0-0.1,0-0.2,0.1-0.3l0-0.1
			c0.1-0.1,0.2-0.2,0.3-0.3c0.1,0,0,0.1,0.1,0.1c0.1,0,0.1-0.1,0.2-0.2l0-0.1c0-0.1,0.1-0.2,0.1-0.3c-0.3,0.1-0.2,0.2-0.2,0.3
			l-0.2,0.1c0.1-0.3,0.2-0.6,0.4-0.8c0.2,0,0.4,0,0.4-0.2c0-0.1,0.1-0.1,0.2-0.1c0,0,0.1,0.1,0.2,0l0.2-0.2c0.1-0.1,0-0.1,0-0.1
			l0.1-0.1l-0.1,0h0l0,0l-0.1-0.1l0.1-0.2l0.1-0.1l0.1-0.1l0.1,0l0,0.1l0-0.1l0-0.1l0-0.1l0,0l-0.2,0.1l0,0.1l0,0.1
			c-0.1,0.1-0.3,0-0.4,0.2c-0.1,0.1-0.2,0.1,0,0.1c0.1,0.1-0.1,0.2-0.3,0.2C62.8,22,62.5,22,62.3,22c-0.1,0-0.1,0-0.1-0.1
			c0-0.1,0.2-0.2,0.1-0.3l0.1-0.1l0.1-0.1l0,0l-0.1,0l0,0l-0.1,0.1l-0.1,0l-0.1,0l0,0.1c-0.1,0.2-0.2,0.3-0.2,0.5
			c-0.2,0.1-0.1,0.2-0.3,0.3l-0.1,0c-0.1,0.1-0.1,0.1-0.1,0.2c-0.1,0.1-0.2,0.2,0.1,0.2l0.1,0.1c0,0.1-0.3,0.2,0,0.3
			c-0.1,0.1-0.2,0.3-0.3,0.4l-0.2,0.1l0-0.1l0,0c0.1-0.1,0.2-0.2,0-0.2c-0.1,0.1-0.1,0.1-0.1,0.2L61,23.7c-0.1,0.1-0.2,0.1-0.3,0.3
			c-0.3,0.2-0.5,0.5-0.6,0.8c-0.1,0.2-0.2,0.5-0.4,0.6l-0.2,0c0-0.2,0.2-0.4,0.2-0.5c0.1-0.3,0.2-0.6,0.4-1c0.1-0.3,0.5-0.7,0.4-0.9
			c0.1-0.1,0.2-0.3,0.2-0.4l0.2-0.2c0.1,0,0.3-0.2,0.4-0.1c0,0.1-0.1,0.2,0.1,0.2c0.1-0.1,0.2-0.3,0.1-0.4l0-0.1
			c0.1-0.1,0.2-0.2,0.1-0.3c0.1-0.1,0.2-0.3,0.1-0.4l0-0.1c0.2-0.2,0.2-0.3,0.1-0.4c0-0.1,0.1-0.1-0.1-0.1c-0.2,0.1-0.2,0-0.3,0
			c-0.1-0.1,0.1-0.2,0.1-0.3l0.1-0.2c0-0.2,0.1-0.5,0.3-0.6l0-0.1c-0.1-0.3,0-0.3,0.4-0.6c0.1,0.1,0.2-0.2,0.2-0.3l-0.1-0.1l0-0.1
			l0-0.1l0-0.2l0-0.1l0,0l0.1,0l0.1-0.1h0.1l0-0.1l-0.1,0l0,0l-0.1,0h-0.1l0.1-0.1l-0.1,0l0-0.1l-0.1,0l0.1,0l0-0.1l0,0l-0.3,0.1
			l-0.1-0.1c-0.1-0.1,0-0.3,0-0.5c0-0.2,0.1-0.5,0.2-0.7c0-0.1,0.1-0.2,0.1-0.3c0.1-0.1,0.1-0.3,0.2-0.4l0.1,0l0.1-0.1l0.1-0.1
			c0.2-0.1,0.2-0.1,0.1-0.1l-0.1,0l-0.1,0c-0.1-0.1,0-0.2,0.2-0.2c0,0.1,0.1,0.1,0.2,0l0-0.1l0-0.1l-0.1,0l0,0.1l-0.1,0.1
			c-0.2,0.2-0.4,0.4-0.6,0.6c-0.1,0.1-0.1,0.3-0.2,0.4l-0.1,0.2c0,0.1-0.1,0.2-0.1,0.3l-0.1,0.1c-0.2,0-0.2,0.1-0.4,0.2l-0.1,0.1
			c-0.2,0-0.3,0.1-0.4,0.2c-0.2,0.1-0.1,0.3-0.3,0.4c-0.2,0.1-0.3,0.2-0.5,0.4l-0.1,0.1c0,0.1,0,0.2,0.2,0.2c0.2,0,0.1,0.1,0.1,0.1
			l0,0.1c-0.1,0.1-0.2,0.2-0.1,0.3c-0.1,0.1,0,0.2-0.2,0.2l-0.1,0.1c0,0.1-0.2,0.2-0.2,0.3l0,0.1l-0.1,0.1l-0.2,0.2
			c-0.1,0,0.1-0.1,0-0.2l0.1-0.1l0,0l0-0.1l-0.1,0.1l0,0.1l-0.1,0.1c-0.1,0.1-0.1,0.2-0.3,0.2c-0.1-0.1,0.1-0.2,0-0.2
			c-0.2,0-0.3-0.1-0.2-0.3c0,0,0-0.1-0.1-0.1c-0.1,0-0.1,0-0.2,0.1c-0.1,0.2-0.3,0.2-0.5,0.2c-0.1,0.1-0.2,0.3-0.3,0.4
			c-0.1,0-0.1,0-0.1,0c0,0,0,0,0,0l0-0.1l0.2-0.2l-0.1-0.1l-0.1,0.1L57.6,20l-0.1,0c-0.1,0-0.1-0.2-0.1-0.3s0-0.1,0.2-0.2l0.1-0.1
			c-0.1-0.1,0.1-0.3-0.1-0.3l0,0l-0.3,0c0-0.1,0.1-0.2,0.3-0.3c0.2-0.1,0.3,0,0.5-0.1V19l0.1-0.1c0.1-0.2,0.1-0.4,0.2-0.6
			c0-0.2,0.1-0.5,0.3-0.6c0.3-0.2,0-0.1,0-0.2l0-0.2c0.1-0.2,0.3-0.4,0.5-0.5l0.1,0l0.1,0.1l0.1,0c0.3-0.1,0.3-0.2,0.1-0.3l-0.1-0.1
			l-0.1,0.1l-0.2,0c0.1-0.1,0.2-0.2,0.2-0.3c0.1-0.1,0.1-0.2-0.1-0.1c-0.1,0-0.2,0-0.2,0l-0.2,0c-0.1,0-0.2,0-0.3,0
			c0-0.1,0.1-0.1,0-0.1l-0.2,0.1c0,0.1,0.1,0.1,0.2,0l0.1,0.1c-0.1,0.1,0.1,0.1,0,0.2l-0.1,0.2c-0.1,0.2-0.3,0.4-0.6,0.4
			c-0.1,0.1,0,0.1-0.1,0.2c0.1,0.1,0,0.2-0.1,0.4c-0.3,0-0.2,0.1-0.3,0.2c-0.1,0.1-0.1,0.2-0.1,0.2c0.1,0.1,0,0.2-0.1,0.3
			c-0.1,0-0.3,0.1-0.2-0.1c0-0.1,0.1-0.3,0.2-0.4L57.2,18l0.1-0.2c-0.1,0-0.1,0,0,0.1L57.2,18c-0.1,0.1-0.1,0.2-0.2,0.3l0,0.1l0,0.1
			l-0.1,0.2l-0.1,0l-0.1,0l-0.1,0l0-0.1l0.1-0.2l0-0.1l0.1-0.1l0-0.1L56.8,18c0.1-0.1,0.1-0.2,0.2-0.3c0.1,0,0.2-0.1,0.2-0.1
			c0.2,0,0.4-0.1,0.5-0.1c0.1,0,0.2,0,0.3-0.1c-0.2,0-0.2,0-0.1-0.1l-0.2,0.1c-0.1,0.1-0.3,0.1-0.4,0l0.1-0.1
			c0.1-0.2-0.1-0.4,0.3-0.6l0.1,0c0,0,0,0.2,0.2,0.1c0.2-0.1,0.2-0.2,0.2-0.2c-0.1-0.1-0.1-0.2-0.2-0.3c0.1-0.1,0.3-0.1,0.3-0.2
			c0.1-0.1,0.1-0.1-0.1-0.1c0.1-0.1,0.2-0.1,0.3-0.1l0.1-0.1l0.2-0.1l0.1-0.1l0,0l0-0.2c-0.2,0-0.4,0.1-0.5,0.2l-0.1,0
			c-0.1,0-0.2,0.2-0.3,0.1c0-0.2,0.1-0.4,0.1-0.6c0.2-0.1,0.3-0.2,0.3-0.4l0-0.1l-0.1,0L58.2,14.9z"/>
	</defs>
	<use xlink:href="#SVGID_1_"  style="overflow:visible;"/>
	<clipPath id="SVGID_00000145756366802711630600000003082255668145795762_">
		<use xlink:href="#SVGID_1_"  style="overflow:visible;"/>
	</clipPath>
	<g style="clip-path:url(#SVGID_00000145756366802711630600000003082255668145795762_);">
		<rect x="28.9" y="14.8" width="35.3" height="44.9"/>
	</g>
</g>
<g>
	<defs>
		<path id="SVGID_00000175297378586837573190000005908025431567864976_" d="M16.8,50.1L16.8,50.1l-0.2,0.1L16.8,50.1z M18.3,47.1
			c0-0.1,0.2-0.2,0.2-0.3C18.5,46.9,18.5,47,18.3,47.1L18.3,47.1z M18.9,46.7L18.9,46.7c0.1,0.1,0,0.2-0.2,0.3
			C18.8,46.9,18.8,46.8,18.9,46.7 M24.3,38c0,0.1-0.1,0.1-0.2,0.2C24.1,38.1,24.1,38,24.3,38 M28.5,29.9l0.1,0l0.1,0.1
			c-0.1,0.2-0.2,0.4-0.3,0.5l-0.1,0.1C28.2,30.3,28.5,30.2,28.5,29.9 M28.5,29.9L28.5,29.9L28.5,29.9L28.5,29.9z M37.1,28.2
			L37.1,28.2l0-0.1l0.1-0.1l0.1,0l0.1-0.1l0,0C37.3,28,37.2,28.1,37.1,28.2c0,0.2,0,0.3-0.1,0.4C36.8,28.4,36.8,28.4,37.1,28.2
			 M37.3,27.6L37.3,27.6L37.3,27.6L37.3,27.6z M40.9,27.2c0-0.1,0.1-0.1,0.2-0.1l0.1,0.1l0,0.1l-0.1,0c0,0-0.1,0-0.1,0
			C40.8,27.3,40.8,27.3,40.9,27.2 M34,27L34,27L34,27z M40.5,27.1c0.1-0.2,0.1-0.4,0.3-0.6l0.1,0l0,0.1l-0.1,0.1L40.7,27L40.5,27.1
			L40.5,27.1z M34.2,26.4L34.2,26.4c0.1,0.1,0,0.2-0.1,0.3l-0.2,0C34,26.7,34.1,26.6,34.2,26.4 M37.7,27.1c0-0.2,0.2-0.5,0.4-0.7
			l0.1,0c-0.1,0.2-0.2,0.5-0.3,0.7L37.7,27.1z M40.8,26.5l0.1-0.2l0.2-0.1c0,0.1-0.2,0.2,0,0.3l-0.1,0.1l0,0
			C41,26.6,40.9,26.5,40.8,26.5 M31.7,25.9l-0.1,0.2C31.4,26,31.4,25.9,31.7,25.9 M41.1,26L41.1,26l0.1-0.1l0.1,0.2l0,0.1
			c-0.1,0-0.2,0-0.3,0.1C40.9,26,41,26,41.1,26 M38.2,26.2l0.1-0.1l0.1-0.2l0.1-0.2l0.1-0.2l0.1,0c0,0.1,0,0.3,0,0.4
			c0,0.1-0.1,0.2-0.2,0.2c-0.1,0-0.1,0-0.1,0.1L38.2,26.2L38.2,26.2z M38.8,25.2c0-0.1,0.1-0.2,0.2-0.3l0,0C39,25,39,25.1,38.8,25.2
			L38.8,25.2z M39.2,24.5L39.2,24.5l-0.1,0.1L39.2,24.5z M34.4,24.3c0.1-0.1,0.1-0.1,0.2-0.1l-0.1,0.2c-0.1,0.1-0.2,0.2-0.2,0.3
			l-0.1,0C34.2,24.6,34.3,24.5,34.4,24.3 M34.9,23.7L34.9,23.7L34.9,23.7C34.8,23.8,34.8,23.8,34.9,23.7 M41.1,23.8L41.1,23.8
			l0.1-0.2l0.1,0.1c0,0.2,0.1,0.3-0.1,0.5l-0.1,0c-0.1-0.1-0.1,0-0.2,0.1l0,0.1c-0.1,0.1-0.1,0.3-0.2,0.4l-0.1,0
			c0-0.1,0.1-0.2,0.1-0.3c0.1-0.1,0.1-0.2,0.1-0.3l0,0l0,0l0,0l0,0l-0.1,0.3c-0.2,0.3-0.3,0.6-0.5,0.9l-0.1,0.1
			C40,25.6,40,25.7,40,25.8c-0.1,0.2-0.2,0.3-0.3,0.5l0,0.1l-0.1,0.1l0-0.1l0.1-0.1c0-0.2,0.2-0.5,0.3-0.6l0.1-0.2
			c0.2-0.5,0.4-0.9,0.7-1.3l0.1-0.2l0.1-0.1c0,0,0,0,0.1,0C41,23.9,41.1,23.8,41.1,23.8 M33.5,22.7l0.1-0.1l0,0.1L33.5,22.7
			L33.5,22.7L33.5,22.7z M37.1,22.2C37.1,22.2,37.2,22.2,37.1,22.2L37.1,22.2z M37,22L37,22l-0.1,0.1L37,22z M40.8,21
			c0.1-0.2,0.2-0.4,0.3-0.6l0.1,0.1c0,0.1-0.1,0.2-0.1,0.3l0,0.1L41,21L40.8,21L40.8,21z M34.8,19.9l0.1,0c-0.1,0.1,0,0.2-0.2,0.3
			L34.8,19.9z M37.9,19.7c0.2-0.3,0.3-0.5,0.4-0.8l0-0.1l0.1-0.1c0,0.2,0,0.2,0.1,0.3l-0.1,0.1c-0.1,0.1-0.1,0.2-0.1,0.3
			c0,0.2-0.1,0.3-0.3,0.4l-0.2,0.1L37.9,19.7z M38.7,19.1l0-0.1l0.1-0.2c-0.1-0.1,0-0.2,0.2-0.2l0.2-0.1l0.1,0
			c0,0.1-0.1,0.2-0.1,0.3c-0.1,0.1-0.2,0.3-0.4,0.4L38.7,19.1z M42.2,17.5l0.1-0.1L42.2,17.5L42.2,17.5z M38.3,18.1l0.1-0.2l0-0.1
			l0.1-0.2l0.1-0.1l0.1-0.1l0.1,0l0.1,0.2l-0.1,0.1l-0.2,0.2l0,0l0,0.1l-0.1,0.1l0,0c0,0.2-0.1,0.3-0.2,0.5l-0.1,0l0-0.1
			c-0.1,0.1-0.2,0.3-0.3,0.5c-0.1,0.2-0.3,0.4-0.4,0.6l0,0.2c-0.2,0.1-0.3,0.3-0.3,0.5c-0.1,0.2-0.2,0.3-0.3,0.5
			c-0.1,0.1-0.1,0.2-0.2,0.4c-0.1,0.3-0.3,0.6-0.5,0.9l0,0.2l-0.2,0.2l-0.2,0.2c0,0.1,0,0.1,0.1,0.1c0,0.1,0.1,0.1,0.1,0l0.1-0.1
			l0,0c0.1-0.1,0.2,0,0.2,0c0,0.2-0.1,0.4-0.2,0.5c-0.1,0.2-0.2,0.3-0.3,0.5c-0.1,0.3-0.3,0.5-0.4,0.8c-0.2,0.4-0.4,0.7-0.6,1.1
			l0,0.1c0,0.1,0,0.2-0.1,0.3c-0.3,0.5-0.5,1-0.8,1.5c-0.1,0.1-0.2,0.2-0.3,0.4l-0.1,0l0.1-0.2c0.2-0.4,0.4-0.8,0.6-1.3
			c0.2-0.4,0.3-0.7,0.5-1.1c0-0.1,0.1-0.2,0.1-0.3c0.2-0.3,0.4-0.6,0.5-0.9c0.1-0.1,0.1-0.1,0.1-0.2l0.2-0.3
			c0.1-0.1,0.2-0.2,0.2-0.4c-0.1,0.1-0.2,0.2-0.2,0.3l-0.1,0.2l0,0.1c-0.1,0.1-0.2,0.2-0.2,0.3c-0.1,0.1-0.2,0.2-0.2,0.4
			c0,0.1-0.1,0.2-0.1,0.3l-0.1,0.2c-0.1,0.1-0.2,0.3-0.3,0.4l0,0.1c0,0.1-0.1,0.2-0.2,0.3l-0.1,0.2l-0.1,0l0-0.1l0,0l0.1-0.2l0-0.1
			c-0.1-0.1,0-0.1,0.1-0.2l0-0.1l0.1-0.2c-0.1,0-0.1-0.2-0.3-0.1l-0.1,0l0.1-0.1c0.2,0,0.2-0.2,0.3-0.3c0.1-0.2,0.2-0.4,0.3-0.6
			l0-0.1l0-0.1l0.1-0.1l0.1-0.1l0-0.1l0.1-0.2c0.2-0.2,0.3-0.5,0.4-0.8l-0.1,0c-0.1,0.1-0.1,0-0.2,0l-0.2,0.2l-0.1,0.3l-0.1,0.2
			l0,0.1L35,23.6l-0.2,0c0.1-0.2,0.2-0.4,0.3-0.6l0.1-0.2l0.1-0.1c0.1-0.1,0.1-0.2,0.2-0.4l0.1-0.2l0.1-0.1l0.1,0
			c0,0.2-0.1,0.4-0.2,0.5c0,0.1,0,0.1,0.1,0c0.1-0.1,0.1-0.2,0.2-0.3c0.1-0.2,0.2-0.5,0.2-0.7l0.1-0.1c0.2-0.3,0.4-0.6,0.5-0.9
			c0.1-0.2,0.1-0.3,0.2-0.5l0.2-0.1c0,0.1,0,0.2,0,0.3l0-0.1c0.1-0.2,0.2-0.3,0.3-0.5c0.1-0.1,0.1-0.3,0.3-0.3l0.1-0.2l0,0l-0.2,0
			c0-0.1,0-0.2,0.1-0.3c0.1-0.1,0-0.1-0.1-0.1l-0.1,0l0-0.1l0.1-0.1l0.1,0l0,0.1l0.1,0l0-0.1c0-0.1,0.1-0.2,0.1-0.3L38.3,18.1
			l-0.1,0.1c-0.1,0.1,0,0.1,0.1,0.1L38.3,18.1z M41.4,17.1L41.4,17.1l0,0.1L41.4,17.1z M38.3,17.4c0.1-0.2,0.1-0.2,0.3-0.4
			c0,0.1-0.1,0.2-0.1,0.3L38.3,17.4L38.3,17.4z M39.6,16.8l0.1-0.1l0,0.1l-0.2,0.1L39.6,16.8z M42.2,17.2l0-0.1l0-0.1l0.1-0.1
			l0.1-0.1l0.1-0.2l0.1,0l0,0.1l0,0l-0.1,0.1l0,0l-0.1,0.1l0,0L42.5,17l-0.1,0l0,0l0,0l0.1,0C42.4,17.1,42.4,17.2,42.2,17.2
			L42.2,17.2z M37.8,15.8L37.8,15.8l0.2-0.1c0.1,0,0.2,0,0.1,0.1c-0.1,0.1-0.2,0.2-0.3,0.3c-0.1,0.1-0.1,0.1,0,0.2l0,0.1l-0.2,0.2
			c0,0.1-0.2,0.3-0.2,0.4l-0.1,0.2c-0.1,0.2-0.3,0.3-0.5,0.2l0.1-0.2l0,0L37,17.3c-0.1,0.1-0.7,1.2-0.9,1.5l0,0.1l0,0
			c-0.4,0.6-0.8,1.2-1.2,1.7l-0.1,0l0,0c0.1-0.2,0.2-0.4,0.3-0.6l0,0c0.4-0.7,0.8-1.5,1.2-2.2c0.2-0.1,0.3-0.3,0.3-0.5
			c0-0.1-0.2-0.1,0-0.2c0,0.1,0.1,0.1,0.2,0.1l0-0.1l0.2-0.1l0.2-0.1l0-0.1l-0.2,0.1l-0.1,0.1l0-0.3l0.1-0.2c-0.2,0-0.3,0.1-0.3,0.3
			c0,0.1-0.1,0.2-0.3,0.2l0-0.1l-0.1,0.1L36,17c0.2-0.3,0.4-0.5,0.7-0.7l0.1,0l0.1,0l0.1-0.1l0,0c0.2-0.1,0.3-0.2,0.5-0.3l0.1,0l0,0
			l0,0.1l0,0.1c0,0,0,0,0.1,0C37.7,15.9,37.7,15.8,37.8,15.8 M42.4,15.6L42.4,15.6l0,0.1L42.4,15.6z M38.7,15.6l0.2-0.1l0.2,0
			c0.1,0.1-0.1,0.3-0.2,0.4l-0.1,0c-0.1,0-0.1,0-0.1,0.1c0,0,0.1,0.1-0.1,0.2c-0.1,0-0.2,0.1-0.2,0c0-0.1-0.2,0-0.2-0.1l0.1-0.3
			l0-0.1l0.1,0c0,0.1,0,0.1,0.1,0.1C38.6,15.7,38.6,15.7,38.7,15.6 M37.2,15.4c0.1,0,0.1-0.1,0.2-0.1c-0.1,0.2-0.1,0.2,0,0.3
			c-0.1,0.1-0.2,0.1-0.3,0.2C37,15.7,37.2,15.6,37.2,15.4 M36.8,15.1L36.8,15.1L36.8,15.1L36.8,15.1z M40.6,12.8L40.6,13l-0.1,0.1
			l0-0.1l-0.1,0.1l-0.1,0.1c0,0.1-0.1,0.2-0.2,0.3l0,0.2c-0.1,0.2-0.2,0.4-0.3,0.5c-0.1,0.1-0.1,0.2-0.2,0.3c-0.1,0.1-0.2,0.1-0.2,0
			l-0.1-0.1l-0.2,0.1c-0.1,0.1-0.1,0.1-0.2,0.1c-0.2,0-0.3,0.1-0.4,0.3c-0.1,0.2-0.2,0.3-0.3,0.5l-0.1,0l0.1-0.2
			c0-0.1,0-0.2,0.1-0.3c0.1-0.1,0.2-0.2,0.1-0.3l0.1-0.2c0-0.1,0.2-0.1,0.2-0.2l0-0.1c0.1-0.2-0.1-0.1-0.2-0.2L38.4,14l0.1,0.1
			l0.1,0.1l-0.1,0.2l-0.2,0.1c-0.2,0.1-0.2,0.1-0.1,0.2l0.1,0.1c-0.1,0.1-0.2,0.3-0.3,0.4c-0.1,0.1-0.1,0.1-0.2,0.2l0.1,0l-0.1,0.2
			l-0.1,0l0-0.1l0.1-0.1l-0.1-0.1l0-0.1l-0.1,0.1l0-0.1l0-0.1l0.1-0.2l-0.2,0.1l-0.1,0.1l-0.1-0.1c0-0.1,0.1-0.2,0.1-0.3
			c0-0.2,0-0.2,0.3-0.4c0,0.1,0.1,0.2,0.2,0.2c0.1-0.1,0.2-0.2,0.3-0.3l0-0.1l-0.1,0c-0.2,0-0.4,0.1-0.5,0.2c-0.1,0-0.2,0.1-0.2,0
			c0-0.2-0.2-0.1-0.3,0l0-0.1l0-0.1l-0.1,0.1c-0.1,0.1,0,0.1,0,0.2c-0.1,0.2,0,0.2,0.1,0.3c-0.1,0.2-0.1,0.3-0.2,0.5
			c0.1,0.2,0,0.4-0.1,0.5l-0.1,0.2l-0.1,0.2l-0.1,0.2l0,0.1c-0.1,0.2-0.3,0.4-0.5,0.4l-0.1,0.1l0.1,0l0,0.1
			c-0.2,0.4-0.3,0.8-0.5,1.1c-0.1,0.2-0.2,0.4-0.4,0.6c0,0.1-0.2,0-0.2,0.1l0,0.1l0.1,0l0.1,0l-0.1,0.2c-0.2,0.5-0.4,1-0.7,1.5
			c-0.2,0.5-0.6,1.1-0.9,1.6c-0.1,0.2-0.2,0.4-0.4,0.6c-0.2,0.3-0.4,0.7-0.6,1.1l-0.1,0.1c0,0.2-0.2,0.3-0.2,0.5
			c0,0.2-0.1,0.4-0.2,0.5l-0.1,0.2c0,0.1-0.1,0.3-0.2,0.4c-0.1,0.1-0.2,0.2-0.2,0.3l-0.1,0.1l-0.1,0.2c-0.1,0.1-0.2,0.3-0.1,0.4
			l0,0.1L30.4,27l-0.1,0.1c-0.4,0.2-0.6,0.6-0.8,1c0,0.1-0.1,0.2,0.1,0.3l0.1,0.1c0.1,0.1,0,0.1-0.1,0.2l-0.2,0.1
			c-0.3,0-0.5,0.2-0.5,0.5c0,0.2-0.1,0.4-0.3,0.6l-0.1,0.2l0,0c-0.4,0.4-0.7,0.9-0.9,1.4c0.4,0.5-0.4,0.7-0.6,1
			c-0.3,0.5-0.7,1-0.9,1.5c-0.3,0.7-0.7,1.4-1.2,1.9l0,0.1c0.1,0.4-0.3,0.8-0.5,1.1c-0.3,0.6-0.6,1.2-0.9,1.7
			c-0.3,0.6-0.5,1.2-0.9,1.7c-0.4,0.6-0.8,1.2-1.1,1.7c-0.4,0.8-0.9,1.5-1.4,2.2c-0.4,0.6-0.8,1.2-1.3,1.8l0,0l-0.1,0.1l-0.1,0.1
			l0,0c-0.4,0.4-0.8,0.9-1.1,1.4c-0.2,0.3-0.5,0.7-0.8,0.9c-1.2,2.1-2.4,4.1-3.6,6.2c0.1,0.4,0.3,0.8,0.6,1c0.2,0.2,0.5,0.5,0.7,0.8
			c0.7,0.6,1.4,1,2.3,1.2c0.4,0.1,0.8,0.2,1.2,0.4c0.7,0.2,1.4,0.3,2.1,0.2c1,0,2-0.2,2.9-0.5c0.3-0.1,0.5-0.2,0.7-0.4l0.1-0.2
			c0.5-1,1.2-1.9,1.9-2.8c0.9-1.2,1.6-2.3,2.4-3.5c0.6-0.8,1-1.7,1.5-2.5l0,0l0.1-0.1l0,0c0.3-0.6,0.7-1.1,1-1.7
			c1.2-1.9,2.3-3.9,3.5-5.8l0-0.1l0.1-0.2l0.1-0.1l0.1-0.2c-0.1,0-0.2,0.1-0.2,0.2l-0.1,0.1l0,0L34,41l-0.1,0l0.1-0.2
			c0.2-0.4,0.4-0.9,0.7-1.3c0.1-0.2,0.2-0.3,0.3-0.5c0.1-0.4,0.3-0.7,0.5-1l0.1-0.3c0.2-0.3,0.5-0.7,0.7-1c0.2-0.4,0.4-0.8,0.6-1.2
			c0.2-0.3,0.3-0.5,0.4-0.8c0.1-0.3,0.3-0.7,0.5-1l0.1,0l0,0l0,0.1c0,0.1,0,0.2-0.1,0.3l0,0.1l0.1-0.1c0.1-0.1,0.1-0.2,0.1-0.3
			c0.1-0.3,0.2-0.5,0.4-0.8c0.1-0.3,0.3-0.6,0.4-0.9l0-0.1v-0.1l0.1-0.1l0.1-0.1l0-0.1l-0.1,0l-0.1,0.1c-0.1,0-0.1,0.1-0.1,0.1
			L38.8,32l0,0.1c-0.1,0.1-0.2,0.2-0.3,0.2l0-0.1c0.1-0.4,0.5-0.8,0.5-1.2c0.2-0.2,0.1-0.3,0.2-0.5c0.1-0.1,0.2-0.1,0.2-0.2
			c0-0.1,0-0.1-0.2,0l0-0.1l0-0.1l0.1-0.1l0,0l0-0.1l-0.1,0c0-0.2,0.2-0.3,0.3-0.5l0-0.1l0.1-0.1l0,0c0,0.1,0.1,0.1,0.2,0
			c0.1,0,0.2,0,0.3-0.2c0.1-0.2,0.2-0.3,0.3-0.5c0.1-0.1,0-0.1-0.1-0.1l0-0.1l-0.1,0.1l-0.1,0.2c0.1,0.1-0.1,0.2-0.1,0.4l-0.1,0.2
			l0-0.1l0-0.1l0,0c0.2-0.4,0.4-0.9,0.7-1.3l0,0l0,0.2l0,0l0.1-0.1c-0.1-0.1,0.1-0.2,0.2-0.4c0.1-0.2,0.2-0.3,0.3-0.5
			c0-0.1-0.1-0.1-0.1-0.1l0-0.1l0-0.1l0.1-0.1l0-0.1l0,0l0-0.1l0-0.1c0.2-0.2,0.3-0.4,0.3-0.7l0.1-0.2l0-0.2l0.1-0.2l0-0.1l-0.1,0.1
			l0,0.1l-0.1,0.1l-0.1,0.1l-0.1,0.1l-0.1,0.2c0-0.1,0.1-0.2,0.1-0.3c0.1-0.1,0.1-0.3,0.2-0.4c0.1-0.2,0.2-0.3,0.2-0.5l-0.1,0
			l-0.2,0.1l0-0.1c0.1-0.3,0.4-0.7,0.4-1l0-0.1c0.3-0.1,0.2-0.1,0.1-0.2l0-0.1c0.1-0.3,0.1-0.5,0.3-0.8l0.1-0.1l0,0l0-0.1l0.1-0.1
			l-0.2,0.1l-0.1,0l-0.2,0c-0.1,0.3-0.2,0.7-0.4,1l0-0.1l-0.1,0l-0.1,0.1l0.1,0.1l0,0.1c-0.1,0.1-0.2,0.2-0.4,0.2
			c-0.1,0-0.2,0-0.3,0.1l-0.1,0l0,0c0.1-0.1,0.2-0.3,0.2-0.5c0-0.1,0-0.2,0.1-0.3l0-0.1c0.1-0.1,0.1-0.2,0.2-0.3l0.1,0.1
			c0.1,0,0.1-0.1,0.1-0.2l0-0.1c0-0.1,0.1-0.2,0.2-0.3c-0.2,0.1-0.1,0.2-0.2,0.3l-0.1,0c0.1-0.3,0.2-0.6,0.4-0.8
			c0.1,0,0.2,0,0.3-0.2l0.1-0.1c0,0,0,0.1,0.1,0l0.1-0.2c0.1-0.1,0-0.1,0-0.1l0.1,0l-0.1,0l0,0l0,0l0-0.1l0.1-0.2l0.1-0.1l0.1-0.1
			l0,0l0,0.1l0-0.1l0-0.1l0-0.1l0,0l-0.2,0.1l0,0.1l0,0.1c-0.1,0.1-0.2,0-0.3,0.1l-0.1,0.2c0,0.1-0.1,0.2-0.2,0.2
			c-0.1,0-0.3,0.1-0.4,0.1l0-0.1c0-0.1,0.2-0.2,0.2-0.3l0.1-0.1l0.1,0l0,0l0,0l0,0l-0.1,0.1l0,0l0,0l0,0.1c-0.1,0.2-0.2,0.4-0.2,0.5
			c-0.1,0.1-0.1,0.2-0.2,0.3l0,0L41,21.7c-0.1,0.1-0.2,0.2,0,0.2l0.1,0.1c0,0.1-0.2,0.2-0.1,0.3c-0.1,0.1-0.2,0.2-0.3,0.4l-0.1,0
			l0-0.1l0,0l0.1-0.2c-0.1,0.1-0.1,0.1-0.1,0.2l-0.1,0.2c-0.1,0.1-0.2,0.1-0.2,0.2c-0.2,0.2-0.4,0.5-0.5,0.8
			c-0.1,0.2-0.2,0.4-0.4,0.6l-0.1,0c0.1-0.2,0.2-0.4,0.3-0.5c0.1-0.3,0.3-0.7,0.4-1c0.2-0.3,0.4-0.6,0.5-1c0.1-0.1,0.2-0.3,0.2-0.4
			l0.2-0.2c0.1,0,0.2-0.1,0.2,0c0,0.1-0.1,0.2,0,0.2c0.1-0.1,0.1-0.3,0.2-0.4l0-0.1c0.1-0.1,0.2-0.2,0.1-0.3
			c0.1-0.1,0.2-0.2,0.2-0.4l0-0.1c0.2-0.2,0.2-0.3,0.1-0.4c0-0.1,0.1-0.1,0-0.1c-0.1,0.1-0.1,0-0.2-0.1l0.1-0.3l0.1-0.2
			c0.1-0.2,0.2-0.4,0.3-0.6l0-0.1c0-0.3,0-0.3,0.4-0.6c0,0.1,0.2-0.2,0.2-0.3l0-0.1l0-0.1l0-0.1l0.1-0.2l0-0.1l0,0l0,0l0,0l0,0
			l0-0.1l0,0l0,0l0,0l0,0l0.1-0.1l0,0l0-0.1l0,0l0,0l0-0.1l0,0l-0.2,0.1l-0.1-0.1c0-0.2,0-0.4,0.1-0.5c0.1-0.3,0.1-0.5,0.2-0.8
			C43,15,43,14.9,43,14.8c0.1-0.1,0.1-0.3,0.2-0.4l0.1,0l0,0l0.1-0.1c0.1-0.1,0.1-0.1,0.1-0.1l-0.1,0l-0.1,0c0-0.1,0-0.2,0.2-0.2
			c0,0.1,0,0.1,0.1,0l0-0.1l0-0.1l-0.1,0l0,0.1l-0.1,0.1c-0.2,0.2-0.3,0.4-0.5,0.6c-0.1,0.2-0.1,0.3-0.2,0.4L42.8,15
			c0,0.1-0.1,0.2-0.1,0.3l-0.1,0.1c-0.1-0.1-0.2,0.1-0.2,0.2l-0.1,0.1c-0.1,0-0.2,0.1-0.3,0.1c-0.2,0.1-0.1,0.3-0.3,0.4
			c-0.1,0.1-0.3,0.2-0.4,0.3l-0.1,0.1c0,0.1-0.1,0.2,0.1,0.2c0.1,0,0,0.1,0,0.2l0,0.1c-0.1,0.1-0.1,0.2-0.1,0.3
			c-0.1,0.1-0.1,0.2-0.2,0.2l-0.1,0.1c0,0.1-0.1,0.2-0.2,0.3l0,0.1l-0.1,0.1l-0.2,0.2l0-0.2l0.1-0.1l0,0l0-0.1l-0.1,0.1l0,0.1
			l-0.1,0.1c-0.1,0.1-0.1,0.2-0.2,0.2l0-0.2c-0.1-0.1-0.1-0.1,0-0.3l-0.1-0.1L40,17.9c-0.1,0.1-0.2,0.2-0.3,0.2
			c-0.1,0.1-0.2,0.3-0.3,0.4c-0.1,0-0.1,0,0,0c0,0,0,0,0,0l0-0.1l0.2-0.2l0-0.1l-0.1,0.1l-0.1,0.1l-0.1,0l0-0.3c0-0.1,0-0.2,0.1-0.1
			l0.1-0.1c-0.1-0.1,0.1-0.3,0-0.3l0,0c-0.1,0-0.2,0.1-0.2,0c0-0.1,0.1-0.2,0.2-0.3c0.1,0,0.1,0,0.2,0c0,0,0.1,0,0.1,0l0,0.1
			l0.1-0.1c0.1-0.2,0.2-0.4,0.2-0.7c0-0.2,0.2-0.4,0.3-0.6c0.2-0.2,0-0.2,0-0.2l0-0.2c0.1-0.2,0.2-0.3,0.4-0.4l0.1,0l0,0.2l0.1,0.1
			c0.2-0.1,0.2-0.2,0.1-0.3l0-0.1L41,14.9l-0.1,0c0.1-0.1,0.1-0.2,0.2-0.3c0.1-0.1,0.1-0.2-0.1-0.1l-0.1,0l-0.1,0l-0.2-0.1l0-0.2
			l-0.2,0.1l0.1,0.1l0,0.1c-0.1,0.1,0,0.1,0,0.2L40.5,15c-0.1,0.2-0.2,0.3-0.4,0.4L40,15.6c0,0.1-0.1,0.3-0.2,0.4
			c-0.2,0-0.2,0.1-0.2,0.2c-0.1,0-0.1,0.1-0.1,0.2c0,0.1,0,0.2-0.1,0.3h0c-0.1,0-0.1,0-0.1-0.1c0-0.1,0.1-0.3,0.2-0.4l0-0.1l0.1-0.2
			l0,0.1L39.4,16c-0.1,0.1-0.1,0.2-0.2,0.3l0,0.1l0,0.1l-0.1,0.2l0,0l-0.1,0l0,0l0-0.1l0.1-0.2l0-0.1l0.1-0.1l0-0.1l0-0.1
			c0-0.1,0.1-0.2,0.2-0.2l0.1-0.1c0.1,0,0.2,0,0.3-0.1l0.2,0c-0.1,0-0.1-0.1,0-0.1l-0.2,0.1c-0.1,0.1-0.2,0-0.3,0l0.1-0.1
			c0.1-0.2,0-0.4,0.3-0.6l0.1,0c0,0-0.1,0.2,0.1,0.1c0.1,0,0.2-0.2,0.1-0.2c0-0.1,0-0.3-0.1-0.3c0.1-0.1,0.2-0.1,0.2-0.2l0-0.1
			c0.1-0.1,0.2,0,0.2-0.1l0.1-0.1l0.1,0l0.1,0l0,0l0.1-0.2c-0.1,0-0.2,0.1-0.3,0.1l-0.1,0l-0.2,0.1c0.1-0.2,0.1-0.4,0.2-0.6
			C40.6,13.2,40.7,13.1,40.6,12.8l0.1,0l-0.1-0.1L40.6,12.8z"/>
	</defs>
	<use xlink:href="#SVGID_00000175297378586837573190000005908025431567864976_"  style="overflow:visible;"/>
	<clipPath id="SVGID_00000093879851225707154990000014061250942438178484_">
		<use xlink:href="#SVGID_00000175297378586837573190000005908025431567864976_"  style="overflow:visible;"/>
	</clipPath>
	<g style="clip-path:url(#SVGID_00000093879851225707154990000014061250942438178484_);">
		<rect x="3.6" y="8.2" transform="matrix(0.866 -0.5 0.5 0.866 -14.0497 18.9717)" width="49.5" height="55.1"/>
	</g>
</g>
</svg>
