<?xml version="1.0" encoding="utf-8"?>
<!-- Generator: Adobe Illustrator 28.4.1, SVG Export Plug-In . SVG Version: 6.00 Build 0)  -->
<svg version="1.2" baseProfile="tiny" id="Layer_1" xmlns="http://www.w3.org/2000/svg" xmlns:xlink="http://www.w3.org/1999/xlink"
	 x="0px" y="0px" viewBox="0 0 257.6 42.6" overflow="visible" xml:space="preserve">
<g>
	<path fill="none" d="M74.4,26c0-4.1-1.7-6.1-4.4-6.1c-2.8,0-4.5,2-4.5,6.1v0.4c0,3.9,1.7,6,4.4,6c2.7,0,4.5-2,4.5-6V26z"/>
	<path fill="none" d="M187.7,26.4V26c0-3.9-1.7-6.1-4.6-6.1c-3,0-4.6,2-4.6,6.1v0.4c0,3.9,1.7,6,4.5,6
		C185.9,32.4,187.7,30.4,187.7,26.4z"/>
	<path fill="none" d="M19.5,19.2c-2.4,0-4.1,1.6-4.5,4.4h8.6C23.5,20.8,22.1,19.2,19.5,19.2z"/>
	<path fill="none" d="M103.2,26.4V26c0-3.9-1.7-6.1-4.6-6.1c-3,0-4.6,2-4.6,6.1v0.4c0,3.9,1.7,6,4.5,6
		C101.4,32.4,103.2,30.4,103.2,26.4z"/>
	<path fill="none" d="M211.7,19.2c-2.4,0-4.1,1.6-4.5,4.4h8.6C215.7,20.8,214.3,19.2,211.7,19.2z"/>
	<path fill="none" d="M243,26c0-4.1-1.7-6.1-4.4-6.1c-2.8,0-4.5,2-4.5,6.1v0.4c0,3.9,1.7,6,4.4,6c2.7,0,4.5-2,4.5-6V26z"/>
	<path d="M187.4,34.2V38h8V4.2h-8v13.6c-1.3-2.4-3.5-3.9-7.2-3.9c-5.6,0-10,4.3-10,12.3v0.4c0,8.1,4.4,12,9.9,12
		C183.7,38.6,186.3,36.6,187.4,34.2z M178.4,26.4v-0.4c0-4.1,1.6-6.1,4.6-6.1c3,0,4.6,2.1,4.6,6.1v0.4c0,4-1.8,6-4.7,6
		C180.2,32.4,178.4,30.4,178.4,26.4z"/>
	<path d="M74.1,34.3V38h8V14.6h-8v3.3c-1.3-2.4-3.5-3.9-7-3.9c-5.2,0-9.8,4.3-9.8,12.3v0.4c0,8.1,4.6,12,9.8,12
		C70.5,38.6,72.9,36.6,74.1,34.3z M69.8,32.4c-2.6,0-4.4-2-4.4-6v-0.4c0-4.1,1.7-6.1,4.5-6.1c2.7,0,4.4,2,4.4,6.1v0.4
		C74.4,30.4,72.5,32.4,69.8,32.4z"/>
	<path d="M158,8.2c0,2.4,1.9,4.1,4.4,4.1c2.5,0,4.4-1.8,4.4-4.1c0-2.4-1.9-4.2-4.4-4.2C159.9,4,158,5.8,158,8.2z"/>
	<path d="M102.9,34.2V38h8V4.2h-8v13.6c-1.3-2.4-3.5-3.9-7.2-3.9c-5.6,0-10,4.3-10,12.3v0.4c0,8.1,4.4,12,9.9,12
		C99.2,38.6,101.8,36.6,102.9,34.2z M93.9,26.4v-0.4c0-4.1,1.6-6.1,4.6-6.1c3,0,4.6,2.1,4.6,6.1v0.4c0,4-1.8,6-4.7,6
		C95.7,32.4,93.9,30.4,93.9,26.4z"/>
	<path d="M242.7,34.3V38h8V14.6h-8v3.3c-1.3-2.4-3.5-3.9-7-3.9c-5.2,0-9.8,4.3-9.8,12.3v0.4c0,8.1,4.6,12,9.8,12
		C239.1,38.6,241.5,36.6,242.7,34.3z M238.4,32.4c-2.6,0-4.4-2-4.4-6v-0.4c0-4.1,1.7-6.1,4.5-6.1c2.7,0,4.4,2,4.4,6.1v0.4
		C243,30.4,241.1,32.4,238.4,32.4z"/>
	<path d="M223.6,30.3h-7.5c-0.3,1.6-1.4,2.8-4.1,2.8c-2.9,0-4.7-1.8-4.9-4.9h16.5V26c0-8.4-5.5-12.1-11.9-12.1
		c-7.1,0-12.7,4.8-12.7,12.3v0.4c0,7.7,5.4,12,12.7,12C218.8,38.6,222.9,35.6,223.6,30.3z M211.7,19.2c2.6,0,4,1.6,4.1,4.4h-8.6
		C207.6,20.8,209.3,19.2,211.7,19.2z"/>
	<path d="M55,30.5c0-5-3.1-6.7-9.6-7.5c-2.9-0.4-3.9-0.8-3.9-1.9c0-1.1,0.9-1.8,2.6-1.8c1.8,0,2.7,0.8,3,2.3h7.3
		c-0.5-5.6-4.6-7.6-10.4-7.6c-5.4,0-10.1,2.5-10.1,7.7c0,4.9,2.6,6.7,8.9,7.5c3.2,0.4,4.4,1,4.4,2.1c0,1.2-0.9,1.9-2.9,1.9
		c-2.3,0-3.1-0.9-3.3-2.6h-7.4c0.2,5.2,4.1,8,10.8,8C50.8,38.6,55,36.1,55,30.5z"/>
	<rect x="158.4" y="14.6" width="8" height="23.5"/>
	<rect x="115.4" y="22.5" width="38.4" height="4.7"/>
	<path d="M31.5,30.3h-7.5c-0.3,1.6-1.4,2.8-4.1,2.8c-2.9,0-4.7-1.8-4.9-4.9h16.5V26c0-8.4-5.5-12.1-11.9-12.1
		c-7.1,0-12.7,4.8-12.7,12.3v0.4c0,7.7,5.4,12,12.7,12C26.7,38.6,30.7,35.6,31.5,30.3z M19.5,19.2c2.6,0,4,1.6,4.1,4.4H15
		C15.4,20.8,17.1,19.2,19.5,19.2z"/>
</g>
</svg>
