<?xml version="1.0" encoding="UTF-8" standalone="no"?>
<!DOCTYPE svg PUBLIC "-//W3C//DTD SVG 1.1//EN" "http://www.w3.org/Graphics/SVG/1.1/DTD/svg11.dtd">
<svg width="100%" height="100%" viewBox="0 0 65 105" version="1.1" xmlns="http://www.w3.org/2000/svg" xmlns:xlink="http://www.w3.org/1999/xlink" xml:space="preserve" xmlns:serif="http://www.serif.com/" style="fill-rule:evenodd;clip-rule:evenodd;stroke-linejoin:round;stroke-miterlimit:2;">
    <g transform="matrix(1,0,0,1,-11.5,-7.5)">
        <path d="M14.2,20.6L17.3,20.6L17.3,22.2L14.2,22.2L14.2,24L17.6,24L17.6,25.6L12.3,25.6L12.3,17.4L17.6,17.4L17.6,19L14.2,19L14.2,20.6Z" style="fill-rule:nonzero;"/>
        <path d="M23.9,17.6L23.9,19.2C23,19 22.1,18.9 21.6,18.9C20.8,18.9 20.5,19.1 20.5,19.6L20.5,19.8C20.5,21 24.2,19.9 24.2,23L24.2,23.2C24.2,24.8 23.2,25.7 21.2,25.7C20.3,25.7 19.2,25.6 18.5,25.4L18.5,23.8C19.3,24 20.3,24.1 21,24.1C22.1,24.1 22.3,23.7 22.3,23.3L22.3,23.1C22.3,21.8 18.6,23 18.6,19.8L18.6,19.6C18.6,18.2 19.6,17.4 21.5,17.4C22.4,17.3 23.2,17.4 23.9,17.6Z" style="fill-rule:nonzero;"/>
        <path d="M30.3,17.5L30.3,19.1C29.5,18.9 29.1,18.9 28.5,18.9C27.4,18.9 26.9,19.6 26.9,20.9L26.9,22.1C26.9,23.4 27.3,24.1 28.5,24.1C29.1,24.1 29.5,24 30.3,23.9L30.3,25.5C29.8,25.6 29.1,25.7 28.4,25.7C26,25.7 25,24.2 25,22.1L25,20.9C25,18.8 26,17.3 28.4,17.3C29.1,17.3 29.8,17.4 30.3,17.5Z" style="fill-rule:nonzero;"/>
        <path d="M37.7,20.9L37.7,22.1C37.7,24.2 36.8,25.7 34.4,25.7C32,25.7 31.1,24.2 31.1,22.1L31.1,20.9C31.1,18.8 32,17.3 34.4,17.3C36.9,17.3 37.7,18.7 37.7,20.9ZM33.1,20.9L33.1,22.1C33.1,23.5 33.3,24.1 34.5,24.1C35.7,24.1 35.9,23.5 35.9,22.1L35.9,20.9C35.9,19.5 35.7,18.9 34.5,18.9C33.3,18.9 33.1,19.5 33.1,20.9Z" style="fill-rule:nonzero;"/>
        <path d="M40.8,24L44,24L44,25.6L38.9,25.6L38.9,17.4L40.8,17.4L40.8,24Z" style="fill-rule:nonzero;"/>
        <path d="M49.1,23.8L46.8,23.8L46.4,25.6L44.4,25.6L46.7,17.4L49.3,17.4L51.6,25.6L49.6,25.6L49.1,23.8ZM48.7,22.2L48,19.3L47.3,22.2L48.7,22.2Z" style="fill-rule:nonzero;"/>
        <path d="M17.3,32L17.3,33.6C16.4,33.4 15.5,33.3 15,33.3C14.2,33.3 13.9,33.5 13.9,34L13.9,34.2C13.9,35.4 17.6,34.3 17.6,37.4L17.6,37.6C17.6,39.2 16.6,40.1 14.6,40.1C13.7,40.1 12.6,40 11.9,39.8L11.9,38.2C12.7,38.4 13.7,38.5 14.4,38.5C15.5,38.5 15.7,38.1 15.7,37.7L15.7,37.5C15.7,36.2 12,37.4 12,34.2L12,34C12,32.6 13,31.8 14.9,31.8C15.8,31.7 16.6,31.8 17.3,32Z" style="fill-rule:nonzero;"/>
        <path d="M24.8,37.2C24.8,39.4 23.5,40 21.7,40C19.9,40 18.6,39.4 18.6,37.2L18.6,31.8L20.5,31.8L20.5,37.2C20.5,37.9 20.8,38.4 21.7,38.4C22.7,38.4 22.9,37.9 22.9,37.2L22.9,31.8L24.8,31.8L24.8,37.2Z" style="fill-rule:nonzero;"/>
        <path d="M32.2,34.5L32.2,34.8C32.2,36.7 31.1,37.5 29.2,37.5L28,37.5L28,40L26.1,40L26.1,31.8L29.2,31.8C31.1,31.8 32.2,32.6 32.2,34.5ZM28.1,33.4L28.1,35.9L29.3,35.9C29.9,35.9 30.2,35.6 30.2,34.8L30.2,34.5C30.2,33.7 29.9,33.4 29.3,33.4L28.1,33.4Z" style="fill-rule:nonzero;"/>
        <path d="M35.3,35L38.4,35L38.4,36.6L35.3,36.6L35.3,38.3L38.7,38.3L38.7,40L33.4,40L33.4,31.8L38.7,31.8L38.7,33.4L35.3,33.4L35.3,35Z" style="fill-rule:nonzero;"/>
        <path d="M44.2,40L42.8,37.3L41.8,37.3L41.8,40L39.9,40L39.9,31.8L43,31.8C44.9,31.8 46,32.6 46,34.3L46,34.5C46,35.6 45.5,36.2 44.8,36.6L46.4,39.9L44.2,39.9L44.2,40ZM41.8,35.6L43.1,35.6C43.7,35.6 44,35.4 44,34.6L44,34.4C44,33.6 43.7,33.4 43.1,33.4L41.8,33.4L41.8,35.6Z" style="fill-rule:nonzero;"/>
        <rect x="47.2" y="31.8" width="1.9" height="8.2" style="fill-rule:nonzero;"/>
        <path d="M56.9,35.3L56.9,36.5C56.9,38.6 56,40.1 53.6,40.1C51.2,40.1 50.3,38.6 50.3,36.5L50.3,35.3C50.3,33.2 51.2,31.7 53.6,31.7C56,31.7 56.9,33.1 56.9,35.3ZM52.2,35.3L52.2,36.5C52.2,37.9 52.4,38.5 53.6,38.5C54.8,38.5 55,37.9 55,36.5L55,35.3C55,33.9 54.8,33.3 53.6,33.3C52.5,33.3 52.2,33.9 52.2,35.3Z" style="fill-rule:nonzero;"/>
        <path d="M62.4,40L61,37.2L60,37.2L60,40L58.1,40L58.1,31.8L61.2,31.8C63.1,31.8 64.2,32.6 64.2,34.3L64.2,34.5C64.2,35.6 63.7,36.2 63,36.6L64.6,39.9L62.4,39.9L62.4,40ZM60,35.6L61.3,35.6C61.9,35.6 62.2,35.4 62.2,34.6L62.2,34.4C62.2,33.6 61.9,33.4 61.3,33.4L60,33.4L60,35.6Z" style="fill-rule:nonzero;"/>
        <path d="M15.2,46.2C17.6,46.2 18.5,47.6 18.5,49.7L18.5,50.9C18.5,53 17.6,54.4 15.2,54.4L12.2,54.4L12.2,46.2L15.2,46.2ZM14.2,47.7L14.2,52.7L15.2,52.7C16.4,52.7 16.6,52.1 16.6,50.8L16.6,49.6C16.6,48.3 16.4,47.7 15.2,47.7L14.2,47.7Z" style="fill-rule:nonzero;"/>
        <path d="M21.6,49.4L24.7,49.4L24.7,51L21.6,51L21.6,52.7L25,52.7L25,54.3L19.7,54.3L19.7,46.1L25,46.1L25,47.7L21.6,47.7L21.6,49.4Z" style="fill-rule:nonzero;"/>
        <path d="M36.3,54.4L34.4,54.4L34.4,49.6L33,54.5L31.6,54.5L30.2,49.6L30.2,54.4L28.4,54.4L28.4,46.2L31,46.2L32.5,51.1L33.8,46.2L36.4,46.2L36.3,54.4Z" style="fill-rule:nonzero;"/>
        <path d="M39.6,49.4L42.7,49.4L42.7,51L39.6,51L39.6,52.7L43,52.7L43,54.3L37.7,54.3L37.7,46.1L43,46.1L43,47.7L39.6,47.7L39.6,49.4Z" style="fill-rule:nonzero;"/>
        <path d="M47.2,46.2C49.6,46.2 50.5,47.6 50.5,49.7L50.5,50.9C50.5,53 49.6,54.4 47.2,54.4L44.2,54.4L44.2,46.2L47.2,46.2ZM46.2,47.7L46.2,52.7L47.2,52.7C48.4,52.7 48.6,52.1 48.6,50.8L48.6,49.6C48.6,48.3 48.4,47.7 47.2,47.7L46.2,47.7Z" style="fill-rule:nonzero;"/>
        <rect x="51.7" y="46.2" width="1.9" height="8.2" style="fill-rule:nonzero;"/>
        <path d="M59.1,52.6L56.8,52.6L56.4,54.4L54.4,54.4L56.7,46.2L59.3,46.2L61.6,54.4L59.6,54.4L59.1,52.6ZM58.7,51L58,48.2L57.3,51L58.7,51Z" style="fill-rule:nonzero;"/>
        <path d="M16.4,67L14.1,67L13.7,68.8L11.7,68.8L14,60.6L16.6,60.6L18.9,68.8L16.9,68.8L16.4,67ZM16,65.4L15.3,62.5L14.6,65.4L16,65.4Z" style="fill-rule:nonzero;"/>
        <path d="M24,68.8L22.6,66L21.6,66L21.6,68.7L19.7,68.7L19.7,60.5L22.8,60.5C24.7,60.5 25.8,61.3 25.8,63L25.8,63.2C25.8,64.3 25.3,64.9 24.6,65.3L26.2,68.6L24,68.6L24,68.8ZM21.6,64.4L22.9,64.4C23.5,64.4 23.8,64.2 23.8,63.4L23.8,63.2C23.8,62.4 23.5,62.2 22.9,62.2L21.6,62.2L21.6,64.4Z" style="fill-rule:nonzero;"/>
        <path d="M32.5,62.2L30.4,62.2L30.4,68.7L28.5,68.7L28.5,62.2L26.4,62.2L26.4,60.6L32.4,60.6L32.5,62.2Z" style="fill-rule:nonzero;"/>
        <path d="M35.4,63.8L38.5,63.8L38.5,65.4L35.4,65.4L35.4,67.1L38.8,67.1L38.8,68.7L33.5,68.7L33.5,60.5L38.8,60.5L38.8,62.1L35.4,62.1L35.4,63.8Z" style="fill-rule:nonzero;"/>
        <path d="M45.2,60.8L45.2,62.4C44.3,62.2 43.4,62.1 42.9,62.1C42.1,62.1 41.8,62.3 41.8,62.8L41.8,63C41.8,64.2 45.5,63.1 45.5,66.2L45.5,66.4C45.5,68 44.5,68.9 42.5,68.9C41.6,68.9 40.5,68.8 39.8,68.6L39.8,67C40.6,67.2 41.6,67.3 42.3,67.3C43.4,67.3 43.6,66.9 43.6,66.5L43.6,66.3C43.6,65 39.9,66.2 39.9,63L39.9,62.8C39.9,61.4 40.9,60.6 42.8,60.6C43.6,60.5 44.5,60.6 45.2,60.8Z" style="fill-rule:nonzero;"/>
        <path d="M14.2,78.2L17.3,78.2L17.3,79.8L14.2,79.8L14.2,81.5L17.6,81.5L17.6,83.1L12.3,83.1L12.3,75L17.6,75L17.6,76.6L14.2,76.6L14.2,78.2Z" style="fill-rule:nonzero;"/>
        <path d="M23.8,75C26.2,75 27.1,76.4 27.1,78.5L27.1,79.7C27.1,81.8 26.2,83.2 23.8,83.2L20.8,83.2L20.8,75L23.8,75ZM22.8,76.6L22.8,81.5L23.8,81.5C25,81.5 25.2,80.9 25.2,79.6L25.2,78.4C25.2,77.1 25,76.5 23.8,76.5L22.8,76.6Z" style="fill-rule:nonzero;"/>
        <path d="M30.2,78.2L33.3,78.2L33.3,79.8L30.2,79.8L30.2,81.5L33.6,81.5L33.6,83.1L28.3,83.1L28.3,75L33.6,75L33.6,76.6L30.2,76.6L30.2,78.2Z" style="fill-rule:nonzero;"/>
        <path d="M40,75.2L40,76.8C39.1,76.6 38.2,76.5 37.7,76.5C36.9,76.5 36.6,76.7 36.6,77.2L36.6,77.4C36.6,78.6 40.3,77.5 40.3,80.6L40.3,80.8C40.3,82.4 39.3,83.3 37.3,83.3C36.4,83.3 35.3,83.2 34.6,83L34.6,81.4C35.4,81.6 36.4,81.7 37.1,81.7C38.2,81.7 38.4,81.3 38.4,80.9L38.4,80.7C38.4,79.4 34.7,80.6 34.7,77.4L34.7,77.2C34.7,75.8 35.7,75 37.6,75C38.4,74.9 39.2,75 40,75.2Z" style="fill-rule:nonzero;"/>
        <rect x="41.3" y="75" width="1.9" height="8.2" style="fill-rule:nonzero;"/>
        <path d="M50.3,78.7L50.3,83C49.4,83.2 48.4,83.3 47.8,83.3C45.4,83.3 44.4,81.8 44.4,79.7L44.4,78.5C44.4,76.4 45.4,74.9 48,74.9C48.7,74.9 49.7,75 50.2,75.1L50.2,76.7C49.4,76.5 48.7,76.5 48.1,76.5C46.7,76.5 46.3,77.2 46.3,78.5L46.3,79.7C46.3,81 46.7,81.7 47.9,81.7L48.4,81.7L48.4,80.3L47.5,80.3L47.5,78.7L50.3,78.7Z" style="fill-rule:nonzero;"/>
        <path d="M58.1,83.2L56.3,83.2L53.5,78.4L53.5,83.2L51.7,83.2L51.7,75L53.6,75L56.3,79.8L56.3,75L58.1,75L58.1,83.2Z" style="fill-rule:nonzero;"/>
        <path d="M18,92L18,92.3C18,94 17,94.9 15.1,94.9L13.6,94.9L13.6,97.6L12.4,97.6L12.4,89.4L15.1,89.4C17,89.4 18,90.2 18,92ZM13.6,90.4L13.6,93.8L15.2,93.8C16.3,93.8 16.8,93.3 16.8,92.2L16.8,92C16.8,90.9 16.3,90.4 15.2,90.4L13.6,90.4Z" style="fill-rule:nonzero;"/>
        <path d="M25.2,92.9L25.2,94.1C25.2,96.1 24.5,97.7 22.1,97.7C19.7,97.7 19,96.1 19,94.1L19,92.9C19,90.9 19.7,89.3 22.1,89.3C24.5,89.3 25.2,90.8 25.2,92.9ZM20.3,92.9L20.3,94.1C20.3,95.6 20.6,96.7 22.2,96.7C23.8,96.7 24.1,95.6 24.1,94.1L24.1,92.9C24.1,91.4 23.8,90.3 22.2,90.3C20.5,90.3 20.3,91.4 20.3,92.9Z" style="fill-rule:nonzero;"/>
        <path d="M27.8,96.5L31.3,96.5L31.3,97.5L26.6,97.5L26.6,89.3L27.8,89.3L27.8,96.5Z" style="fill-rule:nonzero;"/>
        <rect x="32.5" y="89.4" width="1.2" height="8.2" style="fill-rule:nonzero;"/>
        <path d="M40.4,90.4L38.2,90.4L38.2,97.5L37,97.5L37,90.4L34.8,90.4L34.8,89.4L40.4,89.4L40.4,90.4Z" style="fill-rule:nonzero;"/>
        <path d="M42.8,92.9L46.3,92.9L46.3,93.9L42.8,93.9L42.8,96.6L46.5,96.6L46.5,97.6L41.6,97.6L41.6,89.4L46.5,89.4L46.5,90.4L42.8,90.4L42.8,92.9ZM43.7,88.6L44.9,86.8L46.1,86.8L44.5,88.6L43.7,88.6Z" style="fill-rule:nonzero;"/>
        <path d="M52.8,89.5L52.8,90.5C52,90.3 51.6,90.3 50.9,90.3C49.3,90.3 48.9,91.4 48.9,92.9L48.9,94.1C48.9,95.6 49.3,96.7 50.9,96.7C51.5,96.7 52,96.6 52.8,96.5L52.8,97.5C52.3,97.6 51.7,97.7 50.9,97.7C48.5,97.7 47.8,96.1 47.8,94.1L47.8,92.9C47.8,90.9 48.6,89.3 50.9,89.3C51.6,89.3 52.3,89.4 52.8,89.5Z" style="fill-rule:nonzero;"/>
        <path d="M59.9,97.6L58.8,97.6L55.1,91.5L55.1,97.6L54,97.6L54,89.4L55.2,89.4L58.8,95.5L58.8,89.4L59.9,89.4L59.9,97.6Z" style="fill-rule:nonzero;"/>
        <rect x="61.6" y="89.4" width="1.2" height="8.2" style="fill-rule:nonzero;"/>
        <path d="M69.3,89.5L69.3,90.5C68.5,90.3 68.1,90.3 67.4,90.3C65.8,90.3 65.4,91.4 65.4,92.9L65.4,94.1C65.4,95.6 65.8,96.7 67.4,96.7C68,96.7 68.5,96.6 69.3,96.5L69.3,97.5C68.8,97.6 68.2,97.7 67.4,97.7C65,97.7 64.3,96.1 64.3,94.1L64.3,92.9C64.3,90.9 65.1,89.3 67.4,89.3C68.2,89.3 68.8,89.4 69.3,89.5Z" style="fill-rule:nonzero;"/>
        <path d="M76.3,92.9L76.3,94.1C76.3,96.1 75.6,97.7 73.2,97.7C70.8,97.7 70.1,96.1 70.1,94.1L70.1,92.9C70.1,90.9 70.8,89.3 73.2,89.3C75.6,89.3 76.3,90.8 76.3,92.9ZM71.4,92.9L71.4,94.1C71.4,95.6 71.7,96.7 73.3,96.7C74.9,96.7 75.2,95.6 75.2,94.1L75.2,92.9C75.2,91.4 74.9,90.3 73.3,90.3C71.7,90.3 71.4,91.4 71.4,92.9Z" style="fill-rule:nonzero;"/>
        <path d="M15.1,103.8C17.5,103.8 18.2,105.3 18.2,107.3L18.2,108.5C18.2,110.5 17.5,112 15.1,112L12.4,112L12.4,103.8L15.1,103.8ZM13.6,104.8L13.6,110.9L15.1,110.9C16.7,110.9 17,109.9 17,108.4L17,107.2C17,105.7 16.7,104.7 15.1,104.7L13.6,104.8Z" style="fill-rule:nonzero;"/>
        <path d="M25.6,107.3L25.6,108.5C25.6,110.5 24.9,112.1 22.5,112.1C20.1,112.1 19.4,110.5 19.4,108.5L19.4,107.3C19.4,105.3 20.1,103.7 22.5,103.7C24.9,103.7 25.6,105.2 25.6,107.3ZM20.7,107.3L20.7,108.5C20.7,110 21,111.1 22.6,111.1C24.2,111.1 24.5,110 24.5,108.5L24.5,107.3C24.5,105.8 24.2,104.7 22.6,104.7C21,104.7 20.7,105.8 20.7,107.3Z" style="fill-rule:nonzero;"/>
        <path d="M34.8,106.4L34.8,106.7C34.8,108.4 33.8,109.3 31.9,109.3L30.4,109.3L30.4,112L29.2,112L29.2,103.8L31.9,103.8C33.8,103.8 34.8,104.6 34.8,106.4ZM30.4,104.8L30.4,108.2L32,108.2C33.1,108.2 33.6,107.7 33.6,106.6L33.6,106.3C33.6,105.2 33.1,104.7 32,104.7L30.4,104.8Z" style="fill-rule:nonzero;"/>
        <path d="M42,107.3L42,108.5C42,110.5 41.3,112.1 38.9,112.1C36.5,112.1 35.8,110.5 35.8,108.5L35.8,107.3C35.8,105.3 36.5,103.7 38.9,103.7C41.3,103.7 42,105.2 42,107.3ZM37.1,107.3L37.1,108.5C37.1,110 37.4,111.1 39,111.1C40.6,111.1 40.9,110 40.9,108.5L40.9,107.3C40.9,105.8 40.6,104.7 39,104.7C37.4,104.7 37.1,105.8 37.1,107.3Z" style="fill-rule:nonzero;"/>
        <path d="M48,112L46.1,108.9L44.6,108.9L44.6,112L43.4,112L43.4,103.8L46.1,103.8C47.9,103.8 48.9,104.5 48.9,106.2L48.9,106.4C48.9,107.7 48.2,108.3 47.3,108.6L49.3,111.9L48,112ZM44.7,107.9L46.3,107.9C47.3,107.9 47.9,107.5 47.9,106.5L47.9,106.3C47.9,105.3 47.4,104.9 46.3,104.9L44.7,104.9L44.7,107.9Z" style="fill-rule:nonzero;"/>
        <path d="M55.6,104.8L53.4,104.8L53.4,111.9L52.2,111.9L52.2,104.8L50,104.8L50,103.8L55.6,103.8L55.6,104.8Z" style="fill-rule:nonzero;"/>
        <path d="M62.3,107.3L62.3,108.5C62.3,110.5 61.6,112.1 59.2,112.1C56.8,112.1 56.1,110.5 56.1,108.5L56.1,107.3C56.1,105.3 56.8,103.7 59.2,103.7C61.6,103.7 62.3,105.2 62.3,107.3ZM57.4,107.3L57.4,108.5C57.4,110 57.7,111.1 59.3,111.1C60.9,111.1 61.2,110 61.2,108.5L61.2,107.3C61.2,105.8 60.9,104.7 59.3,104.7C57.7,104.7 57.4,105.8 57.4,107.3Z" style="fill-rule:nonzero;"/>
        <rect x="11.5" y="7.5" width="17.9" height="1"/>
    </g>
</svg>
