<?xml version="1.0" encoding="UTF-8" standalone="no"?>
<!DOCTYPE svg PUBLIC "-//W3C//DTD SVG 1.1//EN" "http://www.w3.org/Graphics/SVG/1.1/DTD/svg11.dtd">
<svg width="100%" height="100%" viewBox="0 0 326 128" version="1.1" xmlns="http://www.w3.org/2000/svg" xmlns:xlink="http://www.w3.org/1999/xlink" xml:space="preserve" xmlns:serif="http://www.serif.com/" style="fill-rule:evenodd;clip-rule:evenodd;stroke-linejoin:round;stroke-miterlimit:2;">
    <path d="M37.47,71.5C37.77,79.1 33.88,84.97 34.08,92.5L33.9,92.67L33.56,92.24C33.27,84.85 29.97,78.37 30.34,71.02C32.725,70.962 35.11,71.11 37.47,71.46" style="fill-rule:nonzero;"/>
    <path d="M28.6,78.19C30.01,82.91 29.32,88.5 30.86,93.19C34.43,99.78 30.86,107.6 30.6,114.58L28.25,127.37C18.71,126.37 8.83,119.02 5.64,109.63C1.354,98.097 4.853,85.036 14.33,77.19C17.948,74.408 22.139,72.464 26.6,71.5C27.456,73.669 28.125,75.907 28.6,78.19" style="fill-rule:nonzero;"/>
    <path d="M52.69,79.5C50.56,83.5 47.51,87.02 45.21,90.89C42.73,95.45 38.67,99.37 36.6,104.11C35.82,105.02 34.93,106.35 33.73,106.63C33.38,104.11 34.73,101.8 34.73,99.32C35.6,93.8 36,88.1 38.34,83.23L40.77,72.36C45.08,73.91 49.3,75.89 52.69,79.5" style="fill-rule:nonzero;"/>
    <path d="M58.52,110.37C54.3,120.72 43.58,127.37 32.6,127.67C31.82,125.67 32.01,123.32 31.73,121.15C31.14,112.87 38.67,107.52 41.73,100.54C43.89,95.87 48.17,91.67 52.08,88.1C53.286,86.325 54.308,84.432 55.13,82.45C61.08,89.89 62.41,101.45 58.52,110.37" style="fill-rule:nonzero;"/>
    <path d="M82.66,28.47C83.244,28.816 83.869,29.088 84.52,29.28C85.3,29.523 86.113,29.645 86.93,29.64C89.21,29.657 91.427,28.883 93.2,27.45C95.067,25.983 96,23.563 96,20.19C96,16.59 95.18,13.947 93.54,12.26C91.9,10.573 89.387,9.73 86,9.73L82.66,9.73L82.66,28.47M77,9.73L71.51,9.73L71.51,8.84L87.32,8.84C91.773,8.84 95.333,9.693 98,11.4C100.667,13.107 102,15.87 102,19.69C102.193,22.958 100.588,26.083 97.82,27.83C94.851,29.677 91.406,30.616 87.91,30.53C86.125,30.614 84.343,30.293 82.7,29.59L82.7,47.06L88.36,47.06L88.36,48L71.51,48L71.51,47.11L77,47.11L77,9.73Z"/>
    <path d="M124.48,47.89C127.179,48.033 129.787,46.867 131.48,44.76C133.185,42.596 134.338,40.049 134.84,37.34C135.424,34.376 135.712,31.361 135.7,28.34C135.716,25.321 135.444,22.308 134.89,19.34C134.418,16.657 133.284,14.134 131.59,12C129.864,9.879 127.221,8.71 124.49,8.86C121.79,8.721 119.182,9.891 117.49,12C115.785,14.164 114.632,16.711 114.13,19.42C113.55,22.364 113.262,25.359 113.27,28.36C113.256,31.378 113.524,34.391 114.07,37.36C114.551,40.04 115.684,42.561 117.37,44.7C119.098,46.817 121.741,47.982 124.47,47.83M124.47,7.95C129.137,7.95 133.233,9.95 136.76,13.95C140.255,17.934 142.127,23.091 142,28.39C142.131,33.68 140.279,38.833 136.81,42.83C133.363,46.79 129.25,48.79 124.47,48.83C119.69,48.87 115.597,46.87 112.19,42.83C108.71,38.84 106.857,33.682 107,28.39C106.866,23.123 108.699,17.99 112.14,14C115.6,10 119.713,8 124.48,8L124.47,7.95Z"/>
    <path d="M157.16,27.42L159.94,27.42C163.38,27.42 165.94,26.75 167.7,25.42C169.46,24.09 170.31,21.83 170.31,18.72C170.418,16.394 169.711,14.101 168.31,12.24C166.98,10.58 164.52,9.76 160.93,9.76L157.16,9.76L157.16,27.42M151.5,9.73L146,9.73L146,8.84L163,8.84C166.329,8.702 169.639,9.41 172.62,10.9C175.08,12.267 176.31,14.863 176.31,18.69C176.479,21.387 175.042,23.943 172.65,25.2C170.101,26.567 167.314,27.436 164.44,27.76C167.947,28.127 170.49,28.91 172.07,30.11C173.64,31.32 174.63,33.65 175.07,37.11L175.85,43.88C175.883,44.908 176.264,45.896 176.93,46.68C177.428,47.124 178.073,47.37 178.74,47.37C179.524,47.327 180.293,47.141 181.01,46.82L181.34,47.54C180.691,47.776 180.021,47.954 179.34,48.07C178.487,48.209 177.624,48.272 176.76,48.26C173.69,48.26 171.76,47.55 170.86,46.13C169.96,44.71 169.31,42.13 168.86,38.28L168.42,35C168.348,33.178 167.696,31.426 166.56,30C165.56,28.85 163.61,28.28 160.77,28.28L157.16,28.28L157.16,47.06L162.82,47.06L162.82,48L146,48L146,47.11L151.54,47.11L151.5,9.73Z"/>
    <path d="M197.34,9.73L196.17,9.73C191.143,9.73 187.87,10.367 186.35,11.64C184.83,12.913 184.073,15.807 184.08,20.32L183.19,20.32L183.19,8.84L217.14,8.84L217.14,20.32L216.25,20.32C216.25,15.85 215.49,12.96 213.98,11.67C212.47,10.38 209.21,9.73 204.22,9.73L203,9.73L203,47.06L208.72,47.06L208.72,48L191.62,48L191.62,47.11L197.34,47.11L197.34,9.73" style="fill-rule:nonzero;"/>
    <path d="M238.73,47.89C241.428,48.03 244.035,46.864 245.73,44.76C247.429,42.592 248.581,40.047 249.09,37.34C249.67,34.375 249.955,31.361 249.94,28.34C249.959,25.321 249.691,22.308 249.14,19.34C248.659,16.66 247.526,14.139 245.84,12C244.114,9.879 241.471,8.71 238.74,8.86C236.04,8.725 233.434,9.894 231.74,12C230.039,14.165 228.889,16.712 228.39,19.42C227.805,22.364 227.517,25.359 227.53,28.36C227.511,31.379 227.779,34.392 228.33,37.36C228.811,40.04 229.944,42.561 231.63,44.7C233.357,46.819 236.001,47.984 238.73,47.83M238.73,7.95C243.43,7.95 247.527,9.95 251.02,13.95C254.506,17.924 256.377,23.065 256.26,28.35C256.391,33.64 254.539,38.793 251.07,42.79C247.623,46.75 243.51,48.75 238.73,48.79C233.95,48.83 229.853,46.83 226.44,42.79C222.953,38.813 221.082,33.668 221.2,28.38C221.082,23.11 222.934,17.98 226.39,14C229.85,10 233.963,8 238.73,8L238.73,7.95Z"/>
    <path d="M0,0L0,56.79L66.05,56.79L66.05,0L0,0ZM46.68,9.79L45.24,9.79C44.357,9.725 43.509,10.163 43.05,10.92C42.508,12.01 42.267,13.225 42.35,14.44L42.35,35.15C42.35,39.37 41.14,42.677 38.72,45.07C36.3,47.463 32.633,48.663 27.72,48.67C23.167,48.67 19.533,47.443 16.82,44.99C14.107,42.537 12.743,39.167 12.73,34.88L12.73,9.79L8.41,9.79L8.41,8.79L25.88,8.79L25.88,9.79L21.39,9.79L21.39,34.16C21.39,38.22 22.057,41.32 23.39,43.46C24.74,45.6 27.32,47.02 31.07,46.67C34.07,46.4 35.74,45.67 37.63,43.8C39.52,41.93 40.45,39.1 40.45,35.49L40.45,14.44C40.558,13.196 40.279,11.949 39.65,10.87C39.149,10.074 38.22,9.649 37.29,9.79L35.7,9.79L35.7,8.79L46.7,8.79L46.68,9.79ZM55.48,47.23C53.937,48.732 51.443,48.732 49.9,47.23C49.152,46.493 48.74,45.48 48.76,44.43C48.76,42.274 50.534,40.5 52.69,40.5C54.846,40.5 56.62,42.274 56.62,44.43C56.64,45.48 56.228,46.493 55.48,47.23Z" style="fill-rule:nonzero;"/>
    <path d="M108.2,72.11L107.28,74C106.426,73.393 105.397,73.081 104.35,73.11C103.231,73.075 102.145,73.502 101.35,74.29C100.547,75.076 100.118,76.168 100.17,77.29C100.165,77.374 100.163,77.458 100.163,77.542C100.163,79.89 102.095,81.822 104.443,81.822C104.549,81.822 104.654,81.818 104.76,81.81C105.719,81.793 106.666,81.593 107.55,81.22L107.99,83.22C107.444,83.486 106.871,83.691 106.28,83.83C105.95,83.89 105.62,83.95 105.28,83.99C104.927,84.011 104.573,84.011 104.22,83.99C102.543,84.071 100.897,83.509 99.62,82.42C98.192,81.127 97.407,79.265 97.48,77.34C97.433,75.553 98.137,73.825 99.42,72.58C100.719,71.373 102.449,70.735 104.22,70.81C105.654,70.789 107.055,71.246 108.2,72.11ZM120.71,78.87C120.746,79.776 120.617,80.68 120.33,81.54C120.061,82.202 119.597,82.767 119,83.16C117.929,83.826 116.679,84.148 115.42,84.08C114.155,84.146 112.899,83.825 111.82,83.16C111.214,82.776 110.736,82.218 110.45,81.56C110.168,80.693 110.046,79.781 110.09,78.87L110.09,71.13L112.49,71.13L112.49,79C112.49,80.89 113.49,81.83 115.49,81.83C115.594,81.843 115.699,81.85 115.805,81.85C117.176,81.85 118.305,80.721 118.305,79.35C118.305,79.233 118.296,79.116 118.28,79L118.28,71.13L120.71,71.13L120.71,78.87ZM267,72L266,74.17C264.969,73.667 263.853,73.362 262.71,73.27C262.233,73.243 261.759,73.35 261.34,73.58C261.033,73.757 260.842,74.085 260.84,74.44C260.84,74.91 261.24,75.35 262.05,75.79C263.415,76.439 264.692,77.259 265.85,78.23C266.453,78.83 266.774,79.66 266.73,80.51C266.779,81.517 266.353,82.492 265.58,83.14C264.623,83.848 263.449,84.202 262.26,84.14L261.69,84.14L261.13,84.08C260.207,83.905 259.312,83.605 258.47,83.19L258.17,83.04L257.65,82.81L258.65,80.58L259.72,81.13C259.958,81.258 260.206,81.368 260.46,81.46C261.038,81.696 261.656,81.821 262.28,81.83C262.762,81.855 263.24,81.733 263.65,81.48C263.959,81.278 264.141,80.929 264.13,80.56C264.13,80.07 263.77,79.61 263.02,79.19L261.02,78.07C260.164,77.626 259.384,77.049 258.71,76.36C258.293,75.85 258.07,75.209 258.08,74.55C258.073,73.924 258.247,73.31 258.58,72.78C258.683,72.591 258.818,72.422 258.98,72.28C259.145,72.115 259.326,71.968 259.52,71.84C260.476,71.241 261.592,70.944 262.72,70.99C263.525,70.983 264.327,71.094 265.1,71.32C265.382,71.401 265.659,71.497 265.93,71.61L267,72ZM325.53,72L324.53,74.17C323.499,73.668 322.383,73.363 321.24,73.27C320.763,73.243 320.289,73.35 319.87,73.58C319.563,73.757 319.372,74.085 319.37,74.44C319.37,74.91 319.77,75.35 320.58,75.79C321.941,76.441 323.214,77.261 324.37,78.23C324.977,78.829 325.301,79.658 325.26,80.51C325.311,81.52 324.88,82.497 324.1,83.14C323.147,83.848 321.976,84.202 320.79,84.14L320.21,84.14L319.66,84.08C318.737,83.906 317.842,83.607 317,83.19L316.69,83.04L316.17,82.81L317.17,80.58L318.25,81.13C318.486,81.256 318.73,81.366 318.98,81.46C319.561,81.697 320.182,81.823 320.81,81.83C321.292,81.855 321.77,81.733 322.18,81.48C322.486,81.276 322.667,80.928 322.66,80.56C322.66,80.07 322.29,79.61 321.54,79.19L319.54,78.07C318.682,77.629 317.902,77.052 317.23,76.36C316.81,75.851 316.583,75.21 316.59,74.55C316.587,73.923 316.764,73.309 317.1,72.78C317.203,72.591 317.338,72.422 317.5,72.28C317.662,72.113 317.844,71.965 318.04,71.84C318.993,71.24 320.105,70.944 321.23,70.99C322.039,70.982 322.844,71.093 323.62,71.32C323.902,71.401 324.179,71.497 324.45,71.61L325.53,72ZM85.1,73.19L79.66,73.19L79.66,76.46L84.12,76.46L84.12,78.46L79.66,78.46L79.66,83.79L77.23,83.79L77.23,71.13L85.1,71.13L85.1,73.19ZM97,83.83L94.42,83.83L93.42,80.7L89.17,80.7L88.17,83.83L85.59,83.83L90.19,71.13L92.36,71.13L97,83.83ZM131.51,83.83L123.89,83.83L123.89,71.13L126.31,71.13L126.31,81.78L131.51,81.78L131.51,83.83ZM144.88,77.44C144.918,79.138 144.273,80.782 143.09,82C141.727,83.299 139.878,83.964 138,83.83L133.31,83.83L133.31,71.13L138,71.13C139.89,71.005 141.747,71.685 143.11,73C144.25,74.193 144.872,75.79 144.84,77.44L144.88,77.44ZM156.78,83.83L154.2,83.83L153.2,80.7L148.94,80.7L147.94,83.83L145.4,83.83L150,71.13L152.18,71.13L156.78,83.83ZM170,77.44C170.038,79.134 169.401,80.775 168.23,82C166.858,83.32 164.989,83.996 163.09,83.86L158.39,83.86L158.39,71.13L163.11,71.13C165.01,70.998 166.879,71.678 168.25,73C169.394,74.192 170.023,75.788 170,77.44ZM180.2,83.83L172.2,83.83L172.2,71.13L179.94,71.13L179.94,73.19L174.63,73.19L174.63,76.33L179,76.33L179,78.39L174.65,78.39L174.65,81.78L180.21,81.78L180.2,83.83ZM198.87,77.44C198.908,79.134 198.271,80.775 197.1,82C195.733,83.298 193.881,83.963 192,83.83L187.3,83.83L187.3,71.13L192,71.13C193.893,71.003 195.754,71.683 197.12,73C198.256,74.195 198.878,75.791 198.85,77.44L198.87,77.44ZM209.07,83.83L201.07,83.83L201.07,71.13L208.81,71.13L208.81,73.19L203.5,73.19L203.5,76.33L207.85,76.33L207.85,78.39L203.5,78.39L203.5,81.78L209.06,81.78L209.07,83.83ZM225.26,80.45C225.26,82.703 223.95,83.83 221.33,83.83L216.15,83.83L216.15,71.13L220.75,71.13C221.877,71.03 223.004,71.331 223.93,71.98C224.587,72.548 224.955,73.382 224.93,74.25C224.931,74.624 224.87,74.996 224.75,75.35C224.632,75.686 224.445,75.992 224.2,76.25C223.949,76.521 223.647,76.739 223.31,76.89C222.938,77.067 222.532,77.166 222.12,77.18C222.974,77.151 223.804,77.477 224.41,78.08C224.991,78.728 225.29,79.581 225.24,80.45L225.26,80.45ZM235.63,83.83L227.63,83.83L227.63,71.13L235.37,71.13L235.37,73.19L230.06,73.19L230.06,76.33L234.41,76.33L234.41,78.39L230.06,78.39L230.06,81.78L235.62,81.78L235.63,83.83ZM245.63,83.83L238,83.83L238,71.13L240.42,71.13L240.42,81.78L245.62,81.78L245.63,83.83ZM257.21,83.83L254.67,83.83L253.67,80.7L249.42,80.7L248.42,83.83L245.88,83.83L250.48,71.13L252.65,71.13L257.21,83.83ZM283.75,83.83L281.2,83.83L280.2,80.7L276,80.7L275,83.83L272.46,83.83L277.06,71.13L279.23,71.13L283.75,83.83ZM294.75,83.83L292.1,83.83L289.19,78.75L287.98,78.75L287.98,83.83L285.55,83.83L285.55,71.13L291,71.13C291.35,71.13 291.66,71.23 291.92,71.28C292.418,71.402 292.872,71.662 293.23,72.03C293.946,72.762 294.31,73.769 294.23,74.79C294.276,75.638 294.032,76.478 293.54,77.17C293.022,77.773 292.318,78.188 291.54,78.35L294.75,83.83ZM305.26,73.19L301.45,73.19L301.45,83.83L299,83.83L299,73.19L295.19,73.19L295.19,71.13L305.19,71.13L305.26,73.19ZM315.15,83.83L307.15,83.83L307.15,71.13L314.88,71.13L314.88,73.19L309.57,73.19L309.57,76.33L313.92,76.33L313.92,78.39L309.57,78.39L309.57,81.78L315.13,81.78L315.15,83.83ZM222.62,80.18C222.62,78.98 221.85,78.39 220.29,78.39L218.71,78.39L218.71,81.89L220.29,81.89C220.787,81.914 221.284,81.836 221.75,81.66C222.303,81.384 222.633,80.796 222.58,80.18L222.62,80.18ZM142.27,77.46C142.377,76.128 141.809,74.828 140.76,74C139.862,73.444 138.813,73.182 137.76,73.25L135.8,73.25L135.8,81.7L137.72,81.7C138.93,81.778 140.124,81.383 141.05,80.6C141.878,79.774 142.309,78.627 142.23,77.46L142.27,77.46ZM167.4,77.46C167.509,76.13 166.945,74.83 165.9,74C165.002,73.444 163.953,73.182 162.9,73.25L160.97,73.25L160.97,81.7L162.9,81.7C164.11,81.776 165.303,81.381 166.23,80.6C167.046,79.768 167.459,78.621 167.36,77.46L167.4,77.46ZM196.27,77.46C196.379,76.13 195.815,74.83 194.77,74C193.872,73.446 192.823,73.184 191.77,73.25L189.8,73.25L189.8,81.7L191.73,81.7C192.94,81.776 194.133,81.381 195.06,80.6C195.89,79.775 196.318,78.627 196.23,77.46L196.27,77.46ZM92.77,78.64L91.28,74L89.82,78.6L92.77,78.64ZM152.54,78.64L151.06,74L149.6,78.6L152.54,78.64ZM253.01,78.64L251.53,74L250.06,78.6L253.01,78.64ZM279.55,78.64L278.07,74L276.6,78.6L279.55,78.64ZM291.73,74.89C291.782,74.399 291.596,73.912 291.23,73.58C290.714,73.277 290.117,73.14 289.52,73.19L287.94,73.19L287.94,76.69L289.52,76.69C291,76.69 291.73,76.1 291.73,74.89ZM222.21,74.67C222.21,73.6 221.56,73.06 220.21,73.06L218.63,73.06L218.63,76.33L220.08,76.33C221.52,76.33 222.21,75.77 222.21,74.67Z" style="fill-rule:nonzero;"/>
    <path d="M87.2,101.62C87.301,102.964 86.759,104.278 85.74,105.16C84.759,105.956 83.523,106.372 82.26,106.33C80.981,106.358 79.731,105.937 78.73,105.14C77.715,104.264 77.172,102.957 77.27,101.62L77.27,93.26L78.85,93.26L78.85,101.14C78.827,101.706 78.871,102.274 78.98,102.83C79.094,103.208 79.3,103.552 79.58,103.83C80.283,104.535 81.239,104.932 82.235,104.932C83.231,104.932 84.187,104.535 84.89,103.83C85.17,103.552 85.376,103.208 85.49,102.83C85.604,102.274 85.648,101.707 85.62,101.14L85.62,93.26L87.2,93.26L87.2,101.62ZM120.4,93.26L115.47,106.26L114.47,106.26L109.47,93.26L111.16,93.26L114.92,103.18C114.986,103.378 115.029,103.582 115.05,103.79C115.053,103.581 115.094,103.374 115.17,103.18L118.78,93.26L120.4,93.26ZM151.4,94.11L150.67,95.42C150.38,95.25 150.13,95.11 149.91,95C149.726,94.909 149.536,94.832 149.34,94.77C148.774,94.592 148.184,94.501 147.59,94.5C146.967,94.466 146.349,94.634 145.83,94.98C145.404,95.278 145.152,95.77 145.16,96.29C145.158,96.771 145.38,97.225 145.76,97.52C146.556,98.118 147.406,98.641 148.3,99.08C149.013,99.434 149.683,99.867 150.3,100.37C150.968,100.946 151.337,101.798 151.3,102.68C151.349,103.667 150.935,104.622 150.18,105.26C149.314,105.95 148.227,106.305 147.12,106.26C146.319,106.274 145.523,106.128 144.78,105.83C144.198,105.583 143.647,105.268 143.14,104.89L143.95,103.64C144.211,103.837 144.489,104.011 144.78,104.16C144.982,104.28 145.192,104.383 145.41,104.47C145.996,104.685 146.615,104.797 147.24,104.8C147.875,104.833 148.504,104.658 149.03,104.3C149.446,103.945 149.676,103.417 149.65,102.87C149.67,102.557 149.601,102.245 149.45,101.97C149.196,101.542 148.824,101.195 148.38,100.97L147.63,100.54C147.26,100.37 146.82,100.12 146.26,99.83C144.45,98.83 143.55,97.75 143.55,96.5C143.508,95.529 143.941,94.595 144.71,94C145.574,93.356 146.633,93.028 147.71,93.07C148.435,93.056 149.158,93.161 149.85,93.38C150.401,93.566 150.931,93.811 151.43,94.11L151.4,94.11ZM239.62,99.62C239.678,101.375 239.025,103.082 237.81,104.35C236.629,105.597 234.967,106.278 233.25,106.22C231.528,106.273 229.863,105.593 228.67,104.35C226.268,101.676 226.268,97.574 228.67,94.9C229.864,93.638 231.543,92.946 233.28,93C234.997,92.942 236.659,93.623 237.84,94.87C239.074,96.134 239.729,97.855 239.65,99.62L239.62,99.62ZM269.82,99.62C269.878,101.375 269.225,103.082 268.01,104.35C266.829,105.597 265.167,106.278 263.45,106.22C261.728,106.273 260.063,105.593 258.87,104.35C256.468,101.676 256.468,97.574 258.87,94.9C260.064,93.638 261.743,92.946 263.48,93C265.188,92.961 266.833,93.652 268,94.9C269.241,96.15 269.91,97.86 269.85,99.62L269.82,99.62ZM306.12,99.62C306.178,101.375 305.525,103.082 304.31,104.35C303.129,105.597 301.467,106.278 299.75,106.22C298.026,106.271 296.358,105.591 295.16,104.35C292.771,101.671 292.771,97.579 295.16,94.9C296.36,93.64 298.041,92.949 299.78,93C301.497,92.942 303.159,93.623 304.34,94.87C305.574,96.134 306.229,97.855 306.15,99.62L306.12,99.62ZM101.45,106.08L99.66,106.08L93.25,96.17C93.22,96.105 93.187,96.041 93.15,95.98C93.088,95.904 93.038,95.82 93,95.73C92.856,95.487 92.738,95.229 92.65,94.96L92.65,105.96L91.07,105.96L91.07,93.26L93.13,93.26L99.42,103L99.52,103.15C99.549,103.192 99.576,103.235 99.6,103.28C99.6,103.34 99.66,103.42 99.69,103.52C99.729,103.643 99.776,103.763 99.83,103.88C99.884,103.997 99.83,103.94 99.83,103.96C99.826,103.997 99.826,104.033 99.83,104.07L99.83,93.26L101.4,93.26L101.45,106.08ZM107.23,105.97L105.65,105.97L105.65,93.26L107.23,93.26L107.23,105.97ZM130,106L122.68,106L122.68,93.26L129.82,93.26L129.82,94.59L124.26,94.59L124.26,98.83L128.86,98.83L128.86,100.16L124.26,100.16L124.26,104.64L130,104.64L130,106ZM141.64,106L139.83,106L136.33,100.55L134.63,100.55L134.63,106L133.06,106L133.06,93.26L137.93,93.26C138.189,93.3 138.446,93.353 138.7,93.42C138.922,93.488 139.134,93.586 139.33,93.71C139.533,93.851 139.727,94.005 139.91,94.17C140.577,94.819 140.94,95.72 140.91,96.65C140.935,97.65 140.526,98.613 139.79,99.29C139.262,99.804 138.594,100.152 137.87,100.29L141.64,106ZM156.15,106L154.57,106L154.57,93.26L156.15,93.26L156.15,106ZM171,99.56C171.007,101.238 170.398,102.861 169.29,104.12C168.766,104.744 168.101,105.235 167.35,105.55C166.462,105.854 165.528,105.996 164.59,105.97L160.38,105.97L160.38,93.26L164.61,93.26C166.295,93.208 167.932,93.835 169.15,95C170.39,96.185 171.064,97.846 171,99.56ZM183.22,106L181.53,106L180.22,102.25L175.08,102.25L173.77,106L172.08,106L176.81,92.93L178.51,92.93L183.22,106ZM196.1,99.59C196.108,101.269 195.495,102.894 194.38,104.15C193.86,104.778 193.194,105.269 192.44,105.58C191.556,105.885 190.624,106.027 189.69,106L185.47,106L185.47,93.26L189.71,93.26C191.408,93.199 193.061,93.827 194.29,95C195.515,96.192 196.174,97.852 196.1,99.56L196.1,99.59ZM206.47,106L199.16,106L199.16,93.26L206.3,93.26L206.3,94.59L200.74,94.59L200.74,98.83L205.33,98.83L205.33,100.16L200.74,100.16L200.74,104.64L206.47,104.64L206.47,106ZM225,99.56C225.008,101.239 224.395,102.864 223.28,104.12C222.76,104.748 222.094,105.239 221.34,105.55C220.456,105.854 219.524,105.996 218.59,105.97L214.37,105.97L214.37,93.26L218.61,93.26C220.298,93.208 221.938,93.835 223.16,95C224.396,96.187 225.066,97.848 225,99.56ZM255.59,97C255.601,97.604 255.495,98.205 255.28,98.77C255.082,99.289 254.771,99.757 254.37,100.14C253.977,100.517 253.51,100.81 253,101C252.394,101.216 251.754,101.321 251.11,101.31L250.38,101.31L249.15,101.2L249.15,106L247.57,106L247.57,93.26L251.57,93.26C252.696,93.158 253.816,93.519 254.67,94.26C255.329,95.014 255.661,96.001 255.59,97ZM281.49,106L279.68,106L276.18,100.55L274.49,100.55L274.49,106L272.91,106L272.91,93.26L277.78,93.26C278.04,93.298 278.297,93.351 278.55,93.42C278.772,93.488 278.984,93.586 279.18,93.71C279.383,93.851 279.577,94.005 279.76,94.17C280.427,94.819 280.79,95.72 280.76,96.65C280.785,97.65 280.376,98.613 279.64,99.29C279.112,99.804 278.444,100.152 277.72,100.29L281.49,106ZM292.25,94.62L288,94.62L288,106L286.42,106L286.42,94.59L282.2,94.59L282.2,93.26L292.25,93.26L292.25,94.62ZM237.92,99.62C237.933,98.285 237.444,96.992 236.55,96C235.741,95.028 234.54,94.464 233.275,94.464C232.01,94.464 230.809,95.028 230,96C228.18,98.099 228.18,101.251 230,103.35C230.817,104.313 232.017,104.869 233.28,104.869C234.543,104.869 235.743,104.313 236.56,103.35C237.475,102.327 237.962,100.991 237.92,99.62ZM268.12,99.62C268.128,98.286 267.64,96.995 266.75,96C265.941,95.024 264.738,94.458 263.47,94.458C262.202,94.458 260.999,95.024 260.19,96C258.37,98.099 258.37,101.251 260.19,103.35C261.007,104.313 262.207,104.869 263.47,104.869C264.733,104.869 265.933,104.313 266.75,103.35C267.664,102.326 268.154,100.992 268.12,99.62ZM304.41,99.62C304.422,98.287 303.937,96.996 303.05,96C302.241,95.024 301.038,94.458 299.77,94.458C298.502,94.458 297.299,95.024 296.49,96C294.67,98.099 294.67,101.251 296.49,103.35C297.307,104.313 298.507,104.869 299.77,104.869C301.033,104.869 302.233,104.313 303.05,103.35C303.961,102.325 304.448,100.991 304.41,99.62ZM169.31,99.54C169.349,98.213 168.83,96.928 167.88,96C166.943,95.051 165.653,94.532 164.32,94.57L161.92,94.57L161.92,104.57L164.32,104.57C165.573,104.681 166.817,104.264 167.75,103.42C167.989,103.159 168.2,102.875 168.38,102.57C168.581,102.255 168.749,101.92 168.88,101.57C169.012,101.226 169.116,100.871 169.19,100.51C169.262,100.191 169.302,99.867 169.31,99.54ZM194.44,99.54C194.473,98.212 193.951,96.928 193,96C192.061,95.054 190.772,94.536 189.44,94.57L187.03,94.57L187.03,104.57L189.44,104.57C190.69,104.68 191.931,104.263 192.86,103.42C193.102,103.16 193.317,102.875 193.5,102.57C193.693,102.251 193.86,101.916 194,101.57C194.128,101.224 194.231,100.87 194.31,100.51C194.382,100.191 194.425,99.867 194.44,99.54ZM223.31,99.54C223.348,98.215 222.834,96.931 221.89,96C220.951,95.054 219.662,94.536 218.33,94.57L215.92,94.57L215.92,104.57L218.33,104.57C219.58,104.68 220.821,104.263 221.75,103.42C221.989,103.157 222.204,102.873 222.39,102.57C222.583,102.251 222.75,101.916 222.89,101.57C223.019,101.226 223.119,100.871 223.19,100.51C223.262,100.191 223.302,99.867 223.31,99.54ZM179.72,100.77L177.66,95L175.58,100.81L179.72,100.77ZM254,97.12C254.049,96.384 253.792,95.66 253.29,95.12C252.718,94.69 252.001,94.497 251.29,94.58L249.1,94.58L249.1,99.82C249.661,99.888 250.225,99.924 250.79,99.93C251.355,99.963 251.92,99.878 252.45,99.68C252.918,99.48 253.306,99.127 253.55,98.68C253.841,98.211 253.996,97.671 254,97.12ZM139.27,96.71C139.327,96.051 139.071,95.403 138.58,94.96C138.018,94.646 137.37,94.516 136.73,94.59L134.67,94.59L134.67,99.19L136.73,99.19C136.829,99.204 136.929,99.21 137.029,99.21C138.242,99.21 139.239,98.213 139.239,97C139.239,96.903 139.233,96.806 139.22,96.71L139.27,96.71ZM279.14,96.71C279.195,96.05 278.935,95.401 278.44,94.96C277.881,94.646 277.237,94.517 276.6,94.59L274.54,94.59L274.54,99.19L276.6,99.19C276.695,99.202 276.791,99.209 276.888,99.209C278.105,99.209 279.108,98.207 279.108,96.989C279.108,96.896 279.102,96.802 279.09,96.71L279.14,96.71Z" style="fill-rule:nonzero;"/>
</svg>
