<?xml version="1.0" encoding="UTF-8" standalone="no"?>
<!DOCTYPE svg PUBLIC "-//W3C//DTD SVG 1.1//EN" "http://www.w3.org/Graphics/SVG/1.1/DTD/svg11.dtd">
<svg width="100%" height="100%" viewBox="0 0 363 244" version="1.1" xmlns="http://www.w3.org/2000/svg" xmlns:xlink="http://www.w3.org/1999/xlink" xml:space="preserve" xmlns:serif="http://www.serif.com/" style="fill-rule:evenodd;clip-rule:evenodd;stroke-linejoin:round;stroke-miterlimit:2;">
    <g transform="matrix(1,0,0,1,-33.7,-22.8)">
        <path d="M178.5,266.8L178.5,181.1L185.2,181.1L185.2,260L222.3,260L222.3,266.8L178.5,266.8Z" style="fill-rule:nonzero;"/>
        <path d="M351.6,160.2L365,160.2L365,167L345,167L345,81.3L365,81.3L365,88.1L351.6,88.1L351.6,139.6L363,139.6L363,146.4L351.6,146.4L351.6,160.2Z" style="fill-rule:nonzero;"/>
        <path d="M383.2,124.5C381.3,118.5 378.5,109.3 378.5,101.3C378.5,89.6 385.5,81.3 392.7,81.3L396.2,81.3L396.2,87.9C388.3,87.9 385.5,94.9 385.5,101.4C385.5,108.9 388,117.4 389.9,123.4C390,123.8 390.1,124.1 390.3,124.5C392.1,130.5 394.4,139.4 394.4,146.9C394.4,158.7 387.3,166.9 380.2,166.9L376.7,166.9L376.7,160.4C384.6,160.4 387.4,153.4 387.4,146.9C387.3,139.4 385.1,130.5 383.2,124.5" style="fill-rule:nonzero;"/>
        <path d="M204.7,181.1L228.3,238.1L251.8,181.1L259.1,181.1L229.2,253.4L227.3,253.4L197.5,181.1L204.7,181.1Z" style="fill-rule:nonzero;"/>
        <rect x="158.7" y="181.1" width="6.4" height="85.7"/>
        <path d="M306.3,266.8L297.8,246.4L256,246.4L247.5,266.8L240.1,266.8L275.6,181.1L278,181.1L313.5,266.8L306.3,266.8ZM295,239.6L276.9,195.9L258.8,239.6L295,239.6Z" style="fill-rule:nonzero;"/>
        <path d="M106.7,217.6L88.7,217.6L97.7,194.9L106.7,217.6ZM120.4,233L98.9,181.2L96.5,181.2L75.1,233L82.4,233L86.1,224.2L109.5,224.2L113.2,233L120.4,233Z" style="fill-rule:nonzero;"/>
        <path d="M58.2,31.9L34.6,31.9L34.6,63.6L40.2,63.6L40.2,50.7L56.1,50.7L56.1,45.6L40.2,45.6L40.2,37L58.2,37L58.2,31.9Z" style="fill-rule:nonzero;"/>
        <path d="M133.8,53.8L116.8,31.9L111.6,31.9L111.6,63.6L117.1,63.6L117.1,41L134.6,63.6L139.2,63.6L139.2,31.9L133.8,31.9L133.8,53.8Z" style="fill-rule:nonzero;"/>
        <path d="M212.9,51L202,51L207.4,38.3L212.9,51ZM210.1,31.7L205,31.7L191,63.6L196.7,63.6L200,56L214.9,56L218.1,63.6L224,63.6L210.1,31.7Z" style="fill-rule:nonzero;"/>
        <path d="M325.4,81.3L332.1,81.3L332.1,115.8C332.1,121.4 326.3,125.9 320.8,125.9C315.3,125.9 309.7,121.4 309.7,115.8L309.7,81.3L316.4,81.3L316.4,115.8C316.4,117.7 319,119.2 320.8,119.2C322.7,119.2 325.4,117.7 325.4,115.8L325.4,81.3Z" style="fill-rule:nonzero;"/>
        <path d="M223.6,116.8C223.6,96.1 240.4,79.3 261.1,79.3C281.8,79.3 298.6,96.1 298.6,116.8C298.6,135.1 285.6,150.2 268.3,153.6C273.7,158.2 280.7,161.1 288.4,161.1C304.2,161.1 317.2,149.2 318.9,133.9L325.7,133.9C324,153 307.9,167.9 288.4,167.9C276.7,167.9 266.3,162.6 259.5,154.2C239.5,153.3 223.6,136.9 223.6,116.8M230.4,116.8C230.4,133.7 244.1,147.4 261.1,147.4C278,147.4 291.7,133.7 291.7,116.8C291.7,99.9 278,86.1 261.1,86.1C244.2,86.1 230.4,99.8 230.4,116.8" style="fill-rule:nonzero;"/>
        <path d="M195.5,115.3L185.7,115.3L185.7,146.5L178.9,146.5L178.9,81.3L196.8,81.3C206.2,81.3 213.8,88.9 213.8,98.3C213.8,105.8 209,112.1 202.3,114.4L225.1,167L217.8,166.9L195.5,115.3ZM185.7,108.5L196.8,108.5C202.4,108.5 207,103.9 207,98.3C207,92.7 202.4,88.1 196.8,88.1L185.7,88.1L185.7,108.5Z" style="fill-rule:nonzero;"/>
        <path d="M168.5,166.9L160,146.5L118.2,146.5L109.8,167L102.4,167L137.9,81.3L140.3,81.3L175.8,167L168.5,166.9ZM157.2,139.7L139.1,96L121,139.7L157.2,139.7Z" style="fill-rule:nonzero;"/>
        <path d="M40.6,101.9L40.6,166.9L33.8,166.9L33.8,81.3L35.4,81.3L63,120.3L90.7,81.3L92.2,81.3L92.2,166.9L85.5,166.9L85.5,101.8L63.7,131.1L62.4,131.1L40.6,101.9Z" style="fill-rule:nonzero;"/>
        <path d="M97.5,31.9L91.9,31.9L91.9,50.1C91.9,55.9 88.9,58.9 83.9,58.9C78.9,58.9 75.9,55.7 75.9,49.9L75.9,31.9L70.4,31.9L70.4,50.1C70.4,59.3 75.6,64 83.9,64C92.2,64 97.5,59.2 97.5,49.8L97.5,31.9Z" style="fill-rule:nonzero;"/>
        <path d="M176.7,47.8C176.7,54 172.4,58.5 165.7,58.5L159.5,58.5L159.5,37L165.7,37C172.4,37 176.7,41.5 176.7,47.8M182.6,47.7C182.6,38.7 175.7,31.9 165.8,31.9L154,31.9L154,63.5L165.8,63.5C175.7,63.6 182.6,56.6 182.6,47.7" style="fill-rule:nonzero;"/>
        <path d="M245.2,63.8L241.6,69.1L246.4,71.1L249.4,64.1C254.8,63.9 258.2,61.8 261.2,58.5L257.6,54.9C254.9,57.4 252.4,59 248.5,59C242.4,59 238,54 238,47.7C238,41.4 242.4,36.5 248.5,36.5C252.1,36.5 254.8,38.1 257.4,40.4L261,36.3C258,33.4 254.4,31.4 248.6,31.4C239,31.4 232.3,38.8 232.3,47.8C232.3,55.8 237.6,62.4 245.2,63.8" style="fill-rule:nonzero;"/>
        <path d="M291.6,51L280.7,51L286.1,38.3L291.6,51ZM288.8,31.7L283.7,31.7L269.8,63.6L275.5,63.6L278.8,56L293.8,56L297,63.6L302.9,63.6L288.8,31.7ZM294.8,23.7L291.8,22.8C291.1,24.3 290.6,25.1 289.3,25.1C287.7,25.1 285.3,23.3 282.8,23.3C280,23.3 278.7,25.3 277.7,28.9L280.7,29.8C281.4,28.3 281.9,27.5 283.2,27.5C284.8,27.5 287.2,29.3 289.7,29.3C292.5,29.3 293.8,27.3 294.8,23.7" style="fill-rule:nonzero;"/>
        <path d="M338.7,47.8C338.7,54 334.3,59 328,59C321.7,59 317.2,53.9 317.2,47.7C317.2,41.5 321.6,36.5 327.9,36.5C334.2,36.5 338.7,41.6 338.7,47.8M344.5,47.7C344.5,38.7 337.7,31.4 328,31.4C318.3,31.4 311.4,38.9 311.4,47.8C311.4,56.7 318.2,64.1 327.9,64.1C337.7,64.1 344.5,56.6 344.5,47.7" style="fill-rule:nonzero;"/>
        <path d="M46.3,180.5C61.1,180.8 73,192.1 73,207C73,221.9 61.1,233.1 46.3,233.4L33.7,233.4L33.7,180.6L46.3,180.6L46.3,180.5ZM45.8,226.6C57.1,226.6 66.2,218.3 66.2,207C66.2,195.7 57,187.4 45.8,187.4L40.5,187.4L40.5,226.6L45.8,226.6Z" style="fill-rule:nonzero;"/>
        <path d="M133.1,224.5C131.2,218.4 128.3,209.3 128.3,201.3C128.3,189.5 135.4,181.2 142.6,181.2L146.1,181.2L146.1,187.8C138.2,187.8 135.3,194.9 135.3,201.4C135.3,208.9 137.8,217.4 139.7,223.4C139.8,223.8 139.9,224.2 140.1,224.6C142,230.6 144.2,239.2 144.2,246.7C144.2,258.5 137.1,266.8 129.9,266.8L126.4,266.8L126.4,260.2C134.3,260.2 137.2,253.1 137.2,246.6C137.3,239.1 135,230.5 133.1,224.5" style="fill-rule:nonzero;"/>
    </g>
</svg>
