<?xml version="1.0" encoding="utf-8"?>
<!-- Generator: Adobe Illustrator 28.4.1, SVG Export Plug-In . SVG Version: 6.00 Build 0)  -->
<svg version="1.1" id="Layer_1" xmlns="http://www.w3.org/2000/svg" xmlns:xlink="http://www.w3.org/1999/xlink" x="0px" y="0px"
	 viewBox="0 0 667.4 245.1" style="enable-background:new 0 0 667.4 245.1;" xml:space="preserve">
<path d="M74.5,145.1c0,16.6,0,33.1,0,49.6c3.8,0,7.5,0,11.1,0c-0.3-3.8-0.6-7.5-0.9-11.2c0.4-0.2,0.5-0.3,0.6-0.3
	c5-0.1,10-0.1,14.9,1.2c2.1,0.6,4.2,1.3,5.7,2.8c0.9,0.9,1.8,1.9,2.2,3.1c1.3,3.6,4.2,5,7.5,5.6c3.8,0.7,7.3-0.7,10.6-2.4
	c4.7-2.4,9.2-5.1,13.9-7.6c2.5-1.4,5.1-2.6,8-3.1c2.5-0.4,4.5,0.2,5.8,2.5c1.1,1.9,3,2.3,4.8,1.9c3-0.6,6-1.4,9-2.4
	c2.8-0.9,5.4-2.1,8.3-3.2c0,2.1,0,4.1,0,6.1c0,0.2-0.3,0.5-0.6,0.6c-4.7,1.7-9.4,3.4-14.1,4.9c-1.2,0.4-2.7,0.3-4,0.1
	c-0.9-0.2-2-0.8-2.5-1.6c-1.4-2-3.2-2.6-5.5-2.3c-3.1,0.5-5.8,1.8-8.5,3.2c-4.8,2.6-9.6,5.4-14.5,7.9c-2.2,1.1-4.6,1.9-7,2.4
	c-4.2,0.9-6.6,0-10.7-3.2c0,1.3,0,2.4,0,3.6c0,0.3,0.3,0.7,0.6,0.9c3,2.6,6.5,3.2,10.3,2.5c3.8-0.8,7.2-2.5,10.6-4.3
	c4.7-2.6,9.4-5.3,14.2-7.7c1.9-0.9,4.1-1.4,6.2-1.8c2-0.4,3.7,0.4,4.8,2.2c1,1.6,2.6,1.8,4.2,1.7c3.3-0.2,6.3-1.3,9.3-2.5
	c2.2-0.8,4.4-1.7,6.9-2.7c-0.7,2.7-1.3,5.1-2,7.5c0,0.2-0.3,0.4-0.5,0.5c-4.2,1.7-8.4,3.6-13,4c-1.7,0.1-3.2-0.2-4.3-1.8
	c-1.2-1.8-3.1-1.9-5.1-1.6c-3.6,0.6-6.7,2.2-9.9,3.9c-5.2,2.8-10.3,5.7-15.5,8.3c-2.4,1.2-5,1.8-7.6,2.3c-3.5,0.7-6.6-0.3-9.7-2.7
	c0,1.5-0.1,2.7,0,3.9c0,0.4,0.5,0.9,0.9,1.2c3.2,2.1,6.6,2.4,10.2,1.6c4.3-1,8.2-3,12.1-5.1c4.9-2.6,9.8-5.3,14.8-7.9
	c2.2-1.1,4.5-1.9,7-1.8c1.3,0,2.5,0.5,3.3,1.6c0.9,1.3,2.2,1.9,3.6,1.6c2.5-0.4,5-1,7.4-1.6c1.4-0.4,2.7-1,4.4-1.6
	c-0.8,1.6-1.5,2.9-2.2,4.2c-0.8,1.3-1.7,2.6-2.6,3.9c-0.6,0.8-1.1,1.7-2.3,2c-2,0.4-4,1-6,0.2c-0.3-0.1-0.7-0.3-0.9-0.6
	c-1.5-1.9-3.5-2-5.5-1.6c-3.5,0.7-6.7,2.3-9.9,4c-5.5,2.9-10.9,5.9-16.4,8.7c-3.2,1.6-6.6,2.7-10.3,3.1c-1.9,0.2-3.3-0.8-4.9-1.3
	c-2.4-0.8-3.6-2.1-3.3-4.9c0.3-2.7-1.3-4.6-3.7-5.7c-2.5-1.2-5.3-1.4-8-1.7c-0.5,0-1.1-0.4-1.5-0.7c-0.7-0.7-1.3-1.5-1.8-2.4
	c-0.7-1.5-1.8-1.7-3.3-1.7c-5,0.1-10,0-15.1,0c0,5.8,0,11.6,0,17.4c-6.1,0-12,0-18.1,0c0-5.8,0-11.5,0-17.4c-14,0-27.9,0-41.8,0
	c-1-4.1-2-8.1-2.9-12.2c-0.1-0.4,0.2-0.9,0.5-1.2c10.5-11.6,21.1-23.2,31.6-34.7c4.7-5.1,9.3-10.2,13.9-15.3c0.5-0.6,1-0.8,1.8-0.8
	c4.5,0,9,0,13.6,0C73.6,145.1,73.9,145.1,74.5,145.1z M56.3,194.7c0-8.3,0-16.4,0-24.9c-7.5,8.4-14.9,16.5-22.4,24.9
	C41.5,194.7,48.9,194.7,56.3,194.7z M108.5,208.1c0-1,0-2,0-3c0.1-4.4-1.7-7.1-5.9-8.6c-1.9-0.7-4-1.2-6.1-1.3
	c-3.4-0.3-6.9-0.3-10.6-0.5c0.9,2.1,1.6,3.8,2.2,5.6c0.3,0.8,0.7,0.9,1.5,0.9c3.7,0.2,7.3,0.3,10.9,0.8
	C104.1,202.6,107.1,204.2,108.5,208.1z"/>
<path d="M272.4,109.6c0-1.5,0-2.9,0-4.4c1.8-0.1,3.5-0.2,5.2-0.3c0.5,0,1-0.1,1.4-0.2c2.7-0.6,3.7-1.7,4-4.5c0.1-1,0.1-1.9,0.1-2.9
	c0-21.7,0-43.4,0-65.1c0-1.3-0.2-2.6-0.3-3.9c-0.2-2-1.5-3.2-3.4-3.5c-2.3-0.3-4.6-0.5-7-0.7c0-1.3,0-2.8,0-4.4c0.5,0,0.9,0,1.3,0
	c14.2,0,28.5-0.1,42.7,0c8.8,0.1,17.4,1.4,25.5,5.3c9.4,4.6,15,12.2,17.6,22.1c2.2,8.6,2.4,17.3,1.3,26c-0.7,5.9-2.2,11.7-5.1,17
	c-4.3,7.8-11,12.6-19.1,15.6c-7,2.6-14.4,3.7-21.8,3.8c-13.8,0.1-27.7,0.1-41.5,0.1C273,109.7,272.8,109.7,272.4,109.6z M299.8,63.7
	c0,10.9,0,21.7,0,32.6c0,0.6,0,1.3,0.1,1.9c0.5,3.6,1.9,5.1,5.5,5.7c3.8,0.6,7.6,0.6,11.3,0.2c3.8-0.4,7.5-1.4,10.9-3.2
	c6.5-3.4,10.1-9.1,12.2-15.9c2.4-7.6,2.8-15.4,2.7-23.2c-0.1-6.7-0.9-13.2-3.3-19.5c-3-7.8-8.2-13.3-16.3-15.8
	c-6.2-1.9-12.6-1.8-19-0.8c-3.1,0.5-4.1,1.8-4.1,4.9C299.8,41.6,299.8,52.7,299.8,63.7z"/>
<path d="M259.4,105.1c0,1.6,0,3.1,0,4.5c-12.2,0-24.4,0-36.7,0c0-1.5,0-2.9,0-4.5c1.9,0,3.7,0,5.5,0c3.6,0,5.1-1.9,4-5.3
	c-2.5-7.5-5.1-15-7.8-22.5c-0.1-0.3-0.7-0.7-1-0.7c-8.7,0-17.4,0-26.1,0c-0.6,0-0.9,0.2-1.1,0.8c-2.5,7.6-5,15.2-7.4,22.7
	c-0.1,0.4-0.2,0.8-0.3,1.2c-0.4,2.5,0.7,3.7,3.2,3.8c2.3,0.1,4.6,0,7,0c0,1.5,0,3,0,4.5c-9.4,0-18.8,0-28.2,0c0-1.5,0-2.9,0-4.3
	c1.6-0.2,3.2-0.4,4.8-0.6c1.8-0.3,3.2-1.3,4.1-2.9c0.8-1.4,1.6-2.9,2.2-4.5c9.3-25.4,18.5-50.8,27.8-76.3c0.4-1,0.8-1.3,1.9-1.3
	c3.1,0.1,6.2,0.1,9.4,0c0.7,0,1,0.2,1.3,0.9c8.9,25.4,17.8,50.8,26.7,76.2c0.4,1.1,0.8,2.1,1.2,3.1c1.3,3.5,3.9,5.1,7.6,5.1
	C257.9,105.1,258.6,105.1,259.4,105.1z M222.7,72c-4.1-12.1-8.3-24.1-12.4-36.1c-0.1,0-0.2,0-0.3,0c-4,12-8,24-12,36.1
	C206.3,72,214.4,72,222.7,72z"/>
<path d="M51.8,105.1c0,1.5,0,3,0,4.5c-13.4,0-26.8,0-40.2,0c0-1.5,0-2.9,0-4.4c1.8-0.1,3.5-0.2,5.3-0.4c0.7-0.1,1.3-0.2,2-0.4
	c1.8-0.5,3-1.6,3.2-3.5c0.1-1.3,0.3-2.6,0.3-3.9c0-21.6,0-43.2,0-64.7c0-1.2,0-2.4-0.2-3.6c-0.4-2.5-1.4-3.6-3.9-4
	c-2.1-0.3-4.3-0.4-6.5-0.7c0-1.3,0-2.8,0-4.3c22,0,44,0,66.1,0c0,7.4,0,14.9,0,22.6c-0.9,0-1.9,0.1-2.8,0c-0.3,0-0.7-0.6-0.8-0.9
	c-0.9-2.4-1.6-4.9-2.5-7.4c-1.9-5.2-5.9-8.1-11.3-8.5c-5.8-0.4-11.7-0.4-17.5-0.4c-3,0-3.9,1.2-3.9,4.2c0,10.5,0,21,0,31.5
	c0,0.3,0,0.5,0.1,0.8c0.1,0.1,0.1,0.1,0.2,0.1c6.5-0.1,13.1-0.1,19.6-0.3c3.2-0.1,5.4-2.1,6.3-5.2c0.5-1.6,1-3.3,1.3-5
	c0.2-0.8,0.4-1.1,1.2-1c0.7,0.1,1.4,0,2.2,0c0,9.7,0,19.3,0,29.1c-0.9,0-1.8,0.1-2.6,0c-0.3,0-0.6-0.5-0.7-0.8
	c-0.5-1.5-0.8-3.1-1.2-4.6c-1-3.4-3.4-5.2-6.8-5.7c-1.2-0.2-2.4-0.3-3.6-0.3c-5.1,0-10.2,0-15.2,0c-0.2,0-0.4,0-0.7,0.1
	c0,0.5,0,0.9,0,1.3c0,9.5,0,18.9,0,28.4c0,0.8,0.1,1.6,0.2,2.4c0.4,2.9,1.5,4.1,4.4,4.5c2.3,0.3,4.6,0.4,6.9,0.6
	C50.9,105.2,51.3,105.1,51.8,105.1z"/>
<path d="M89.4,105.3c2.2-0.2,4.3-0.3,6.3-0.6c2.9-0.5,3.9-1.7,4.2-4.6c0.1-0.7,0.1-1.4,0.1-2c0-22.2,0-44.3,0-66.5
	c0-0.9,0-1.8-0.2-2.7c-0.4-2.5-1.4-3.6-3.9-4c-2.1-0.3-4.3-0.4-6.5-0.7c0-1.4,0-2.8,0-4.3c12.9,0,25.7,0,38.6,0c0,1.5,0,2.9,0,4.4
	c-1.9,0.1-3.7,0.2-5.6,0.3c-0.6,0-1.3,0.1-1.9,0.3c-2.2,0.5-3.1,1.5-3.5,3.7c-0.1,0.9-0.2,1.9-0.2,2.9c0,21.2,0,42.3,0,63.5
	c0,1.4,0.2,2.8,0.5,4.2c0.6,2.7,2.2,4.3,4.9,4.7c6.1,0.7,12.2,0.9,18.3-0.4c5.3-1.1,9-4.2,11-9.2c1.1-2.7,2-5.5,2.9-8.3
	c0.2-0.7,0.5-1.1,1.3-1c0.8,0.1,1.7,0,2.6,0c-0.5,8.3-1,16.5-1.5,24.8c-22.5,0-44.9,0-67.4,0C89.4,108.2,89.4,106.7,89.4,105.3z"/>
<path d="M109.5,164.3c0.7-5.5-1.7-10.6-9.1-13.4c2-1.5,3.9-2.9,5.9-4.4c1.8,1.6,2.8,3.5,3.2,5.7c0.8,4.7,6.3,8.8,11.2,7.2
	c2.7-0.9,5.4-2.2,8-3.5c3.1-1.6,6.1-3.6,9.3-5.3c1.5-0.8,3.3-1.3,4.9-1.7c2.4-0.5,4.5,0.4,5.5,2.6c1.5,3.6,4.1,4.2,7.8,3.6
	c2-0.4,3.9-1,5.9-1.6c0.7-0.2,1.1-0.1,1.5,0.4c0.8,1,1.7,2,2.7,3.1c-4.1,1.4-7.9,3.1-12.1,3c-2.2,0-3.8-1-4.8-3
	c-1.4-2.9-3.3-3.8-6.5-3.1c-3.3,0.7-6,2.5-8.9,4.1c-3.2,1.8-6.4,3.7-9.7,5.4c-1.7,0.8-3.5,1.3-5.4,1.5c-3.5,0.4-6.1-1.3-8.3-4
	c-0.2-0.3-0.5-0.6-0.8-1.1c-0.3,1.5-0.3,2.7,0.7,3.9c2.8,3.5,6.4,4.8,10.9,3.5c3.9-1.1,7.2-3.3,10.7-5.3c3.2-1.8,6.4-3.4,9.7-5
	c1-0.5,2.2-0.6,3.3-0.6c2-0.1,3.7,0.7,4.4,2.5c1.6,3.8,4.8,4.1,7.9,3.3c3.1-0.7,6.2-1.8,9.3-2.8c0.4-0.1,0.7-0.3,1.2-0.4
	c0.9,1.4,1.8,2.8,2.7,4.3c-4.8,1.7-9.3,3.9-14.4,4.3c-2.6,0.2-4.5-0.6-5.8-3.1c-1.2-2.5-3.5-3.4-6.6-2.4c-2.6,0.9-5.1,2-7.5,3.3
	c-3.5,1.8-6.8,4-10.3,5.8c-2.4,1.3-4.9,2.2-7.6,2.3c-3.3,0.1-5.8-1.3-7.9-3.8c-0.2-0.3-0.5-0.6-0.8-1c-0.2,1.5-0.4,2.8,0.7,4.1
	c3,3.6,7.2,4.8,12.2,2.8c3.8-1.6,7.4-3.7,11.1-5.6c2.9-1.5,5.8-3.2,8.8-4.5c1.5-0.6,3.4-0.7,5.1-0.7c1.5,0,2.7,1,3.2,2.4
	c1.2,2.7,3.5,3.7,6.6,3c3.8-0.9,7.4-2.1,11.1-3.3c1.1-0.3,2.1-0.8,3.3-1.2c0.7,1.7,1.3,3.2,2,4.9c-5.4,1.9-10.4,4.4-16,5.1
	c-2.7,0.3-4.8-0.3-6.2-3c-1-1.9-3.1-2.8-5.4-2.2c-2.6,0.8-5.2,1.7-7.7,3c-4.5,2.3-8.8,4.9-13.2,7.3c-2.4,1.3-5,2-7.7,2
	c-3.2,0-5.5-1.3-8.3-4.5c-0.4,2.7,0,3.9,2.1,5.5c2.9,2.3,6.1,2.7,9.5,1.8c3.6-0.9,6.8-2.7,10-4.5c3.3-1.9,6.6-3.8,9.9-5.6
	c2.3-1.2,4.7-2.2,7.4-2.1c1.6,0.1,3,0.7,3.7,2.1c1.6,3.2,4.3,3.6,7.2,2.8c4-1.1,8-2.5,12-3.8c1.1-0.4,2.2-0.8,3.5-1.3
	c0.3,1.7,0.7,3.4,1,5.1c0,0.2-0.2,0.7-0.5,0.8c-4.9,1.7-9.8,3.5-14.8,5.1c-0.9,0.3-1.9,0.3-2.8,0.3c-1.9,0-3.4-0.7-4.3-2.5
	c-1.2-2.1-3.3-3-6-2.1c-2.7,0.8-5.3,1.9-7.7,3.1c-4.6,2.4-9,5-13.6,7.4c-2.6,1.4-5.5,2.3-8.5,2.3c-3.3,0-5.9-1.4-8-3.9
	c-0.2-0.2-0.3-0.5-0.3-0.7c-0.4-4.4-3-6.9-6.9-8.4c-3.2-1.2-6.5-1.7-9.8-1.9c-2.1-0.1-4.3,0-6.6,0c0.6-3.7,1.5-6.9,2.9-10
	c0.1-0.2,0.6-0.4,0.9-0.4c4.1,0.2,8.2,0.6,12.1,2c3.7,1.4,6.6,3.6,7.7,7.7c0.4-3.3,0-6.4-2.3-9c-2.2-2.5-5.3-3.7-8.4-4.5
	c-2-0.5-4.1-0.7-6.1-1c-0.3-0.1-0.7-0.1-1.4-0.3c2.1-2.7,4-5.2,6-7.7c0.1-0.2,0.5-0.3,0.7-0.2c3.7,0.9,7.4,2.1,9.8,5.3
	C108.3,161.2,108.9,163,109.5,164.3z"/>
<path d="M295,196.6c0.3,0.7,0.5,1.4,0.8,2.1c-1.8,1.2-3.7,1.9-5.8,2.1c-1.5,0.1-3,0.3-4.5,0.1c-2.2-0.2-4.1-1.1-5-3.3
	c-2.4,1.8-4.9,3.2-7.8,3.3c-2.3,0.1-4.6,0.1-6.8-0.4c-7-1.7-6.8-9.4-3.2-13c2.2-2.3,4.9-3.8,7.9-4.8c2.7-0.9,5.6-1.7,8.4-2.4
	c1-0.2,1.4-0.6,1.3-1.6c-0.1-1.8,0-3.6-0.1-5.4c-0.2-3.2-1.7-4.7-4.9-4.7c-1.1,0-2.2,0.2-3.3,0.5c-1.4,0.4-1.6,1.4-0.7,2.6
	c1.4,1.8,1.6,3.6,0.6,5.3c-1.1,1.8-3.2,2.6-5.6,2.1c-2-0.4-3.5-1.8-3.8-3.8c-0.3-2.6,1-4.6,3-6.2c2.8-2.2,6.2-3.1,9.7-3.3
	c2.8-0.1,5.6-0.1,8.3,0.5c4.4,0.9,6.8,4.3,6.9,9.4c0.1,5.9,0,11.7,0.1,17.6c0,0.7,0.1,1.4,0.2,2c0.3,1.8,1.3,2.5,3.1,1.9
	C294.1,196.9,294.5,196.8,295,196.6z M280.2,183c-2.4,0.6-4.6,1.4-6.5,2.7c-2.7,1.9-3.8,4.9-3,8.1c0.4,1.5,1.4,2.4,2.8,2.7
	c2.4,0.6,4.4-0.3,6.2-1.7c0.3-0.2,0.4-0.8,0.4-1.1c0-2,0-4.1,0-6.1C280.2,186,280.2,184.6,280.2,183z"/>
<path d="M255.2,183.5c-7.5,0-14.6,0-22,0c0.4,2.5,0.6,4.8,1.2,7.1c1.3,5,4.7,6.3,9.4,5.7c3.1-0.4,5.4-2.1,7-4.8
	c0.4-0.6,0.7-1.2,1-1.8c0.8,0.4,1.6,0.8,2.4,1.3c-1.8,4.2-4.2,7.6-8.7,9c-4.7,1.5-9.5,1.4-14.1-0.3c-4.2-1.6-6.8-4.8-8-9.1
	c-1.3-4.8-1.4-9.7,0-14.6c1.7-6.3,6.2-10.1,12.7-10.5c2.6-0.2,5.2-0.1,7.7,0.3c5.9,1.1,9.3,5,10.5,10.8
	C254.9,178.9,255,181.1,255.2,183.5z M244.2,180.8c0-3.3,0.1-6.5-1-9.6c-0.7-2.1-2-3.1-4-3.2c-1.9-0.1-3.6,0.9-4.4,2.9
	c-1.3,3.1-1.3,6.5-1.4,9.9C237,180.8,240.5,180.8,244.2,180.8z"/>
<path d="M185.9,168.7c0-0.9,0-1.6,0-2.4c6.4,0,12.8,0,19.2,0c0,0.7,0,1.5,0,2.3c-0.7,0-1.3,0-1.9,0c-1.4,0-2,0.7-1.6,2.1
	c0.7,2.2,1.6,4.4,2.4,6.5c1.4,3.7,2.8,7.5,4.2,11.4c0.2-0.4,0.3-0.7,0.5-1c2.1-5.5,4.2-11,6.3-16.5c0.7-1.8,0.2-2.5-1.8-2.5
	c-0.6,0-1.1,0-1.7,0c0-0.8,0-1.6,0-2.4c3.8,0,7.6,0,11.4,0c0,0.8,0,1.5,0,2.4c-2.6-0.2-3.7,1.5-4.5,3.5c-3.5,8.6-7,17.1-10.5,25.7
	c-1.7,4.2-3.4,8.3-5.3,12.4c-1.2,2.5-3,4.4-5.9,5c-2.4,0.5-4.7,0.3-6.7-1.3c-2.1-1.6-2.9-3.6-2.4-6.2c0.5-2.5,2.7-3.9,5.4-3.7
	c2.1,0.2,3.7,1.9,3.7,4.1c0,0.8-0.5,1.6-0.8,2.4c-0.1,0.5-0.4,1.1-0.2,1.4c0.3,0.3,1.1,0.6,1.4,0.5c0.9-0.5,1.9-1.1,2.4-2
	c1.2-2.2,2.1-4.6,3.2-6.8c0.7-1.4,0.6-2.6,0-4c-4-9.4-7.9-18.8-11.7-28.3C189.9,169,188.3,168.4,185.9,168.7z"/>
<path d="M356.1,165.6c0.2,3.6,0.3,7,0.5,10.4c-2,0.4-2,0.4-2.7-1.3c-1.5-3.6-3.7-6.3-7.9-6.6c-1.4-0.1-3.1,0.2-4.4,0.8
	c-2.8,1.4-3,4.9-0.4,6.6c1.5,1,3.2,1.6,4.9,2.2c1.9,0.8,4,1.3,5.8,2.1c4.7,2.1,6.9,5.4,6.7,9.8c-0.3,5.1-2.9,8.9-7.7,10.5
	c-4.2,1.4-8.4,1.4-12.6-0.2c-0.9-0.3-1.8-0.5-2.7-0.6c-0.4-0.1-0.9,0.2-1.4,0.3c-0.7,0.3-1.4,0.6-2.4,0.9c-0.2-4.2-0.4-8.1-0.7-12
	c0.3,0,0.6-0.1,0.9-0.1c1.1-0.2,1.6,0.2,1.9,1.3c1.2,4.4,3.7,7.5,8.4,8.4c1.9,0.4,3.7,0.2,5.5-0.6c1.9-0.9,2.8-2.3,2.8-4.3
	c0.1-1.9-0.7-3.3-2.4-4.1c-1.8-0.8-3.6-1.5-5.4-2.2c-2.1-0.8-4.3-1.5-6.3-2.5c-3.6-1.9-5.3-4.9-5-9c0.3-4,2.2-7,5.8-8.7
	c4.2-1.9,8.6-1.9,13-0.5c0.7,0.2,1.4,0.4,2.1,0.5c0.4,0,1.1-0.2,1.2-0.5C354.3,165.2,355.2,165.6,356.1,165.6z"/>
<path d="M297.7,170.1c0-0.9,0-1.6,0-2.3c1.7-0.7,12.4-2.1,14.5-1.9c0,2.1,0,4.1,0,6.4c1.3-1.6,2.3-3.1,3.5-4.4
	c2.2-2.3,4.9-2.8,7.9-2.1c2.2,0.5,3.5,2.1,4,4.2c0.6,2.3,0.2,4.6-1.5,6.3c-1.3,1.3-4.1,1.5-6,0.6c-1.7-0.8-2.4-2.2-2.2-4.4
	c0.1-0.7,0.5-1.3,0.8-2c0.1-0.3,0.2-0.6,0.3-1c-0.4-0.1-0.8-0.3-1.1-0.2c-0.5,0.2-1.1,0.6-1.5,1c-2.3,2.6-3.6,5.8-3.8,9.3
	c-0.2,5-0.1,10.1-0.1,15.1c0,1.9,0.8,2.7,2.7,2.9c0.9,0.1,1.8,0.1,2.8,0.2c0,0.8,0,1.5,0,2.3c-6.8,0-13.5,0-20.3,0
	c0-0.7,0-1.5,0-2.3c0.7-0.1,1.5-0.1,2.2-0.2c1.5-0.2,2-0.7,2.2-2.2c0.1-0.5,0.1-1,0.1-1.4c0-7,0-14,0-21c0-0.4,0-0.9-0.1-1.3
	c-0.1-1.2-0.7-1.7-1.9-1.7C299.4,170.1,298.6,170.1,297.7,170.1z"/>
<path d="M529.4,43.9c-1.2,0-2.4,0-3.7,0c0-6,0-12.1,0-18.1c-0.1,0-0.2,0-0.3-0.1c-0.1,0.3-0.3,0.6-0.4,0.9
	c-1.8,4.3-3.6,8.6-5.4,12.9c-0.4,1.1-1.2,0.9-2,1c-0.8,0.1-1.3-0.1-1.6-1c-1.7-4.2-3.4-8.3-5.1-12.5c-0.2-0.4-0.4-0.9-0.8-1.3
	c0,6,0,12,0,18.1c-1.3,0-2.5,0-3.7,0c0-7.9,0-15.7,0-23.8c1.7,0,3.4,0,5.1,0c0.3,0,0.6,0.5,0.8,0.9c1.8,4.4,3.5,8.9,5.3,13.3
	c0.1,0.3,0.2,0.5,0.4,0.9c0.3-0.7,0.6-1.3,0.8-1.8c1.6-4.1,3.3-8.2,4.9-12.3c0.3-0.8,0.7-1.1,1.6-1.1c1.3,0.1,2.7,0,4.1,0
	C529.4,28.1,529.4,35.9,529.4,43.9z"/>
<path d="M557.7,76.6c-1.2,0-2.4,0-3.7,0c0-6,0-12.1,0-18.1c-0.1,0-0.2,0-0.3-0.1c-0.2,0.4-0.4,0.8-0.6,1.2
	c-1.8,4.2-3.5,8.4-5.2,12.6c-0.4,1.1-1.2,0.9-2,0.9c-0.8,0.1-1.3-0.1-1.6-1c-1.8-4.6-3.7-9.2-5.9-13.7c0,6,0,11.9,0,18
	c-1.4,0-2.5,0-3.8,0c0-7.9,0-15.7,0-23.7c1.7,0,3.5,0,5.2,0c0.3,0,0.6,0.6,0.7,1c1.7,4.3,3.4,8.7,5.2,13c0.1,0.4,0.3,0.7,0.5,1.2
	c1.9-4.8,3.8-9.4,5.6-14c0.4-1,0.8-1.3,1.8-1.2c1.3,0.1,2.5,0,3.9,0C557.7,60.7,557.7,68.6,557.7,76.6z"/>
<path d="M456.7,92.4c0,5.6,0,11.2,0,16.8c-1.2,0-2.3,0-3.6,0c0-7.8,0-15.7,0-23.7c1.2,0,2.4-0.1,3.5,0c0.3,0,0.6,0.5,0.9,0.9
	c3,4.9,6,9.8,9,14.7c0.2,0.3,0.4,0.6,0.8,1.2c0-5.8,0-11.3,0-16.8c1.3,0,2.4,0,3.7,0c0,7.9,0,15.7,0,23.7c-1,0-2,0.1-3,0
	c-0.4-0.1-0.8-0.5-1.1-0.9c-3.1-5-6.2-10-9.2-15c-0.2-0.4-0.5-0.7-0.7-1.1C456.8,92.4,456.7,92.4,456.7,92.4z"/>
<path d="M599.5,69.7c0-5.8,0-11.2,0-16.8c1.2,0,2.4,0,3.6,0c0,7.8,0,15.7,0,23.7c-1.1,0-2.1,0.1-3.1,0c-0.4,0-0.8-0.5-1-0.9
	c-3.1-4.9-6.1-9.9-9.1-14.8c-0.3-0.4-0.5-0.8-1-1.2c0,5.6,0,11.2,0,16.8c-1.3,0-2.4,0-3.7,0c0-7.9,0-15.7,0-23.7
	c1.2,0,2.3-0.1,3.4,0c0.4,0,0.8,0.5,1,0.9c3,4.9,6.1,9.9,9.1,14.8C598.9,68.8,599.1,69.1,599.5,69.7z"/>
<path d="M646,36.6c0-5.4,0-10.8,0-16.4c1.3,0,2.4,0,3.7,0c0,7.9,0,15.7,0,23.7c-1.1,0-2.1,0.1-3.1,0c-0.4,0-0.8-0.5-1-0.9
	c-3.2-5.1-6.3-10.2-9.4-15.3c-0.2-0.3-0.3-0.5-0.7-1.1c0,5.9,0,11.5,0,17.2c-1.3,0-2.4,0-3.6,0c0-7.9,0-15.8,0-23.7
	c1.2,0,2.3-0.1,3.4,0c0.3,0,0.7,0.5,0.9,0.8c3,4.8,5.9,9.7,8.9,14.5c0.2,0.4,0.5,0.8,0.7,1.2C645.9,36.6,646,36.6,646,36.6z"/>
<path d="M574.5,85.6c1.1,0,2.3-0.1,3.4,0c0.4,0,0.8,0.5,1,0.9c3,4.9,6,9.7,9,14.6c0.2,0.3,0.4,0.7,0.8,1.3c0-5.7,0-11.2,0-16.7
	c1.3,0,2.5,0,3.7,0c0,7.9,0,15.7,0,23.7c-1.1,0-2.1,0.1-3.1,0c-0.4,0-0.8-0.5-1-0.9c-3.1-5-6.1-9.9-9.2-14.9
	c-0.2-0.4-0.5-0.8-0.9-1.5c0,5.9,0,11.5,0,17.2c-1.3,0-2.4,0-3.6,0C574.5,101.4,574.5,93.6,574.5,85.6z"/>
<path d="M108.8,145.2c0.2-0.1,0.7-0.4,1.1-0.6c1,4,3.4,6.6,7.3,7.3c1.7,0.3,3.8,0,5.4-0.7c3.5-1.6,6.7-3.6,10.1-5.4
	c2.6-1.3,5.1-2.8,7.8-3.8c3.6-1.2,5.7-0.1,7.3,3.3c1,2.1,2.6,3.1,4.9,3.2c0.4,0,0.9,0.1,1.3,0c3.2-1.3,4.8,1.3,7.1,3
	c-3.2,1-6.1,2-9.2,1.4c-1.6-0.3-2.7-1.3-3.4-2.7c-1.7-3.5-3.8-4.6-7.5-3.3c-3.1,1.2-6,2.9-9,4.5c-2.8,1.4-5.4,3.1-8.2,4.5
	c-2.2,1.1-4.6,1.7-7.1,1.2c-3.3-0.7-5.2-2.9-6.9-5.5c-0.1-0.1,0-0.2-0.1-0.3C109.5,149.1,109.2,147.3,108.8,145.2z"/>
<path d="M478.2,85.8c3.3,0,6.6-0.3,9.8,0.1c3.9,0.4,6.1,3.1,7.1,6.7c0.9,3.3,0.8,6.6,0,9.8c-1.1,4.1-3.8,6.4-8,6.8
	c-2.9,0.2-5.8,0-8.8,0C478.2,101.4,478.2,93.6,478.2,85.8z M482.2,106.1c1.4-0.1,2.7-0.1,4-0.2c2.4-0.2,3.9-1.5,4.6-3.7
	c1-3.1,0.9-6.1,0.1-9.2c-0.5-1.6-1.4-3.1-3.1-3.5c-1.8-0.4-3.7-0.5-5.6-0.7C482.2,94.7,482.2,100.2,482.2,106.1z"/>
<path d="M557,20.3c3.2,0,6.3-0.2,9.3,0.1c3.4,0.3,5.3,2.5,5.7,5.9c0.4,3.9-0.4,5.5-3.7,8.1c1.9,3.1,3.8,6.2,5.9,9.6
	c-1.7,0-3,0-4.3,0c-0.3,0-0.6-0.5-0.8-0.8c-1.4-2.3-2.8-4.7-4.1-7c-0.5-0.9-1-1.2-2-1.1c-0.6,0.1-1.3,0-2.1,0c0,3,0,5.9,0,8.9
	c-1.4,0-2.6,0-3.9,0C557,36,557,28.1,557,20.3z M560.9,23.3c0,2.9,0,5.6,0,8.2c1.4,0,2.7,0.1,3.9,0c1.9-0.2,2.8-1.3,3-3.2
	c0-0.6,0-1.2,0-1.8c-0.2-1.6-0.9-2.6-2.5-2.9C563.9,23.4,562.4,23.4,560.9,23.3z"/>
<path d="M387.1,76.5c0-7.9,0-15.7,0-23.5c0.1,0,0.2-0.1,0.3-0.1c2.6,0,5.3-0.1,7.9,0c4.7,0.2,7.9,3,8.8,7.6c0.6,3.1,0.6,6.2-0.2,9.2
	c-1.2,4.1-3.9,6.5-8.2,6.8C393,76.7,390.1,76.5,387.1,76.5z M391.1,73.1c1.5,0,2.8,0.1,4.2,0c2.4-0.2,3.9-1.6,4.6-4
	c0.8-3,0.8-6.1-0.1-9.1c-0.5-1.7-1.5-3.1-3.3-3.4c-1.7-0.4-3.5-0.4-5.3-0.6C391.1,61.9,391.1,67.5,391.1,73.1z"/>
<path d="M568.8,97.8c-0.2,1.2-0.3,3-0.7,4.7c-1.4,5.4-5.4,7.9-10.9,7.1c-3.4-0.5-5.6-2.4-6.7-5.6c-1.4-4.1-1.4-8.3-0.2-12.4
	c1.8-5.8,8.5-8.3,13.8-5.3c2.9,1.7,3.9,4.6,4.3,7.6C568.6,95.1,568.7,96.2,568.8,97.8z M564.8,97.3c-0.3-1.8-0.6-3.9-1.2-5.9
	c-0.7-2.1-2.4-2.9-5-2.8c-2.1,0.1-3.6,1.1-4.2,3.1c-1.1,3.8-1.1,7.6,0,11.4c0.7,2.3,2.3,3.3,4.7,3.2c2.6,0,4.1-1,4.8-3.3
	C564.3,101.2,564.5,99.4,564.8,97.3z"/>
<path d="M508.8,65.3c-0.3,1.6-0.5,3.8-1.2,5.8c-1.4,4.2-5,6.3-9.3,5.9c-4.7-0.5-7.2-2.6-8.3-7.3c-0.8-3.4-0.8-6.8,0.1-10.2
	c1.2-4.8,4.6-7.2,9.6-7c4.7,0.2,7.7,2.8,8.6,7.6C508.5,61.6,508.6,63.1,508.8,65.3z M504.8,64.6c-0.3-1.7-0.5-3.7-1-5.6
	c-0.6-2.3-2.3-3.2-4.8-3.2c-2.5,0-4,1-4.7,3.3c-1,3.7-1.1,7.4,0,11.1c0.7,2.4,2.3,3.5,4.8,3.4c2.6-0.1,4.2-1.2,4.8-3.7
	C504.4,68.3,504.5,66.6,504.8,64.6z"/>
<path d="M466,32.2c-0.2,1.4-0.3,3.1-0.7,4.7c-1.4,5.9-5.6,7.9-11,7.1c-3.4-0.5-5.7-2.5-6.7-5.8c-1.3-4.1-1.3-8.3,0-12.4
	c1.8-5.7,8.7-8.2,13.9-5c2.5,1.5,3.5,3.9,4,6.6C465.8,29,465.9,30.5,466,32.2z M462.1,31.9c-0.4-1.9-0.6-4.1-1.3-6.1
	c-0.7-2.2-2.6-2.8-4.7-2.7c-2.1,0-3.7,0.8-4.4,2.9c-1.2,4-1.3,8,0,12c0.7,2.1,2.3,3,4.7,2.9c2.4,0,3.9-0.9,4.6-3.1
	C461.5,36,461.7,34.1,462.1,31.9z"/>
<path d="M404.1,97.7c0.3-2,0.4-3.7,0.8-5.3c1.3-5.3,5.4-7.8,10.7-7.1c3.6,0.5,6,2.5,7,5.9c1.3,4.4,1.4,8.9-0.4,13.3
	c-1.6,3.8-4.6,5.5-9.2,5.3c-4.1-0.2-6.8-2.1-7.9-6.1C404.6,101.6,404.4,99.5,404.1,97.7z M419.5,97.2c-0.3-1.7-0.5-3.7-1-5.6
	c-0.6-2.2-2.3-3.1-4.8-3.1c-2.4,0-4,1-4.6,3.2c-1,3.7-1.1,7.5,0,11.2c0.7,2.5,2.3,3.4,5,3.3c2.5-0.1,4.1-1.2,4.6-3.7
	C419.2,101,419.3,99.3,419.5,97.2z"/>
<path d="M124.3,230.4c7.8-4.1,15.4-8.2,23-12c2-1,4.3-1.6,6.4-2.1c1.9-0.5,3.6-0.1,5,1.4c0.6,0.6,1.6,0.8,2.5,1.2
	C150.7,228.2,138.5,232,124.3,230.4z"/>
<path d="M428.9,85.6c1.3,0,2.5,0,3.9,0c0,0.5,0,0.9,0,1.4c0,4.9,0,9.8,0.1,14.7c0,0.9,0.3,1.7,0.6,2.6c0.4,1,1.1,1.6,2.2,1.8
	c0.9,0.1,1.8,0.2,2.7,0.1c2.2-0.2,3.2-1.1,3.6-3.3c0.2-1,0.2-2.1,0.2-3.1c0-4.3,0-8.5,0-12.8c0-0.4,0-0.9,0-1.4c1.3,0,2.6,0,3.8,0
	c0,0.2,0.1,0.3,0.1,0.5c0,5.3,0.1,10.6-0.1,15.9c-0.2,4.9-2.9,7.5-7.8,7.7c-1.2,0-2.3,0-3.5-0.2c-3.3-0.6-5.1-2.3-5.7-5.6
	c-0.2-0.9-0.3-1.8-0.3-2.7c0-5,0-9.9,0-14.9C428.9,86.1,428.9,85.9,428.9,85.6z"/>
<path d="M418.4,20.2c1.3,0,2.6,0,3.8,0c0.1,0.1,0.1,0.2,0.1,0.3c0,5.6,0.1,11.1-0.2,16.6c-0.2,4.5-3,6.9-7.5,7.1
	c-1.2,0.1-2.4,0-3.6-0.1c-3.6-0.6-5.4-2.5-5.9-6.1c-0.1-1-0.2-2.1-0.2-3.1c0-4.9,0-9.7,0-14.7c1.3,0,2.6,0,4,0c0,0.5,0,0.9,0,1.3
	c0,4.4,0,8.9,0,13.3c0,1.2,0.2,2.5,0.5,3.7c0.3,1.3,1.2,2,2.5,2.2c0.3,0,0.5,0.1,0.8,0.1c3.8,0.3,5.4-1.1,5.5-4.8
	c0.1-4.5,0-9,0.1-13.4C418.4,21.8,418.4,21,418.4,20.2z"/>
<path d="M498.3,109.4c0.6-1.9,1.2-3.7,1.7-5.4c1.9-5.8,3.7-11.6,5.6-17.4c0.3-0.8,0.6-1.1,1.5-1.1c1.2,0.1,2.7-0.3,3.5,0.2
	c0.8,0.6,0.9,2.1,1.3,3.2c2,6.3,4,12.7,6,19c0.1,0.4,0.2,0.8,0.3,1.4c-1.3,0-2.5,0-3.6,0c-0.3,0-0.6-0.4-0.7-0.7
	c-0.5-1.4-0.9-2.9-1.3-4.3c-0.2-0.6-0.5-0.8-1.1-0.8c-2.2,0-4.4,0-6.6,0c-0.6,0-0.9,0.2-1.1,0.8c-0.4,1.5-0.8,2.9-1.4,4.3
	c-0.1,0.3-0.6,0.7-1,0.7C500.6,109.4,499.6,109.4,498.3,109.4z M508.2,89.9c-1.1,3.6-2.1,6.9-3.1,10.2c2.1,0,4.1,0,6.2,0
	C510.3,96.7,509.3,93.5,508.2,89.9z"/>
<path d="M481.9,43.9c2.6-8.1,5.1-16,7.7-23.9c1.4,0,2.8,0,4.1,0c0.3,0,0.8,0.3,0.8,0.6c2.4,7.5,4.8,15,7.2,22.5c0.1,0.2,0,0.4,0,0.7
	c-1.3,0-2.6,0-4,0c-0.5-1.6-1-3.3-1.5-5c-0.1-0.3-0.6-0.8-0.9-0.8c-2.5-0.1-5,0-7.6,0c-0.5,1.7-1.1,3.3-1.5,5c-0.2,0.7-0.6,1-1.3,1
	C484,43.9,483.1,43.9,481.9,43.9z M491.8,24.4c-1.1,3.6-2.1,6.9-3.1,10.2c2.1,0,4.1,0,6.2,0C493.9,31.2,492.9,28,491.8,24.4z"/>
<path d="M613.1,38c-0.5,1.7-1.1,3.4-1.5,5.1c-0.2,0.6-0.5,0.9-1.2,0.9c-0.9-0.1-1.8,0-2.9,0c0.1-0.5,0.2-1,0.3-1.4
	c2.3-7.2,4.6-14.4,6.9-21.6c0.2-0.7,0.5-1,1.3-0.9c0.8,0.1,1.5,0.1,2.3,0c1.2-0.2,1.7,0.3,2.1,1.5c2.2,7,4.4,14,6.6,21
	c0.1,0.4,0.2,0.8,0.4,1.5c-1.4,0-2.6,0-3.8,0c-0.2,0-0.5-0.5-0.6-0.8c-0.5-1.4-0.9-2.9-1.4-4.3c-0.1-0.3-0.5-0.7-0.8-0.8
	C618.2,38,615.7,38,613.1,38z M617.4,24.8c-0.1,0-0.2,0-0.2,0c-1,3.2-2,6.5-3,9.8c2.1,0,4.1,0,6.2,0C619.3,31.2,618.4,28,617.4,24.8
	z"/>
<path d="M414.3,73.3c3.7,0,7.4,0,11.1,0c0,1.1,0,2.1,0,3.2c-5,0-10,0-15.1,0c0-7.8,0-15.7,0-23.6c4.9,0,9.7,0,14.6,0
	c0,1.1,0,2.1,0,3.3c-3.6,0-7.1,0-10.7,0c0,2.3,0,4.4,0,6.6c2.5,0,4.9,0,7.4,0c0,1.1,0,2.1,0,3.3c-2.4,0-4.8,0-7.4,0
	C414.3,68.5,414.3,70.8,414.3,73.3z"/>
<path d="M551.3,23.5c-3.6,0-7.1,0-10.7,0c0,2.2,0,4.4,0,6.6c2.5,0,4.9,0,7.5,0c0,1.1,0,2.2,0,3.3c-2.5,0-4.9,0-7.5,0
	c0,2.4,0,4.7,0,7.1c3.7,0,7.4,0,11.2,0c0,1.2,0,2.2,0,3.3c-5,0-10,0-15.1,0c0-7.9,0-15.7,0-23.6c4.8,0,9.7,0,14.6,0
	C551.3,21.2,551.3,22.2,551.3,23.5z"/>
<path d="M518.3,67.8c0,3,0,5.8,0,8.7c-1.3,0-2.5,0-3.8,0c0-7.9,0-15.7,0-23.8c3.5,0.1,7,0,10.4,0.5c3.4,0.5,5.1,3.4,4.9,7.3
	c-0.1,1-0.2,2-0.4,2.9c-0.8,2.8-3.2,4.3-6.9,4.3C521.1,67.8,519.8,67.8,518.3,67.8z M518.4,56.1c0,2.9,0,5.6,0,8.6
	c1.6-0.1,3.2-0.1,4.7-0.4c1.2-0.2,2.1-1,2.3-2.3c0.1-1.1,0.1-2.2,0-3.3c-0.2-1.2-1-2-2.2-2.2C521.6,56.2,520.1,56.2,518.4,56.1z"/>
<path d="M568.8,56.2c0,2.3,0,4.4,0,6.6c2.5,0,4.9,0,7.5,0c0,1.2,0,2.2,0,3.3c-2.5,0-4.9,0-7.4,0c0,2.4,0,4.7,0,7.1
	c3.7,0,7.4,0,11.2,0c0,1.2,0,2.2,0,3.3c-5,0-10,0-15.1,0c0-7.8,0-15.7,0-23.6c4.9,0,9.7,0,14.6,0c0,1.1,0,2.1,0,3.3
	C576,56.2,572.5,56.2,568.8,56.2z"/>
<path d="M452.4,52.9c4.9,0,9.7,0,14.6,0c0,1.1,0,2.1,0,3.3c-3.5,0-7,0-10.6,0c0,2.2,0,4.4,0,6.7c2.4,0,4.9,0,7.4,0
	c0,1.1,0,2.1,0,3.3c-1.4,0-2.8,0-4.2,0c-1.1,0-2.5-0.3-3.1,0.3c-0.5,0.5-0.2,1.9-0.2,3c0,1.2,0,2.5,0,3.8c3.8,0,7.4,0,11.2,0
	c0,1.2,0,2.2,0,3.3c-5,0-10,0-15,0C452.4,68.6,452.4,60.8,452.4,52.9z"/>
<path d="M428.1,53c0.2-0.1,0.3-0.1,0.3-0.1c1.2,0,2.8-0.4,3.6,0.2c0.8,0.5,0.9,2.1,1.2,3.2c1.4,4.7,2.9,9.4,4.3,14.1
	c0.1,0.3,0.2,0.6,0.4,1.2c0.9-2.8,1.6-5.3,2.4-7.8c1-3.3,2-6.6,3-9.9c0.2-0.6,0.4-0.9,1.1-0.9c1,0.1,2,0,3.1,0
	c-0.1,0.5-0.1,0.8-0.3,1.2c-2.3,7.3-4.6,14.5-6.9,21.8c-0.3,0.8-0.6,1.1-1.4,1c-0.4-0.1-0.9,0-1.3,0c-2.2,0-2.2,0-2.8-2
	c-2.2-6.8-4.3-13.7-6.5-20.5C428.3,53.8,428.2,53.4,428.1,53z"/>
<path d="M428.2,39.5c1.9,0.5,3.7,1,5.5,1.3c0.7,0.1,1.6-0.1,2.4-0.3c1.3-0.3,2-1.2,2.1-2.6c0.1-1.4-0.3-2.5-1.6-3.1
	c-1.5-0.7-3.1-1.3-4.6-2c-3.2-1.5-4.6-3.7-4.4-6.9c0.2-3.2,2.1-5.4,5.2-6c2.8-0.6,6.7,0,8.8,1.4c-0.4,1-0.7,2-1.1,3
	c-1.4-0.4-2.7-0.8-4-1.1c-0.5-0.1-1.1-0.1-1.7-0.1c-1.7,0-2.7,0.8-3,2c-0.4,1.5,0.1,3,1.5,3.8c1,0.5,2,0.9,3.1,1.4
	c0.6,0.3,1.2,0.4,1.8,0.7c3.5,1.6,4.7,3.8,4.3,7.3c-0.4,3.2-2.4,5.2-6,5.8c-2.9,0.5-5.7,0.1-8.4-1.3c-0.7-0.3-0.9-0.7-0.5-1.4
	C427.7,40.8,427.9,40,428.2,39.5z"/>
<path d="M604.7,21.1c-0.5,1.2-0.8,2.2-1.1,3c-1.7-0.3-3.4-0.9-5.1-0.9c-3-0.1-4.8,1.3-5.5,4.2c-0.7,2.9-0.7,5.8-0.1,8.7
	c0.9,4.3,3.9,5.6,8.6,4.3c0.8-0.2,1.6-0.7,2.4-1c0.1,0.1,0.2,0.1,0.2,0.2c1.3,2.6,1.1,2.9-1.7,3.9c-2.7,1-5.5,0.9-8.2,0
	c-2.7-0.9-4.3-2.9-5.1-5.5c-1.1-3.8-1.2-7.7-0.1-11.6c1.5-5.1,5.8-7.6,11.3-6.6C601.8,20.1,603.2,20.7,604.7,21.1z"/>
<path d="M401.4,85.7c0,1.1,0,2.1,0,3.2c-3.4,0-6.8,0-10.3,0c0,2.4,0,4.7,0,7.2c2.3,0,4.6,0,6.9,0c0,1.2,0,2.2,0,3.4
	c-2.3,0-4.6,0-7,0c0,3.4,0,6.6,0,9.9c-1.4,0-2.6,0-3.9,0c0-7.9,0-15.7,0-23.6C391.9,85.7,396.5,85.7,401.4,85.7z"/>
<path d="M617.8,76.6c-1.4,0-2.6,0-4,0c0-6.8,0-13.5,0-20.3c-2.1,0-4.1,0-6.2,0c0-1.1,0-2.2,0-3.3c5.5,0,11,0,16.6,0c0,1,0,2.1,0,3.3
	c-2,0-4.1,0-6.3,0C617.8,63,617.8,69.7,617.8,76.6z"/>
<path d="M525.1,89c-2.2,0-4.2,0-6.3,0c0-1.2,0-2.2,0-3.3c5.5,0,11,0,16.6,0c0,1.1,0,2.1,0,3.3c-2.1,0-4.1,0-6.3,0
	c0,6.8,0,13.6,0,20.4c-1.4,0-2.6,0-3.9,0C525.1,102.6,525.1,95.9,525.1,89z"/>
<path d="M472.7,52.9c1.3,0,2.5,0,3.8,0c0,6.7,0,13.4,0,20.3c3.3,0,6.5,0,9.8,0c0,1.2,0,2.3,0,3.4c-4.5,0-9,0-13.6,0
	C472.7,68.7,472.7,60.8,472.7,52.9z"/>
<path d="M387.2,20.2c1.3,0,2.5,0,3.8,0c0,6.7,0,13.4,0,20.2c3.3,0,6.5,0,9.8,0c0,1.3,0,2.3,0,3.5c-4.6,0-9,0-13.6,0
	C387.2,35.9,387.2,28.1,387.2,20.2z"/>
<path d="M137.9,140.5c-4.5,2.6-9,5.2-13.6,7.7c-2,1.1-4.3,1.7-6.7,1.4c-2.9-0.3-5.4-2.3-7-5.4c0.8-0.4,1.6-0.7,2.4-1
	c0.3-0.1,0.7,0,0.9,0.1c2.4,1.9,5.2,2.1,7.9,1.1c2.7-1.1,5.3-2.5,7.9-4c1-0.5,1.9-0.9,3-0.7c1.7,0.2,3.5,0.3,5.2,0.5
	C137.9,140.3,137.9,140.4,137.9,140.5z"/>
<path d="M539.9,85.6c1.3,0,2.5,0,3.8,0c0,7.9,0,15.7,0,23.7c-1.3,0-2.5,0-3.8,0C539.9,101.4,539.9,93.6,539.9,85.6z"/>
<path d="M578.6,20.2c1.3,0,2.5,0,3.8,0c0,7.9,0,15.8,0,23.7c-1.3,0-2.5,0-3.8,0C578.6,35.9,578.6,28.1,578.6,20.2z"/>
<path d="M479,30.5c0,0.9,0,1.9,0,2.9c-2.5,0-5,0-7.7,0c0-0.9,0-1.8,0-2.9C473.9,30.5,476.4,30.5,479,30.5z"/>
</svg>
