<?xml version="1.0" encoding="UTF-8" standalone="no"?>
<!DOCTYPE svg PUBLIC "-//W3C//DTD SVG 1.1//EN" "http://www.w3.org/Graphics/SVG/1.1/DTD/svg11.dtd">
<svg width="100%" height="100%" viewBox="0 0 188 59" version="1.1" xmlns="http://www.w3.org/2000/svg" xmlns:xlink="http://www.w3.org/1999/xlink" xml:space="preserve" xmlns:serif="http://www.serif.com/" style="fill-rule:evenodd;clip-rule:evenodd;stroke-linejoin:round;stroke-miterlimit:2;">
    <g id="Layer_1-2">
        <g id="logos">
            <path d="M158,25.41C148.61,22.93 146.39,21.96 146.39,18.41C146.39,15.92 148.61,13.85 153.16,13.85C158.266,14.303 163.146,16.17 167.25,19.24L172.91,10.53C167.334,6.015 160.334,3.619 153.16,3.77C144.46,3.77 137.83,7.77 135.34,14.27C129.771,8.54 122.058,5.382 114.07,5.56L95.45,5.56L95.45,38.16L81.36,5.25L70.86,5.25L52.77,47.65L33.29,47.65L42,40.88C51.38,33.56 55.94,29 55.94,20C55.94,9.78 48.94,3.28 37.57,3.28C28.18,3.28 22.93,7.01 17.57,14.28L26,21.13C30,16.3 33,13.81 37.05,13.81L38.16,13.81C41.778,14.039 44.574,17.191 44.37,20.81C44.37,25.37 41.88,28.41 35.25,33.81L17.27,48.34L17.27,58L60.5,58L64.5,47.78L99.59,47.78L103.87,57.45L114.09,57.45C130.25,57.45 141.3,46.67 141.86,32.31C145.09,33.928 148.53,35.089 152.08,35.76C161.08,37.97 162.85,39.49 162.85,42.53C162.85,45.57 160.09,47.64 155.26,47.64C151.462,47.629 147.737,46.592 144.48,44.64L138.54,54C143.608,56.682 149.266,58.057 155,58C166.6,58 174.75,52.06 174.75,41.28L174.75,41C175,32.18 168.79,28.17 158,25.41ZM68.65,37.57L76.25,18.92L84.12,37.57L68.65,37.57ZM130.25,33.84C129.968,41.673 123.447,47.962 115.61,47.962C115.286,47.962 114.963,47.951 114.64,47.93L107.64,47.93L107.64,16.3L116,16.3C123.969,16.569 130.378,23.198 130.378,31.172C130.378,31.414 130.372,31.657 130.36,31.9C130.243,32.54 130.206,33.191 130.25,33.84Z" style="fill-rule:nonzero;"/>
            <rect x="176.66" y="47.38" width="10.5" height="10.22"/>
            <path d="M12.43,57.88L0,57.88L0,24.31L12.43,17.68L12.43,57.88Z" style="fill-rule:nonzero;"/>
            <rect x="0.28" y="0" width="12.43" height="12.15"/>
        </g>
    </g>
</svg>
