<?xml version="1.0" encoding="UTF-8" standalone="no"?>
<!DOCTYPE svg PUBLIC "-//W3C//DTD SVG 1.1//EN" "http://www.w3.org/Graphics/SVG/1.1/DTD/svg11.dtd">
<svg width="100%" height="100%" viewBox="0 0 637 515" version="1.1" xmlns="http://www.w3.org/2000/svg" xmlns:xlink="http://www.w3.org/1999/xlink" xml:space="preserve" xmlns:serif="http://www.serif.com/" style="fill-rule:evenodd;clip-rule:evenodd;stroke-linejoin:round;stroke-miterlimit:2;">
    <g transform="matrix(1,0,0,1,-85.3,-77)">
        <path d="M586.6,333.6C637.8,333.6 679.5,292.9 679.5,242.9C679.5,194.9 639.6,158.7 586.6,158.7L533.8,158.7L505.2,186.8L585.3,186.8C621.3,186.8 650.6,206.6 650.6,241.7C650.6,276.8 621.3,305.4 585.3,305.4L565,305.4L565,333.5L586.6,333.6Z" style="fill-rule:nonzero;"/>
        <path d="M585.3,119.3L505.1,119.3L533.7,147.4L586.5,147.4C645.9,147.4 690.7,188.5 690.7,242.9C690.7,299.1 644,344.8 586.5,344.8L553.7,344.8L553.7,305.4L530.3,305.4L530.3,373L585.3,373C659.3,373 719.5,314.1 719.5,241.8C719.5,169.4 659.3,119.3 585.3,119.3Z" style="fill-rule:nonzero;"/>
        <path d="M519,305.4L495.6,320.3L495.6,358.1L519,373L519,305.4Z" style="fill-rule:nonzero;"/>
        <path d="M465.9,339.2L484.4,351L484.4,327.5L465.9,339.2Z" style="fill-rule:nonzero;"/>
        <path d="M85.3,77L85.3,415.2L423.6,415.2L423.6,77L85.3,77ZM140.3,217.2L136.4,217.2L136.4,226.8L140.3,226.8L140.3,236.4L136.4,236.4L136.4,246L140.3,246L140.3,255.6L136.4,255.6L136.4,265.2L140.3,265.2L140.3,274.8L136.4,274.8L136.4,281.5L140.3,281.5L140.3,288.2L111.6,288.2L111.6,275L115.5,275L115.5,265.4L111.6,265.4L111.6,255.8L115.5,255.8L115.5,246.2L111.6,246.2L111.6,236.6L115.5,236.6L115.5,227L111.6,227L111.6,217.4L115.5,217.4L115.5,210.7L111.6,210.7L111.6,204L140.3,204L140.3,217.2ZM224.6,242.8C224.6,260.8 210,275.4 192,275.4L180.8,275.4L180.8,252.9L202.3,252.9L202.3,226.3L176.2,226.3L176.2,288.3L153.7,288.3L153.7,203.8L191.9,203.8C209.9,203.8 224.5,218.4 224.5,236.4L224.5,242.8L224.6,242.8ZM304.4,208.3L293,211.3L304.4,212.8L304.4,217.3L293,218.8L304.4,221.8L304.4,226.3L265.8,226.3C259.7,226.3 254.8,231.2 254.8,237.3L254.8,254.9C254.8,261 259.7,265.9 265.8,265.9L304.4,265.9L304.4,270.4L293,273.4L304.4,274.9L304.4,279.4L293,280.9L304.4,283.9L304.4,288.4L264.9,288.4C246.9,288.4 232.3,273.8 232.3,255.8L232.3,236.5C232.3,218.5 246.9,203.9 264.9,203.9L304.4,203.9L304.4,208.3ZM374.8,288.4L370.2,275L340,275L349.9,267.6L342.5,267.6L352.4,260.2L345,260.2L354.9,252.8L362.4,252.8L353.2,226.2L331.7,288.3L309.2,288.3L338.4,203.7L368.1,203.7L397.3,288.3L374.8,288.4Z" style="fill-rule:nonzero;"/>
        <path d="M123,508.5C123,510.2 122.3,510.9 120.6,510.9L87.7,510.9C86,510.9 85.3,510.2 85.3,508.5L85.3,460.1C85.3,458.4 86,457.7 87.7,457.7L119.8,457.7C121.5,457.7 122.2,458.4 122.2,460.1L122.2,466.1C122.2,467.8 121.5,468.5 119.8,468.5L99.6,468.5L99.6,478.1L118.5,478.1C120.2,478.1 120.9,478.8 120.9,480.5L120.9,486.2C120.9,487.9 120.2,488.6 118.5,488.6L99.6,488.6L99.6,500.1L120.5,500.1C122.2,500.1 122.9,500.8 122.9,502.5L123,508.5Z" style="fill-rule:nonzero;"/>
        <path d="M129.3,499.1C129.6,497.4 130.7,497.1 131.9,497.7C134,498.6 140.7,501.4 145.7,501.4C149.2,501.4 151.7,500 151.7,496.2C151.7,492.1 149.2,490.8 144.7,489.1C135.8,485.8 127.7,483 127.7,472.1C127.7,461.6 136.9,456.7 147.6,456.7C153.3,456.7 158,458.1 160.6,458.8C162.3,459.4 162.7,460.3 162.4,461.9L161,467.9C160.7,469.5 159.7,469.8 158.2,469.3C157.1,468.9 152.1,467.1 147.6,467.1C144,467.1 141.2,468.3 141.2,472.1C141.2,475.8 145.5,477.4 150.5,479.3C157.2,481.9 165.1,485.2 165.1,495.4C165.1,505.3 157.2,511.7 146.4,511.7C139.5,511.7 133.5,510.3 129.6,508.8C128.2,508.2 127.6,507 127.8,505.4L129.3,499.1Z" style="fill-rule:nonzero;"/>
        <path d="M184.9,483.9C184.9,497.9 191.3,500.9 199.4,500.9C202,500.9 205.8,500.5 207.3,500.3C209,500.1 209.7,500.8 209.8,502.4L210.1,507.9C210.2,509.6 209.5,510.4 207.9,510.7C205,511.2 200.5,511.7 196.6,511.7C182.4,511.7 170.4,505.9 170.3,484C170.3,463.1 183.7,456.6 197.1,456.6C201.8,456.6 205.7,457.6 208.6,458.4C210.3,458.9 210.9,459.8 210.6,461.4L209.4,466.7C209.1,468.3 208,468.8 206.5,468.4C204.3,467.8 201.2,467 198.1,467C190.7,467.2 184.9,471.1 184.9,483.9Z" style="fill-rule:nonzero;"/>
        <path d="M261.3,484.3C261.3,498.1 257.4,511.8 237.7,511.8C218.2,511.8 214.5,498.3 214.5,484.3C214.5,470.3 218.6,456.8 238,456.8C257.5,456.8 261.3,470.3 261.3,484.3ZM247.3,484.3C247.3,475.1 246.2,467.6 237.9,467.6C229.7,467.6 228.4,475.1 228.4,484.3C228.4,493.4 229.7,500.5 237.9,500.5C246.1,500.6 247.3,493.4 247.3,484.3Z" style="fill-rule:nonzero;"/>
        <path d="M303.9,508.5C303.9,510.2 303.2,510.9 301.5,510.9L271.1,510.9C269.4,510.9 268.7,510.2 268.7,508.5L268.7,460.1C268.7,458.4 269.4,457.7 271.1,457.7L280.6,457.7C282.3,457.7 283,458.4 283,460.1L283,500L301.5,500C303.2,500 303.9,500.7 303.9,502.4L303.9,508.5Z" style="fill-rule:nonzero;"/>
        <path d="M342.6,510.9C340.9,510.9 340,510.2 339.5,508.6L336.4,498.7L322.6,498.7L319.6,508.6C319.1,510.2 318.2,510.9 316.5,510.9L306.7,510.9C305,510.9 304.6,510.2 305.1,508.7L321.4,460C322,458.5 322.9,457.8 324.6,457.8L334.7,457.8C336.4,457.8 337.3,458.5 337.8,460.1L353.7,508.6C354.2,510.2 353.7,510.9 352,510.9L342.6,510.9ZM329.5,472.7L325.7,488.5L333.3,488.5L329.5,472.7Z" style="fill-rule:nonzero;"/>
        <path d="M370.8,499.1C371.1,497.4 372.2,497.1 373.4,497.7C375.5,498.6 382.2,501.4 387.2,501.4C390.7,501.4 393.2,500 393.2,496.2C393.2,492.1 390.7,490.8 386.2,489.1C377.3,485.8 369.2,483 369.2,472.1C369.2,461.6 378.4,456.7 389.1,456.7C394.8,456.7 399.5,458.1 402.1,458.8C403.8,459.4 404.2,460.3 403.9,461.9L402.5,467.9C402.2,469.5 401.2,469.8 399.7,469.3C398.6,468.9 393.6,467.1 389.1,467.1C385.5,467.1 382.7,468.3 382.7,472.1C382.7,475.8 387,477.4 392,479.3C398.7,481.9 406.6,485.2 406.6,495.4C406.6,505.3 398.7,511.7 387.9,511.7C381,511.7 375,510.3 371.1,508.8C369.7,508.2 369.1,507 369.3,505.4L370.8,499.1Z" style="fill-rule:nonzero;"/>
        <path d="M434.3,511.8C419,511.8 413.1,505.3 413.1,491.1L413.1,460.1C413.1,458.4 413.8,457.7 415.5,457.7L425.2,457.7C426.9,457.7 427.6,458.4 427.6,460.1L427.6,490.7C427.6,496.9 428.2,500.7 434.4,500.7C440.4,500.7 441.1,497.3 441.1,490.7L441.1,460.1C441.1,458.4 441.8,457.7 443.5,457.7L453.2,457.7C454.9,457.7 455.6,458.4 455.6,460.1L455.6,491.1C455.6,504.9 450.5,511.8 434.3,511.8Z" style="fill-rule:nonzero;"/>
        <path d="M464.6,461.4C464.6,459.7 465.3,458.9 467.1,458.5C469.9,457.9 476.5,457.1 482.6,457.1C493.6,457.1 504.2,460 504.2,475.2C504.2,487.5 496,492.7 485.3,492.7C483.2,492.7 481.1,492.5 478.9,492.1L478.9,508.3C478.9,510 478.2,510.7 476.5,510.7L466.9,510.7C465.2,510.7 464.5,510 464.5,508.3L464.6,461.4ZM478.9,482.9C480.1,483.1 481.3,483.1 482.5,483.1C486.8,483.1 490.4,481.8 490.4,475.7C490.4,468.8 486.3,467.3 482.6,467.3C481.3,467.3 480.1,467.4 478.9,467.6L478.9,482.9Z" style="fill-rule:nonzero;"/>
        <path d="M547.9,508.5C547.9,510.2 547.2,510.9 545.5,510.9L512.6,510.9C510.9,510.9 510.2,510.2 510.2,508.5L510.2,460.1C510.2,458.4 510.9,457.7 512.6,457.7L544.8,457.7C546.5,457.7 547.2,458.4 547.2,460.1L547.2,466.1C547.2,467.8 546.5,468.5 544.8,468.5L524.6,468.5L524.6,478.1L543.5,478.1C545.2,478.1 545.9,478.8 545.9,480.5L545.9,486.2C545.9,487.9 545.2,488.6 543.5,488.6L524.6,488.6L524.6,500.1L545.5,500.1C547.2,500.1 547.9,500.8 547.9,502.5L547.9,508.5Z" style="fill-rule:nonzero;"/>
        <path d="M555.5,461.3C555.5,459.6 556.4,458.8 558.1,458.4C560.7,457.9 567,457.1 573.5,457.1C584.5,457.1 595.1,460 595.1,475.2C595.1,483.9 591.2,489.1 585.3,491.6L596.7,508.8C597.7,510.2 597.3,510.8 595.7,510.8L585,510.8C583.3,510.8 582.2,510.2 581.4,508.7L572,493C571.1,492.9 570.5,492.8 569.8,492.7L569.8,508.4C569.8,510.1 569.1,510.8 567.4,510.8L557.9,510.8C556.2,510.8 555.5,510.1 555.5,508.4L555.5,461.3ZM569.8,483.5C571,483.6 572.3,483.7 573.4,483.7C577.7,483.7 581.3,482.3 581.3,475.6C581.3,468.7 577.2,467.2 573.5,467.2C572.1,467.2 571,467.2 569.8,467.4L569.8,483.5Z" style="fill-rule:nonzero;"/>
        <path d="M617.9,508.5C617.9,510.2 617.2,510.9 615.5,510.9L605.9,510.9C604.2,510.9 603.5,510.2 603.5,508.5L603.5,460.1C603.5,458.4 604.2,457.7 605.9,457.7L615.5,457.7C617.2,457.7 617.9,458.4 617.9,460.1L617.9,508.5Z" style="fill-rule:nonzero;"/>
        <path d="M672.2,484.3C672.2,498.1 668.3,511.8 648.6,511.8C629.1,511.8 625.4,498.3 625.4,484.3C625.4,470.3 629.5,456.8 648.9,456.8C668.4,456.8 672.2,470.3 672.2,484.3ZM658.2,484.3C658.2,475.1 657.1,467.6 648.8,467.6C640.6,467.6 639.3,475.1 639.3,484.3C639.3,493.4 640.6,500.5 648.8,500.5C657,500.6 658.2,493.4 658.2,484.3Z" style="fill-rule:nonzero;"/>
        <path d="M679.6,461.3C679.6,459.6 680.5,458.8 682.2,458.4C684.8,457.9 691.1,457.1 697.6,457.1C708.6,457.1 719.2,460 719.2,475.2C719.2,483.9 715.3,489.1 709.4,491.6L720.8,508.8C721.8,510.2 721.4,510.8 719.8,510.8L709.1,510.8C707.4,510.8 706.3,510.2 705.5,508.7L696.1,493C695.2,492.9 694.6,492.8 693.9,492.7L693.9,508.4C693.9,510.1 693.2,510.8 691.5,510.8L682,510.8C680.3,510.8 679.6,510.1 679.6,508.4L679.6,461.3ZM694,483.5C695.2,483.6 696.5,483.7 697.6,483.7C701.9,483.7 705.5,482.3 705.5,475.6C705.5,468.7 701.4,467.2 697.7,467.2C696.3,467.2 695.2,467.2 694,467.4L694,483.5Z" style="fill-rule:nonzero;"/>
        <path d="M103.5,591.1C95.7,591.1 91.6,590.5 87.4,589.9C85.9,589.7 85.3,588.9 85.3,587.2L85.3,541C85.3,539.3 86.2,538.5 87.8,538.2C92.3,537.6 98.4,536.9 103.9,536.9C117.5,536.9 128.9,541.6 128.9,564.4C128.9,586.8 116,591.1 103.5,591.1ZM99.6,579.8C100.7,579.9 101.9,579.9 102.7,579.9C112.5,579.9 114.7,574.1 114.7,564C114.7,554.3 113,547.6 103.8,547.6C102.5,547.6 101,547.7 99.6,547.8L99.6,579.8Z" style="fill-rule:nonzero;"/>
        <path d="M174.1,588.1C174.1,589.8 173.4,590.5 171.7,590.5L138.8,590.5C137.1,590.5 136.4,589.8 136.4,588.1L136.4,539.7C136.4,538 137.1,537.3 138.8,537.3L171,537.3C172.7,537.3 173.4,538 173.4,539.7L173.4,545.7C173.4,547.4 172.7,548.1 171,548.1L150.8,548.1L150.8,557.7L169.7,557.7C171.4,557.7 172.1,558.4 172.1,560.1L172.1,565.8C172.1,567.5 171.4,568.2 169.7,568.2L150.8,568.2L150.8,579.7L171.7,579.7C173.4,579.7 174.1,580.4 174.1,582.1L174.1,588.1Z" style="fill-rule:nonzero;"/>
        <path d="M214.8,591.1C207,591.1 202.9,590.5 198.7,589.9C197.2,589.7 196.6,588.9 196.6,587.2L196.6,541C196.6,539.3 197.5,538.5 199.1,538.2C203.6,537.6 209.7,536.9 215.2,536.9C228.8,536.9 240.2,541.6 240.2,564.4C240.2,586.8 227.3,591.1 214.8,591.1ZM210.9,579.8C212,579.9 213.2,579.9 214,579.9C223.8,579.9 226,574.1 226,564C226,554.3 224.3,547.6 215.1,547.6C213.8,547.6 212.3,547.7 210.9,547.8L210.9,579.8Z" style="fill-rule:nonzero;"/>
        <path d="M285.4,588.1C285.4,589.8 284.7,590.5 283,590.5L250.1,590.5C248.4,590.5 247.7,589.8 247.7,588.1L247.7,539.7C247.7,538 248.4,537.3 250.1,537.3L282.3,537.3C284,537.3 284.7,538 284.7,539.7L284.7,545.7C284.7,547.4 284,548.1 282.3,548.1L262,548.1L262,557.7L281,557.7C282.7,557.7 283.4,558.4 283.4,560.1L283.4,565.8C283.4,567.5 282.7,568.2 281,568.2L262,568.2L262,579.7L283,579.7C284.7,579.7 285.4,580.4 285.4,582.1L285.4,588.1Z" style="fill-rule:nonzero;"/>
        <path d="M291.7,578.7C292,577 293.1,576.7 294.3,577.3C296.4,578.2 303.1,581 308.1,581C311.6,581 314.1,579.6 314.1,575.8C314.1,571.7 311.6,570.4 307.1,568.7C298.2,565.4 290.1,562.6 290.1,551.7C290.1,541.2 299.3,536.3 310,536.3C315.7,536.3 320.4,537.7 323,538.4C324.7,539 325.1,539.9 324.8,541.5L323.4,547.5C323.1,549.1 322.1,549.4 320.6,548.9C319.5,548.5 314.5,546.7 310,546.7C306.4,546.7 303.6,547.9 303.6,551.7C303.6,555.4 307.9,557 312.9,558.9C319.6,561.5 327.5,564.8 327.5,575C327.5,584.9 319.6,591.3 308.8,591.3C301.9,591.3 295.9,589.9 292,588.4C290.6,587.8 290,586.6 290.3,585L291.7,578.7Z" style="fill-rule:nonzero;"/>
        <path d="M348.7,588.1C348.7,589.8 348,590.5 346.3,590.5L336.7,590.5C335,590.5 334.3,589.8 334.3,588.1L334.3,539.7C334.3,538 335,537.3 336.7,537.3L346.3,537.3C348,537.3 348.7,538 348.7,539.7L348.7,588.1Z" style="fill-rule:nonzero;"/>
        <path d="M383,536.4C387.6,536.4 392.3,537.4 395.4,538.2C397.1,538.7 397.5,539.6 397.2,541.1L396.1,546.4C395.8,548 394.8,548.5 393.2,548.1C390.9,547.5 387.2,546.7 384.1,546.7C376.9,546.7 370.8,550.4 370.8,563.5C370.8,576.9 375.7,580.6 383,580.6C384,580.6 385.1,580.5 386.3,580.4L386.3,565.8C386.3,564.1 387,563.4 388.7,563.4L397.1,563.4C398.8,563.4 399.5,564.1 399.5,565.8L399.5,586C399.5,587.7 399,588.5 397.2,589.1C392.4,590.5 387.6,591.2 381.7,591.2C368.3,591.2 356.3,585.4 356.2,563.7C356.7,542.8 369.6,536.4 383,536.4Z" style="fill-rule:nonzero;"/>
        <path d="M442.6,590.5C440.9,590.5 439.8,589.9 438.9,588.4L420.8,559L420.8,588.1C420.8,589.8 420.1,590.5 418.4,590.5L409.6,590.5C407.9,590.5 407.2,589.8 407.2,588.1L407.2,539.7C407.2,538 407.9,537.3 409.6,537.3L419.1,537.3C420.8,537.3 421.9,537.9 422.8,539.4L440.9,568.8L440.9,539.8C440.9,538.1 441.6,537.4 443.3,537.4L452.4,537.4C454.1,537.4 454.8,538.1 454.8,539.8L454.8,588.2C454.8,589.9 454.1,590.6 452.4,590.6L442.6,590.5Z" style="fill-rule:nonzero;"/>
    </g>
</svg>
