<?xml version="1.0" encoding="utf-8"?>
<!-- Generator: Adobe Illustrator 28.4.1, SVG Export Plug-In . SVG Version: 6.00 Build 0)  -->
<svg version="1.1" id="Layer_1" xmlns="http://www.w3.org/2000/svg" xmlns:xlink="http://www.w3.org/1999/xlink" x="0px" y="0px"
	 viewBox="0 0 528 248" style="enable-background:new 0 0 528 248;" xml:space="preserve">
<style type="text/css">
	.st0{fill:#FFFFFF;}
</style>
<path class="st0" d="M347.2,89.7h-24.9c-1.6,0-2.6,0.8-2.6,2.4V198c0,1.6,1,2.6,2.6,2.6h8.1c1.6,0,2.4-1,2.4-2.6v-41.1
	c0-1.1,1-2.4,2.4-2.4h13.2c20.9,0,31.7-12.3,31.7-33.3C380.2,100.3,366.5,89.7,347.2,89.7 M348.6,143h-12.1c-0.8,0-2.2-0.3-2.2-2.2
	v-37c0-1.6,0.8-2.4,2.4-2.4h12c12,0,19.5,5.6,19.5,19.9C368,135.6,361.5,143,348.6,143 M391,199.6C391,199.6,391,199.7,391,199.6
	c-0.1,0-0.2,0.1-0.2,0.1c-0.2,0-0.4-0.2-0.4-0.4s0.1-0.3,0.2-0.4l0,0h0.1 M262.4,60.6c0-8.5,6.9-15.4,15.7-15.4
	c8.5,0,15.4,6.9,15.4,15.4c0,8.7-6.9,15.7-15.4,15.7C269.3,76.3,262.4,69.4,262.4,60.6 M265.4,176V89.7h25.1v82.1
	c0,10,2.6,12.8,9,12.8c1.8,0,3.3-0.3,5.9-1l1,14.6c-3.9,2.1-9.2,4.1-18,4.1C274.4,202.4,265.4,196.7,265.4,176 M215.9,96.3v96.4
	l7.9,7.9h-22.1l-7.9-7.9V90h55.3v39.5L215.9,96.3z M190.6,90v102.7l-7.9,7.9h-22.1l7.9-7.9V96.3l-33.2,33.2V90H190.6z M135.9,189.4
	c-3.9,2.2-7.4,3.5-10.1,3.5c-7.2,0-8.1-8.1-8.1-20.4c0-12.1,1-27.8,1-37.2c0-12.6-1.7-23.9-8.4-32.5c-6.7-8.6-18.5-15-35.2-15
	c-23.6,0-42.8,13.1-42.8,32.3c0,10.1,5.4,16.5,12.8,16.5c6.2,0,10.8-4.4,10.8-10.8c-4.4-5.4-7.4-10.3-7.4-16.7
	c0-11.8,9.6-16.3,19.5-16.3c11.3,0,21.9,5.4,27.3,17.5c3,6.7,4.4,15.3,4.4,28.6c0,1.7,0,2.5-0.2,5.4c-5.2-0.7-11.8-1.5-19.7-1.5
	c-10.4,0-23.6,1.2-33.7,6.2c-11.1,5.4-18.7,15.8-18.7,28.3c0,15.8,12.3,25.9,31.3,25.9c11.1,0,19.9-3.5,27.6-10.6
	c5.7-5.2,9.9-11.6,12.6-19l1,0.2c-0.7,5.7-0.7,8.1-0.7,13.1c0,9.6,4.9,15.5,13.3,15.5c6.4,0,15.3-3.5,25.6-9.9L135.9,189.4z
	 M92.6,177.1c-6.2,12.6-15.5,19-25.6,19c-11.1,0-18.7-7.6-18.7-19.7c0-8.9,4.4-17.2,12.1-22.7c6.6-4.7,15.5-7.1,25.4-7.1
	c4.2,0,9.4,0.5,13.6,1.5C98.2,162.6,96,170,92.6,177.1"/>
<path class="st0" d="M492.8,94.9c-3.4-3.3-22.5-7.7-46.6-7.7c-25.6,0-42.7,4.7-45.7,7.6c-3.3,2.9-8.2,21-8.2,50.6
	c0,31.3,4.7,47.5,7.8,50.3c3.4,3.1,20.3,6.7,46.1,6.7c25.9,0,43.2-3.6,46.1-6.6c3.1-3.1,7.8-24.1,7.8-50.4
	C500.1,118.4,495.8,97.7,492.8,94.9 M468.8,173.5c-1.2,1.3-8.6,3.7-22.6,3.7c-13.7,0-21.2-2.4-22.5-3.7c-1.2-1.2-3.7-12.2-3.7-28.2
	c0-15.8,2.6-27.5,4-29.3c1.5-1.7,10.1-3.6,22.2-3.6c12.8,0,21,1.9,22.9,3.6c1.6,1.7,3.5,13.3,3.5,29.3
	C472.5,161.3,470.5,171.8,468.8,173.5"/>
</svg>
