<?xml version="1.0" encoding="utf-8"?>
<!-- Generator: Adobe Illustrator 28.4.1, SVG Export Plug-In . SVG Version: 6.00 Build 0)  -->
<svg version="1.2" baseProfile="tiny" id="Layer_1" xmlns="http://www.w3.org/2000/svg" xmlns:xlink="http://www.w3.org/1999/xlink"
	 x="0px" y="0px" viewBox="0 0 255.9 134.7" overflow="visible" xml:space="preserve">
<polygon fill="#FFFFFF" points="121.2,118 121.2,74.9 49.5,74.9 49.5,89.3 106.9,89.3 106.9,103.6 35.1,103.6 35.1,31.9 106.9,31.9 
	106.9,46.2 49.5,46.2 49.5,60.6 121.2,60.6 121.2,17.5 20.8,17.5 20.8,118 "/>
<g>
	<path fill="none" d="M165,98.1c-2.3,0-3.3,1.4-3.5,2.6h7C168.4,99.6,167.5,98.1,165,98.1z"/>
	<path fill="none" d="M145.6,63.6c-2.1,0-3.7,1.5-3.7,4.1s1.6,4.1,3.7,4.1c1.2,0,2.6-0.6,3.3-1.5v-5.1
		C148.2,64.2,146.8,63.6,145.6,63.6z"/>
	<path fill="none" d="M199.3,28.6c-2.1,0-3.7,1.6-3.7,4.1c0,2.5,1.6,4.1,3.7,4.1c1.2,0,2.6-0.6,3.3-1.5v-5.2
		C201.8,29.2,200.4,28.6,199.3,28.6z"/>
	<path fill="none" d="M210.8,100.1c-0.7-0.9-2.1-1.5-3.2-1.5c-2.1,0-3.7,1.3-3.7,3.7c0,2.5,1.6,3.8,3.7,3.8c1.1,0,2.6-0.6,3.2-1.5
		V100.1z"/>
	<path fill="none" d="M179.7,28.6c-2.1,0-3.7,1.5-3.7,4.1c0,2.5,1.6,4.1,3.7,4.1c1.2,0,2.6-0.6,3.3-1.5v-5.1
		C182.2,29.2,180.8,28.6,179.7,28.6z"/>
	<path fill="none" d="M145.4,28.1c-2.3,0-3.3,1.4-3.5,2.6h7C148.8,29.6,147.9,28.1,145.4,28.1z"/>
	<path fill="none" d="M148.9,100.1c-0.7-0.9-2.1-1.5-3.3-1.5c-2.1,0-3.7,1.6-3.7,4.1s1.6,4.1,3.7,4.1c1.2,0,2.6-0.6,3.3-1.5V100.1z"
		/>
	<path fill="none" d="M184.5,65.8h7c-0.1-1.2-1-2.6-3.5-2.6C185.6,63.1,184.7,64.5,184.5,65.8z"/>
	<path fill="#FFFFFF" d="M230.3,93.8c-2.9,0-4.9,1.3-5.9,2.5v-2.1H219v16.9h5.4v-10.9c0.6-0.8,1.7-1.6,3.3-1.6
		c1.7,0,2.8,0.7,2.8,2.8v9.8h5.4v-12C235.9,96,234.1,93.8,230.3,93.8z"/>
	<path fill="#FFFFFF" d="M173.7,103.2c0-5.7-3.6-9.4-8.6-9.4c-5.3,0-9,4-9,8.9c0,5.5,4,8.9,9.2,8.9c2.6,0,5.4-0.7,7.1-2.2l-2.3-3.5
		c-1,0.9-2.9,1.4-4.1,1.4c-2.5,0-3.9-1.3-4.2-2.8h12V103.2z M161.6,100.8c0.2-1.2,1.1-2.6,3.5-2.6c2.5,0,3.4,1.4,3.5,2.6H161.6z"/>
	<rect x="191.2" y="94.2" fill="#FFFFFF" width="5.4" height="16.9"/>
	<path fill="#FFFFFF" d="M206.5,113c-2,0-3.8-0.6-5.1-2l-2.3,3.7c2.2,1.8,4.6,2.5,7.5,2.5c4.2,0,9.7-1.5,9.7-8.3V94.2h-5.4v2
		c-1.4-1.7-3.1-2.4-5-2.4c-4.2,0-7.4,2.9-7.4,8.5c0,5.7,3.3,8.5,7.4,8.5c1.9,0,3.6-0.8,5-2.5v0.6C210.8,112.2,208.3,113,206.5,113z
		 M207.6,106.1c-2.1,0-3.7-1.3-3.7-3.8c0-2.5,1.6-3.7,3.7-3.7c1.1,0,2.6,0.6,3.2,1.5v4.5C210.1,105.5,208.7,106.1,207.6,106.1z"/>
	<path fill="#FFFFFF" d="M182,107.4c-2,0-4.7-1.2-5.9-2.3l-2.2,3.9c1.8,1.6,4.9,2.6,7.9,2.6c4.8,0,7.7-2.3,7.7-5.5
		c0-6.9-9.8-5-9.8-6.9c0-0.7,0.8-1.2,2.1-1.2c2,0,4,0.9,5,1.9l2.1-3.8c-1.8-1.3-4.2-2.2-7.1-2.2c-4.7,0-7.2,2.6-7.2,5.6
		c0,6.9,9.8,4.7,9.8,6.8C184.3,106.9,183.6,107.4,182,107.4z"/>
	<path fill="#FFFFFF" d="M154.3,111.1V88.6h-5.4v7.7c-1.3-1.7-3.1-2.4-5-2.4c-4.2,0-7.5,3.3-7.5,8.9c0,5.7,3.3,8.9,7.5,8.9
		c1.9,0,3.6-0.8,5-2.4v2H154.3z M145.6,106.8c-2.1,0-3.7-1.6-3.7-4.1s1.6-4.1,3.7-4.1c1.2,0,2.6,0.6,3.3,1.5v5.2
		C148.2,106.2,146.8,106.8,145.6,106.8z"/>
	<rect x="191.2" y="88.6" fill="#FFFFFF" width="5.4" height="4"/>
	<polygon fill="#FFFFFF" points="204.6,59.2 204.6,65.4 199.1,65.4 199.1,70.1 204.6,70.1 204.6,76.1 209.9,76.1 209.9,70.1 
		215.7,70.1 215.7,65.4 209.9,65.4 209.9,59.2 	"/>
	<path fill="#FFFFFF" d="M179,67.7c0,5.5,4,8.9,9.2,8.9c2.6,0,5.4-0.7,7.1-2.2l-2.3-3.5c-1,0.9-2.9,1.4-4.1,1.4
		c-2.5,0-3.9-1.3-4.2-2.8h12v-1.2c0-5.7-3.6-9.4-8.6-9.4C182.7,58.8,179,62.8,179,67.7z M191.5,65.8h-7c0.2-1.2,1.1-2.6,3.5-2.6
		C190.5,63.1,191.3,64.6,191.5,65.8z"/>
	<path fill="#FFFFFF" d="M157.2,59.2v16.9h5.4v-9.2c0-2.3,2.1-3,3.9-3v-5.1c-1.2,0-3.2,1.2-3.9,2.5v-2.1H157.2z"/>
	<path fill="#FFFFFF" d="M148.9,61.2c-1.3-1.7-3.1-2.4-5-2.4c-4.2,0-7.5,3.3-7.5,8.9c0,5.7,3.3,8.9,7.5,8.9c1.9,0,3.6-0.8,5-2.4v2
		h5.4V59.2h-5.4V61.2z M148.9,70.3c-0.7,0.9-2.1,1.5-3.3,1.5c-2.1,0-3.7-1.6-3.7-4.1s1.6-4.1,3.7-4.1c1.2,0,2.6,0.6,3.3,1.5V70.3z"
		/>
	<path fill="#FFFFFF" d="M169.2,59.2h-1.8v4.7h1.8v7.7c0,3.3,1.9,5,5.3,5c2,0,3.3-0.5,4-1.1l-1-4.1c-0.2,0.2-0.8,0.4-1.4,0.4
		c-0.9,0-1.5-0.7-1.5-1.7v-6.2h3.4v-4.7h-3.4v-6.5l-5.4,1.5V59.2z"/>
	<path fill="#FFFFFF" d="M182.9,26.2c-1.3-1.7-3.1-2.4-5-2.4c-4.2,0-7.5,3.3-7.5,8.9c0,5.7,3.3,8.9,7.5,8.9c1.9,0,3.6-0.8,5-2.4v2
		h5.4V24.2h-5.4V26.2z M182.9,35.3c-0.7,0.9-2.1,1.5-3.3,1.5c-2.1,0-3.7-1.6-3.7-4.1c0-2.5,1.6-4.1,3.7-4.1c1.2,0,2.6,0.6,3.3,1.5
		V35.3z"/>
	<path fill="#FFFFFF" d="M145.4,23.8c-5.3,0-9,4-9,8.9c0,5.5,4,8.9,9.2,8.9c2.6,0,5.4-0.7,7.1-2.2l-2.3-3.5c-1,0.9-2.9,1.4-4.1,1.4
		c-2.4,0-3.8-1.3-4.2-2.8h12v-1.2C154,27.5,150.4,23.8,145.4,23.8z M141.9,30.8c0.2-1.2,1.1-2.6,3.5-2.6c2.5,0,3.4,1.4,3.5,2.6
		H141.9z"/>
	<path fill="#FFFFFF" d="M202.5,26.2c-1.3-1.7-3.2-2.4-5-2.4c-4.2,0-7.5,3.3-7.5,8.9c0,5.7,3.3,8.9,7.5,8.9c1.9,0,3.6-0.8,5-2.4v2
		h5.4V18.6h-5.4V26.2z M202.5,35.3c-0.7,0.9-2.1,1.5-3.3,1.5c-2.1,0-3.7-1.6-3.7-4.1c0-2.5,1.6-4.1,3.7-4.1c1.2,0,2.6,0.6,3.3,1.5
		V35.3z"/>
	<path fill="#FFFFFF" d="M162.4,37.4c-2,0-4.7-1.2-6-2.3l-2.2,3.8c1.8,1.6,4.9,2.6,7.9,2.6c4.8,0,7.7-2.3,7.7-5.5
		c0-6.9-9.8-5-9.8-6.9c0-0.7,0.8-1.2,2.1-1.2c2,0,4,0.9,5,1.9l2.1-3.8c-1.8-1.3-4.2-2.2-7.1-2.2c-4.7,0-7.2,2.6-7.2,5.6
		c0,6.9,9.8,4.7,9.8,6.8C164.7,36.9,164,37.4,162.4,37.4z"/>
</g>
</svg>
