<?xml version="1.0" encoding="utf-8"?>
<!-- Generator: Adobe Illustrator 28.4.1, SVG Export Plug-In . SVG Version: 6.00 Build 0)  -->
<svg version="1.1" id="Camada_1" xmlns="http://www.w3.org/2000/svg" xmlns:xlink="http://www.w3.org/1999/xlink" x="0px" y="0px"
	 viewBox="0 0 88 123.5" style="enable-background:new 0 0 88 123.5;" xml:space="preserve">
<style type="text/css">
	.st0{fill:#FFFFFF;}
</style>
<g>
	<g>
		<path class="st0" d="M14.2,20.6h3.1v1.6h-3.1V24h3.4v1.6h-5.3v-8.2h5.3V19h-3.4C14.2,19,14.2,20.6,14.2,20.6z"/>
		<path class="st0" d="M23.9,17.6v1.6c-0.9-0.2-1.8-0.3-2.3-0.3c-0.8,0-1.1,0.2-1.1,0.7v0.2c0,1.2,3.7,0.1,3.7,3.2v0.2
			c0,1.6-1,2.5-3,2.5c-0.9,0-2-0.1-2.7-0.3v-1.6c0.8,0.2,1.8,0.3,2.5,0.3c1.1,0,1.3-0.4,1.3-0.8v-0.2c0-1.3-3.7-0.1-3.7-3.3v-0.2
			c0-1.4,1-2.2,2.9-2.2C22.4,17.3,23.2,17.4,23.9,17.6z"/>
		<path class="st0" d="M30.3,17.5v1.6c-0.8-0.2-1.2-0.2-1.8-0.2c-1.1,0-1.6,0.7-1.6,2v1.2c0,1.3,0.4,2,1.6,2c0.6,0,1-0.1,1.8-0.2
			v1.6c-0.5,0.1-1.2,0.2-1.9,0.2c-2.4,0-3.4-1.5-3.4-3.6v-1.2c0-2.1,1-3.6,3.4-3.6C29.1,17.3,29.8,17.4,30.3,17.5z"/>
		<path class="st0" d="M37.7,20.9v1.2c0,2.1-0.9,3.6-3.3,3.6c-2.4,0-3.3-1.5-3.3-3.6v-1.2c0-2.1,0.9-3.6,3.3-3.6
			C36.9,17.3,37.7,18.7,37.7,20.9z M33.1,20.9v1.2c0,1.4,0.2,2,1.4,2s1.4-0.6,1.4-2v-1.2c0-1.4-0.2-2-1.4-2S33.1,19.5,33.1,20.9z"/>
		<path class="st0" d="M40.8,24H44v1.6h-5.1v-8.2h1.9C40.8,17.4,40.8,24,40.8,24z"/>
		<path class="st0" d="M49.1,23.8h-2.3l-0.4,1.8h-2l2.3-8.2h2.6l2.3,8.2h-2L49.1,23.8z M48.7,22.2L48,19.3l-0.7,2.9H48.7z"/>
		<path class="st0" d="M17.3,32v1.6c-0.9-0.2-1.8-0.3-2.3-0.3c-0.8,0-1.1,0.2-1.1,0.7v0.2c0,1.2,3.7,0.1,3.7,3.2v0.2
			c0,1.6-1,2.5-3,2.5c-0.9,0-2-0.1-2.7-0.3v-1.6c0.8,0.2,1.8,0.3,2.5,0.3c1.1,0,1.3-0.4,1.3-0.8v-0.2c0-1.3-3.7-0.1-3.7-3.3V34
			c0-1.4,1-2.2,2.9-2.2C15.8,31.7,16.6,31.8,17.3,32z"/>
		<path class="st0" d="M24.8,37.2c0,2.2-1.3,2.8-3.1,2.8c-1.8,0-3.1-0.6-3.1-2.8v-5.4h1.9v5.4c0,0.7,0.3,1.2,1.2,1.2
			c1,0,1.2-0.5,1.2-1.2v-5.4h1.9V37.2z"/>
		<path class="st0" d="M32.2,34.5v0.3c0,1.9-1.1,2.7-3,2.7H28V40h-1.9v-8.2h3.1C31.1,31.8,32.2,32.6,32.2,34.5z M28.1,33.4v2.5h1.2
			c0.6,0,0.9-0.3,0.9-1.1v-0.3c0-0.8-0.3-1.1-0.9-1.1C29.3,33.4,28.1,33.4,28.1,33.4z"/>
		<path class="st0" d="M35.3,35h3.1v1.6h-3.1v1.7h3.4V40h-5.3v-8.2h5.3v1.6h-3.4V35z"/>
		<path class="st0" d="M44.2,40l-1.4-2.7h-1V40h-1.9v-8.2H43c1.9,0,3,0.8,3,2.5v0.2c0,1.1-0.5,1.7-1.2,2.1l1.6,3.3h-2.2V40z
			 M41.8,35.6h1.3c0.6,0,0.9-0.2,0.9-1v-0.2c0-0.8-0.3-1-0.9-1h-1.3V35.6z"/>
		<path class="st0" d="M47.2,40v-8.2h1.9V40H47.2z"/>
		<path class="st0" d="M56.9,35.3v1.2c0,2.1-0.9,3.6-3.3,3.6c-2.4,0-3.3-1.5-3.3-3.6v-1.2c0-2.1,0.9-3.6,3.3-3.6
			C56,31.7,56.9,33.1,56.9,35.3z M52.2,35.3v1.2c0,1.4,0.2,2,1.4,2s1.4-0.6,1.4-2v-1.2c0-1.4-0.2-2-1.4-2
			C52.5,33.3,52.2,33.9,52.2,35.3z"/>
		<path class="st0" d="M62.4,40L61,37.2h-1V40h-1.9v-8.2h3.1c1.9,0,3,0.8,3,2.5v0.2c0,1.1-0.5,1.7-1.2,2.1l1.6,3.3h-2.2V40z
			 M60,35.6h1.3c0.6,0,0.9-0.2,0.9-1v-0.2c0-0.8-0.3-1-0.9-1H60V35.6z"/>
		<path class="st0" d="M15.2,46.2c2.4,0,3.3,1.4,3.3,3.5v1.2c0,2.1-0.9,3.5-3.3,3.5h-3v-8.2H15.2z M14.2,47.8v4.9h1
			c1.2,0,1.4-0.6,1.4-1.9v-1.2c0-1.3-0.2-1.9-1.4-1.9h-1V47.8z"/>
		<path class="st0" d="M21.6,49.4h3.1V51h-3.1v1.7H25v1.6h-5.3v-8.2H25v1.6h-3.4V49.4z"/>
		<path class="st0" d="M36.3,54.4h-1.9v-4.8L33,54.5h-1.4l-1.4-4.9v4.8h-1.8v-8.2H31l1.5,4.9l1.3-4.9h2.6L36.3,54.4L36.3,54.4z"/>
		<path class="st0" d="M39.6,49.4h3.1V51h-3.1v1.7H43v1.6h-5.3v-8.2H43v1.6h-3.4V49.4z"/>
		<path class="st0" d="M47.2,46.2c2.4,0,3.3,1.4,3.3,3.5v1.2c0,2.1-0.9,3.5-3.3,3.5h-3v-8.2H47.2z M46.2,47.8v4.9h1
			c1.2,0,1.4-0.6,1.4-1.9v-1.2c0-1.3-0.2-1.9-1.4-1.9h-1V47.8z"/>
		<path class="st0" d="M51.7,54.4v-8.2h1.9v8.2H51.7z"/>
		<path class="st0" d="M59.1,52.6h-2.3l-0.4,1.8h-2l2.3-8.2h2.6l2.3,8.2h-2L59.1,52.6z M58.7,51L58,48.2L57.3,51H58.7z"/>
		<path class="st0" d="M16.4,67h-2.3l-0.4,1.8h-2l2.3-8.2h2.6l2.3,8.2h-2L16.4,67z M16,65.4l-0.7-2.9l-0.7,2.9H16z"/>
		<path class="st0" d="M24,68.8L22.6,66h-1v2.7h-1.9v-8.2h3.1c1.9,0,3,0.8,3,2.5v0.2c0,1.1-0.5,1.7-1.2,2.1l1.6,3.3H24V68.8z
			 M21.6,64.4h1.3c0.6,0,0.9-0.2,0.9-1v-0.2c0-0.8-0.3-1-0.9-1h-1.3V64.4z"/>
		<path class="st0" d="M32.5,62.2h-2.1v6.5h-1.9v-6.5h-2.1v-1.6h6L32.5,62.2L32.5,62.2z"/>
		<path class="st0" d="M35.4,63.8h3.1v1.6h-3.1v1.7h3.4v1.6h-5.3v-8.2h5.3v1.6h-3.4V63.8z"/>
		<path class="st0" d="M45.2,60.8v1.6c-0.9-0.2-1.8-0.3-2.3-0.3c-0.8,0-1.1,0.2-1.1,0.7V63c0,1.2,3.7,0.1,3.7,3.2v0.2
			c0,1.6-1,2.5-3,2.5c-0.9,0-2-0.1-2.7-0.3V67c0.8,0.2,1.8,0.3,2.5,0.3c1.1,0,1.3-0.4,1.3-0.8v-0.2c0-1.3-3.7-0.1-3.7-3.3v-0.2
			c0-1.4,1-2.2,2.9-2.2C43.6,60.5,44.5,60.6,45.2,60.8z"/>
		<path class="st0" d="M14.2,78.2h3.1v1.6h-3.1v1.7h3.4v1.6h-5.3V75h5.3v1.6h-3.4C14.2,76.6,14.2,78.2,14.2,78.2z"/>
		<path class="st0" d="M23.8,75c2.4,0,3.3,1.4,3.3,3.5v1.2c0,2.1-0.9,3.5-3.3,3.5h-3V75H23.8z M22.8,76.6v4.9h1
			c1.2,0,1.4-0.6,1.4-1.9v-1.2c0-1.3-0.2-1.9-1.4-1.9L22.8,76.6L22.8,76.6z"/>
		<path class="st0" d="M30.2,78.2h3.1v1.6h-3.1v1.7h3.4v1.6h-5.3V75h5.3v1.6h-3.4C30.2,76.6,30.2,78.2,30.2,78.2z"/>
		<path class="st0" d="M40,75.2v1.6c-0.9-0.2-1.8-0.3-2.3-0.3c-0.8,0-1.1,0.2-1.1,0.7v0.2c0,1.2,3.7,0.1,3.7,3.2v0.2
			c0,1.6-1,2.5-3,2.5c-0.9,0-2-0.1-2.7-0.3v-1.6c0.8,0.2,1.8,0.3,2.5,0.3c1.1,0,1.3-0.4,1.3-0.8v-0.2c0-1.3-3.7-0.1-3.7-3.3v-0.2
			c0-1.4,1-2.2,2.9-2.2C38.4,74.9,39.2,75,40,75.2z"/>
		<path class="st0" d="M41.3,83.2V75h1.9v8.2H41.3z"/>
		<path class="st0" d="M50.3,78.7V83c-0.9,0.2-1.9,0.3-2.5,0.3c-2.4,0-3.4-1.5-3.4-3.6v-1.2c0-2.1,1-3.6,3.6-3.6
			c0.7,0,1.7,0.1,2.2,0.2v1.6c-0.8-0.2-1.5-0.2-2.1-0.2c-1.4,0-1.8,0.7-1.8,2v1.2c0,1.3,0.4,2,1.6,2c0.1,0,0.3,0,0.5,0v-1.4h-0.9
			v-1.6C47.5,78.7,50.3,78.7,50.3,78.7z"/>
		<path class="st0" d="M58.1,83.2h-1.8l-2.8-4.8v4.8h-1.8V75h1.9l2.7,4.8V75h1.8C58.1,75,58.1,83.2,58.1,83.2z"/>
		<path class="st0" d="M18,92v0.3c0,1.7-1,2.6-2.9,2.6h-1.5v2.7h-1.2v-8.2h2.7C17,89.4,18,90.2,18,92z M13.6,90.4v3.4h1.6
			c1.1,0,1.6-0.5,1.6-1.6V92c0-1.1-0.5-1.6-1.6-1.6H13.6z"/>
		<path class="st0" d="M25.2,92.9v1.2c0,2-0.7,3.6-3.1,3.6S19,96.1,19,94.1v-1.2c0-2,0.7-3.6,3.1-3.6S25.2,90.8,25.2,92.9z
			 M20.3,92.9v1.2c0,1.5,0.3,2.6,1.9,2.6s1.9-1.1,1.9-2.6v-1.2c0-1.5-0.3-2.6-1.9-2.6C20.5,90.3,20.3,91.4,20.3,92.9z"/>
		<path class="st0" d="M27.8,96.5h3.5v1h-4.7v-8.2h1.2V96.5z"/>
		<path class="st0" d="M32.5,97.6v-8.2h1.2v8.2H32.5z"/>
		<path class="st0" d="M40.4,90.4h-2.2v7.1H37v-7.1h-2.2v-1h5.6C40.4,89.4,40.4,90.4,40.4,90.4z"/>
		<path class="st0" d="M42.8,92.9h3.5v1h-3.5v2.7h3.7v1h-4.9v-8.2h4.9v1h-3.7V92.9z M43.7,88.6l1.2-1.8h1.2l-1.6,1.8H43.7z"/>
		<path class="st0" d="M52.8,89.5v1c-0.8-0.2-1.2-0.2-1.9-0.2c-1.6,0-2,1.1-2,2.6v1.2c0,1.5,0.4,2.6,2,2.6c0.6,0,1.1-0.1,1.9-0.2v1
			c-0.5,0.1-1.1,0.2-1.9,0.2c-2.4,0-3.1-1.6-3.1-3.6v-1.2c0-2,0.8-3.6,3.1-3.6C51.6,89.3,52.3,89.4,52.8,89.5z"/>
		<path class="st0" d="M59.9,97.6h-1.1l-3.7-6.1v6.1H54v-8.2h1.2l3.6,6.1v-6.1h1.1C59.9,89.4,59.9,97.6,59.9,97.6z"/>
		<path class="st0" d="M61.6,97.6v-8.2h1.2v8.2H61.6z"/>
		<path class="st0" d="M69.3,89.5v1c-0.8-0.2-1.2-0.2-1.9-0.2c-1.6,0-2,1.1-2,2.6v1.2c0,1.5,0.4,2.6,2,2.6c0.6,0,1.1-0.1,1.9-0.2v1
			c-0.5,0.1-1.1,0.2-1.9,0.2c-2.4,0-3.1-1.6-3.1-3.6v-1.2c0-2,0.8-3.6,3.1-3.6C68.2,89.3,68.8,89.4,69.3,89.5z"/>
		<path class="st0" d="M76.3,92.9v1.2c0,2-0.7,3.6-3.1,3.6s-3.1-1.6-3.1-3.6v-1.2c0-2,0.7-3.6,3.1-3.6
			C75.6,89.3,76.3,90.8,76.3,92.9z M71.4,92.9v1.2c0,1.5,0.3,2.6,1.9,2.6s1.9-1.1,1.9-2.6v-1.2c0-1.5-0.3-2.6-1.9-2.6
			C71.7,90.3,71.4,91.4,71.4,92.9z"/>
		<path class="st0" d="M15.1,103.8c2.4,0,3.1,1.5,3.1,3.5v1.2c0,2-0.7,3.5-3.1,3.5h-2.7v-8.2H15.1z M13.6,104.8v6.1h1.5
			c1.6,0,1.9-1,1.9-2.5v-1.2c0-1.5-0.3-2.5-1.9-2.5L13.6,104.8L13.6,104.8z"/>
		<path class="st0" d="M25.6,107.3v1.2c0,2-0.7,3.6-3.1,3.6s-3.1-1.6-3.1-3.6v-1.2c0-2,0.7-3.6,3.1-3.6
			C24.9,103.7,25.6,105.2,25.6,107.3z M20.7,107.3v1.2c0,1.5,0.3,2.6,1.9,2.6s1.9-1.1,1.9-2.6v-1.2c0-1.5-0.3-2.6-1.9-2.6
			C21,104.7,20.7,105.8,20.7,107.3z"/>
		<path class="st0" d="M34.8,106.4v0.3c0,1.7-1,2.6-2.9,2.6h-1.5v2.7h-1.2v-8.2h2.7C33.8,103.8,34.8,104.6,34.8,106.4z M30.4,104.8
			v3.4H32c1.1,0,1.6-0.5,1.6-1.6v-0.3c0-1.1-0.5-1.6-1.6-1.6L30.4,104.8L30.4,104.8z"/>
		<path class="st0" d="M42,107.3v1.2c0,2-0.7,3.6-3.1,3.6c-2.4,0-3.1-1.6-3.1-3.6v-1.2c0-2,0.7-3.6,3.1-3.6
			C41.3,103.7,42,105.2,42,107.3z M37.1,107.3v1.2c0,1.5,0.3,2.6,1.9,2.6c1.6,0,1.9-1.1,1.9-2.6v-1.2c0-1.5-0.3-2.6-1.9-2.6
			C37.4,104.7,37.1,105.8,37.1,107.3z"/>
		<path class="st0" d="M48,112l-1.9-3.1h-1.5v3.1h-1.2v-8.2h2.7c1.8,0,2.8,0.7,2.8,2.4v0.2c0,1.3-0.7,1.9-1.6,2.2l2,3.3L48,112
			L48,112z M44.7,107.9h1.6c1,0,1.6-0.4,1.6-1.4v-0.2c0-1-0.5-1.4-1.6-1.4h-1.6V107.9z"/>
		<path class="st0" d="M55.6,104.8h-2.2v7.1h-1.2v-7.1H50v-1h5.6V104.8z"/>
		<path class="st0" d="M62.3,107.3v1.2c0,2-0.7,3.6-3.1,3.6c-2.4,0-3.1-1.6-3.1-3.6v-1.2c0-2,0.7-3.6,3.1-3.6
			C61.6,103.7,62.3,105.2,62.3,107.3z M57.4,107.3v1.2c0,1.5,0.3,2.6,1.9,2.6c1.6,0,1.9-1.1,1.9-2.6v-1.2c0-1.5-0.3-2.6-1.9-2.6
			C57.7,104.7,57.4,105.8,57.4,107.3z"/>
	</g>
	<g>
		<rect x="11.5" y="7.5" class="st0" width="17.9" height="1"/>
	</g>
</g>
</svg>
