<?xml version="1.0" encoding="utf-8"?>
<!-- Generator: Adobe Illustrator 28.4.1, SVG Export Plug-In . SVG Version: 6.00 Build 0)  -->
<svg version="1.1" id="Layer_1" xmlns="http://www.w3.org/2000/svg" xmlns:xlink="http://www.w3.org/1999/xlink" x="0px" y="0px"
	 viewBox="0 0 800 683.3" style="enable-background:new 0 0 800 683.3;" xml:space="preserve">
<style type="text/css">
	.st0{fill:#FFFFFF;}
</style>
<g>
	<g>
		<path class="st0" d="M586.6,333.6c51.2,0,92.9-40.7,92.9-90.7c0-48-39.9-84.2-92.9-84.2h-52.8l-28.6,28.1h80.1
			c36,0,65.3,19.8,65.3,54.9s-29.3,63.7-65.3,63.7H565v28.1L586.6,333.6L586.6,333.6z"/>
		<path class="st0" d="M585.3,119.3h-80.2l28.6,28.1h52.8c59.4,0,104.2,41.1,104.2,95.5c0,56.2-46.7,101.9-104.2,101.9h-32.8v-39.4
			h-23.4V373h33.8l0,0h21.2c74,0,134.2-58.9,134.2-131.2C719.5,169.4,659.3,119.3,585.3,119.3z"/>
		<g>
			<polygon class="st0" points="519,305.4 495.6,320.3 495.6,358.1 519,373 			"/>
			<polygon class="st0" points="465.9,339.2 484.4,351 484.4,327.5 			"/>
		</g>
	</g>
	<path class="st0" d="M85.3,77v338.2h338.3V77H85.3z M140.3,217.2h-3.9v9.6h3.9v9.6h-3.9v9.6h3.9v9.6h-3.9v9.6h3.9v9.6h-3.9v6.7h3.9
		v6.7h-28.7V275h3.9v-9.6h-3.9v-9.6h3.9v-9.6h-3.9v-9.6h3.9V227h-3.9v-9.6h3.9v-6.7h-3.9V204h28.7V217.2z M224.6,242.8
		c0,18-14.6,32.6-32.6,32.6h-11.2v-22.5h10.3h11.2v-26.6h-11.2h-14.9v26.6v35.4H169h-2.2h-13.1v-75.2v-9.3h9.3h25.5h0.2h3.2
		c18,0,32.6,14.6,32.6,32.6l0,0l0,0v6.4H224.6z M304.4,208.3l-11.4,3l11.4,1.5v4.5l-11.4,1.5l11.4,3v4.5h-38.6c-6.1,0-11,4.9-11,11
		v17.6c0,6.1,4.9,11,11,11h38.6v4.5l-11.4,3l11.4,1.5v4.5l-11.4,1.5l11.4,3v4.5h-39.5c-18,0-32.6-14.6-32.6-32.6v-19.3
		c0-18,14.6-32.6,32.6-32.6h35.6h3.9V208.3z M374.8,288.4l-4.6-13.4H340l9.9-7.4h-7.4l9.9-7.4H345l9.9-7.4h7.5l-9.2-26.6l-21.5,62.1
		h-22.5l29.2-84.6h7.1H361h7.1l29.2,84.6L374.8,288.4L374.8,288.4z"/>
</g>
<g>
	<g>
		<path class="st0" d="M123,508.5c0,1.7-0.7,2.4-2.4,2.4H87.7c-1.7,0-2.4-0.7-2.4-2.4v-48.4c0-1.7,0.7-2.4,2.4-2.4h32.1
			c1.7,0,2.4,0.7,2.4,2.4v6c0,1.7-0.7,2.4-2.4,2.4H99.6v9.6h18.9c1.7,0,2.4,0.7,2.4,2.4v5.7c0,1.7-0.7,2.4-2.4,2.4H99.6v11.5h20.9
			c1.7,0,2.4,0.7,2.4,2.4L123,508.5L123,508.5z"/>
		<path class="st0" d="M129.3,499.1c0.3-1.7,1.4-2,2.6-1.4c2.1,0.9,8.8,3.7,13.8,3.7c3.5,0,6-1.4,6-5.2c0-4.1-2.5-5.4-7-7.1
			c-8.9-3.3-17-6.1-17-17c0-10.5,9.2-15.4,19.9-15.4c5.7,0,10.4,1.4,13,2.1c1.7,0.6,2.1,1.5,1.8,3.1l-1.4,6
			c-0.3,1.6-1.3,1.9-2.8,1.4c-1.1-0.4-6.1-2.2-10.6-2.2c-3.6,0-6.4,1.2-6.4,5c0,3.7,4.3,5.3,9.3,7.2c6.7,2.6,14.6,5.9,14.6,16.1
			c0,9.9-7.9,16.3-18.7,16.3c-6.9,0-12.9-1.4-16.8-2.9c-1.4-0.6-2-1.8-1.8-3.4L129.3,499.1z"/>
		<path class="st0" d="M184.9,483.9c0,14,6.4,17,14.5,17c2.6,0,6.4-0.4,7.9-0.6c1.7-0.2,2.4,0.5,2.5,2.1l0.3,5.5
			c0.1,1.7-0.6,2.5-2.2,2.8c-2.9,0.5-7.4,1-11.3,1c-14.2,0-26.2-5.8-26.3-27.7c0-20.9,13.4-27.4,26.8-27.4c4.7,0,8.6,1,11.5,1.8
			c1.7,0.5,2.3,1.4,2,3l-1.2,5.3c-0.3,1.6-1.4,2.1-2.9,1.7c-2.2-0.6-5.3-1.4-8.4-1.4C190.7,467.2,184.9,471.1,184.9,483.9z"/>
		<path class="st0" d="M261.3,484.3c0,13.8-3.9,27.5-23.6,27.5c-19.5,0-23.2-13.5-23.2-27.5s4.1-27.5,23.5-27.5
			C257.5,456.8,261.3,470.3,261.3,484.3z M247.3,484.3c0-9.2-1.1-16.7-9.4-16.7c-8.2,0-9.5,7.5-9.5,16.7c0,9.1,1.3,16.2,9.5,16.2
			C246.1,500.6,247.3,493.4,247.3,484.3z"/>
		<path class="st0" d="M303.9,508.5c0,1.7-0.7,2.4-2.4,2.4h-30.4c-1.7,0-2.4-0.7-2.4-2.4v-48.4c0-1.7,0.7-2.4,2.4-2.4h9.5
			c1.7,0,2.4,0.7,2.4,2.4V500h18.5c1.7,0,2.4,0.7,2.4,2.4V508.5z"/>
		<path class="st0" d="M342.6,510.9c-1.7,0-2.6-0.7-3.1-2.3l-3.1-9.9h-13.8l-3,9.9c-0.5,1.6-1.4,2.3-3.1,2.3h-9.8
			c-1.7,0-2.1-0.7-1.6-2.2l16.3-48.7c0.6-1.5,1.5-2.2,3.2-2.2h10.1c1.7,0,2.6,0.7,3.1,2.3l15.9,48.5c0.5,1.6,0,2.3-1.7,2.3
			L342.6,510.9L342.6,510.9z M329.5,472.7l-3.8,15.8h7.6L329.5,472.7z"/>
		<path class="st0" d="M370.8,499.1c0.3-1.7,1.4-2,2.6-1.4c2.1,0.9,8.8,3.7,13.8,3.7c3.5,0,6-1.4,6-5.2c0-4.1-2.5-5.4-7-7.1
			c-8.9-3.3-17-6.1-17-17c0-10.5,9.2-15.4,19.9-15.4c5.7,0,10.4,1.4,13,2.1c1.7,0.6,2.1,1.5,1.8,3.1l-1.4,6
			c-0.3,1.6-1.3,1.9-2.8,1.4c-1.1-0.4-6.1-2.2-10.6-2.2c-3.6,0-6.4,1.2-6.4,5c0,3.7,4.3,5.3,9.3,7.2c6.7,2.6,14.6,5.9,14.6,16.1
			c0,9.9-7.9,16.3-18.7,16.3c-6.9,0-12.9-1.4-16.8-2.9c-1.4-0.6-2-1.8-1.8-3.4L370.8,499.1z"/>
		<path class="st0" d="M434.3,511.8c-15.3,0-21.2-6.5-21.2-20.7v-31c0-1.7,0.7-2.4,2.4-2.4h9.7c1.7,0,2.4,0.7,2.4,2.4v30.6
			c0,6.2,0.6,10,6.8,10c6,0,6.7-3.4,6.7-10v-30.6c0-1.7,0.7-2.4,2.4-2.4h9.7c1.7,0,2.4,0.7,2.4,2.4v31
			C455.6,504.9,450.5,511.8,434.3,511.8z"/>
		<path class="st0" d="M464.6,461.4c0-1.7,0.7-2.5,2.5-2.9c2.8-0.6,9.4-1.4,15.5-1.4c11,0,21.6,2.9,21.6,18.1
			c0,12.3-8.2,17.5-18.9,17.5c-2.1,0-4.2-0.2-6.4-0.6v16.2c0,1.7-0.7,2.4-2.4,2.4h-9.6c-1.7,0-2.4-0.7-2.4-2.4L464.6,461.4
			L464.6,461.4z M478.9,482.9c1.2,0.2,2.4,0.2,3.6,0.2c4.3,0,7.9-1.3,7.9-7.4c0-6.9-4.1-8.4-7.8-8.4c-1.3,0-2.5,0.1-3.7,0.3V482.9z"
			/>
		<path class="st0" d="M547.9,508.5c0,1.7-0.7,2.4-2.4,2.4h-32.9c-1.7,0-2.4-0.7-2.4-2.4v-48.4c0-1.7,0.7-2.4,2.4-2.4h32.2
			c1.7,0,2.4,0.7,2.4,2.4v6c0,1.7-0.7,2.4-2.4,2.4h-20.2v9.6h18.9c1.7,0,2.4,0.7,2.4,2.4v5.7c0,1.7-0.7,2.4-2.4,2.4h-18.9v11.5h20.9
			c1.7,0,2.4,0.7,2.4,2.4V508.5z"/>
		<path class="st0" d="M555.5,461.3c0-1.7,0.9-2.5,2.6-2.9c2.6-0.5,8.9-1.3,15.4-1.3c11,0,21.6,2.9,21.6,18.1
			c0,8.7-3.9,13.9-9.8,16.4l11.4,17.2c1,1.4,0.6,2-1,2H585c-1.7,0-2.8-0.6-3.6-2.1L572,493c-0.9-0.1-1.5-0.2-2.2-0.3v15.7
			c0,1.7-0.7,2.4-2.4,2.4h-9.5c-1.7,0-2.4-0.7-2.4-2.4L555.5,461.3L555.5,461.3z M569.8,483.5c1.2,0.1,2.5,0.2,3.6,0.2
			c4.3,0,7.9-1.4,7.9-8.1c0-6.9-4.1-8.4-7.8-8.4c-1.4,0-2.5,0-3.7,0.2V483.5z"/>
		<path class="st0" d="M617.9,508.5c0,1.7-0.7,2.4-2.4,2.4h-9.6c-1.7,0-2.4-0.7-2.4-2.4v-48.4c0-1.7,0.7-2.4,2.4-2.4h9.6
			c1.7,0,2.4,0.7,2.4,2.4V508.5z"/>
		<path class="st0" d="M672.2,484.3c0,13.8-3.9,27.5-23.6,27.5c-19.5,0-23.2-13.5-23.2-27.5s4.1-27.5,23.5-27.5
			C668.4,456.8,672.2,470.3,672.2,484.3z M658.2,484.3c0-9.2-1.1-16.7-9.4-16.7c-8.2,0-9.5,7.5-9.5,16.7c0,9.1,1.3,16.2,9.5,16.2
			C657,500.6,658.2,493.4,658.2,484.3z"/>
		<path class="st0" d="M679.6,461.3c0-1.7,0.9-2.5,2.6-2.9c2.6-0.5,8.9-1.3,15.4-1.3c11,0,21.6,2.9,21.6,18.1
			c0,8.7-3.9,13.9-9.8,16.4l11.4,17.2c1,1.4,0.6,2-1,2h-10.7c-1.7,0-2.8-0.6-3.6-2.1l-9.4-15.7c-0.9-0.1-1.5-0.2-2.2-0.3v15.7
			c0,1.7-0.7,2.4-2.4,2.4H682c-1.7,0-2.4-0.7-2.4-2.4V461.3z M694,483.5c1.2,0.1,2.5,0.2,3.6,0.2c4.3,0,7.9-1.4,7.9-8.1
			c0-6.9-4.1-8.4-7.8-8.4c-1.4,0-2.5,0-3.7,0.2V483.5z"/>
		<path class="st0" d="M103.5,591.1c-7.8,0-11.9-0.6-16.1-1.2c-1.5-0.2-2.1-1-2.1-2.7V541c0-1.7,0.9-2.5,2.5-2.8
			c4.5-0.6,10.6-1.3,16.1-1.3c13.6,0,25,4.7,25,27.5C128.9,586.8,116,591.1,103.5,591.1z M99.6,579.8c1.1,0.1,2.3,0.1,3.1,0.1
			c9.8,0,12-5.8,12-15.9c0-9.7-1.7-16.4-10.9-16.4c-1.3,0-2.8,0.1-4.2,0.2V579.8z"/>
		<path class="st0" d="M174.1,588.1c0,1.7-0.7,2.4-2.4,2.4h-32.9c-1.7,0-2.4-0.7-2.4-2.4v-48.4c0-1.7,0.7-2.4,2.4-2.4H171
			c1.7,0,2.4,0.7,2.4,2.4v6c0,1.7-0.7,2.4-2.4,2.4h-20.2v9.6h18.9c1.7,0,2.4,0.7,2.4,2.4v5.7c0,1.7-0.7,2.4-2.4,2.4h-18.9v11.5h20.9
			c1.7,0,2.4,0.7,2.4,2.4L174.1,588.1L174.1,588.1z"/>
		<path class="st0" d="M214.8,591.1c-7.8,0-11.9-0.6-16.1-1.2c-1.5-0.2-2.1-1-2.1-2.7V541c0-1.7,0.9-2.5,2.5-2.8
			c4.5-0.6,10.6-1.3,16.1-1.3c13.6,0,25,4.7,25,27.5C240.2,586.8,227.3,591.1,214.8,591.1z M210.9,579.8c1.1,0.1,2.3,0.1,3.1,0.1
			c9.8,0,12-5.8,12-15.9c0-9.7-1.7-16.4-10.9-16.4c-1.3,0-2.8,0.1-4.2,0.2L210.9,579.8L210.9,579.8z"/>
		<path class="st0" d="M285.4,588.1c0,1.7-0.7,2.4-2.4,2.4h-32.9c-1.7,0-2.4-0.7-2.4-2.4v-48.4c0-1.7,0.7-2.4,2.4-2.4h32.2
			c1.7,0,2.4,0.7,2.4,2.4v6c0,1.7-0.7,2.4-2.4,2.4H262v9.6h19c1.7,0,2.4,0.7,2.4,2.4v5.7c0,1.7-0.7,2.4-2.4,2.4h-19v11.5h21
			c1.7,0,2.4,0.7,2.4,2.4V588.1z"/>
		<path class="st0" d="M291.7,578.7c0.3-1.7,1.4-2,2.6-1.4c2.1,0.9,8.8,3.7,13.8,3.7c3.5,0,6-1.4,6-5.2c0-4.1-2.5-5.4-7-7.1
			c-8.9-3.3-17-6.1-17-17c0-10.5,9.2-15.4,19.9-15.4c5.7,0,10.4,1.4,13,2.1c1.7,0.6,2.1,1.5,1.8,3.1l-1.4,6
			c-0.3,1.6-1.3,1.9-2.8,1.4c-1.1-0.4-6.1-2.2-10.6-2.2c-3.6,0-6.4,1.2-6.4,5c0,3.7,4.3,5.3,9.3,7.2c6.7,2.6,14.6,5.9,14.6,16.1
			c0,9.9-7.9,16.3-18.7,16.3c-6.9,0-12.9-1.4-16.8-2.9c-1.4-0.6-2-1.8-1.7-3.4L291.7,578.7z"/>
		<path class="st0" d="M348.7,588.1c0,1.7-0.7,2.4-2.4,2.4h-9.6c-1.7,0-2.4-0.7-2.4-2.4v-48.4c0-1.7,0.7-2.4,2.4-2.4h9.6
			c1.7,0,2.4,0.7,2.4,2.4V588.1z"/>
		<path class="st0" d="M383,536.4c4.6,0,9.3,1,12.4,1.8c1.7,0.5,2.1,1.4,1.8,2.9l-1.1,5.3c-0.3,1.6-1.3,2.1-2.9,1.7
			c-2.3-0.6-6-1.4-9.1-1.4c-7.2,0-13.3,3.7-13.3,16.8c0,13.4,4.9,17.1,12.2,17.1c1,0,2.1-0.1,3.3-0.2v-14.6c0-1.7,0.7-2.4,2.4-2.4
			h8.4c1.7,0,2.4,0.7,2.4,2.4V586c0,1.7-0.5,2.5-2.3,3.1c-4.8,1.4-9.6,2.1-15.5,2.1c-13.4,0-25.4-5.8-25.5-27.5
			C356.7,542.8,369.6,536.4,383,536.4z"/>
		<path class="st0" d="M442.6,590.5c-1.7,0-2.8-0.6-3.7-2.1L420.8,559v29.1c0,1.7-0.7,2.4-2.4,2.4h-8.8c-1.7,0-2.4-0.7-2.4-2.4
			v-48.4c0-1.7,0.7-2.4,2.4-2.4h9.5c1.7,0,2.8,0.6,3.7,2.1l18.1,29.4v-29c0-1.7,0.7-2.4,2.4-2.4h9.1c1.7,0,2.4,0.7,2.4,2.4v48.4
			c0,1.7-0.7,2.4-2.4,2.4L442.6,590.5L442.6,590.5z"/>
	</g>
</g>
</svg>
